Cinzel-Black-OTF.ufo
<glyph name="dollar" format="1">
  <advance width="615"/>
  <unicode hex="0024"/>
  <outline>
    <contour>
      <point x="357.016" y="456.847" type="line"/>
      <point x="372.792" y="662.033" type="line"/>
      <point x="452.113" y="652.122"/>
      <point x="499.074" y="605.558"/>
      <point x="499.436" y="541.034" type="curve"/>
      <point x="509.065" y="541.034" type="line"/>
      <point x="530.643" y="703.741" type="line"/>
      <point x="452.832" y="703.741" type="line"/>
      <point x="428.928" y="706.125"/>
      <point x="402.185" y="708.286"/>
      <point x="376.48" y="710.003" type="curve"/>
      <point x="382.395" y="786.94" type="line"/>
      <point x="333.871" y="787.988" type="line"/>
      <point x="328.121" y="712.756" type="line"/>
      <point x="310.713" y="713.552"/>
      <point x="295.428" y="714"/>
      <point x="284.027" y="714" type="curve" smooth="yes"/>
      <point x="150.027" y="714"/>
      <point x="65.0268" y="651"/>
      <point x="51.0268" y="535" type="curve" smooth="yes"/>
      <point x="39.0268" y="440"/>
      <point x="82.0268" y="362"/>
      <point x="173.593" y="319.61" type="curve" smooth="yes"/>
      <point x="293.828" y="264.065" type="line"/>
      <point x="276.484" y="37.1337" type="line"/>
      <point x="151.898" y="48.3774"/>
      <point x="78.4449" y="141.554"/>
      <point x="84.7287" y="240.047" type="curve"/>
      <point x="75.9367" y="240.047" type="line"/>
      <point x="42.7037" y="197.21"/>
      <point x="21.9237" y="99.51"/>
      <point x="44.3767" y="50.639" type="curve"/>
      <point x="78.1803" y="15.8706"/>
      <point x="160.856" y="-13"/>
      <point x="272.58" y="-14" type="curve"/>
      <point x="266.08" y="-99" type="line"/>
      <point x="314.05" y="-102" type="line"/>
      <point x="320.908" y="-13" type="line"/>
      <point x="486.131" y="-3"/>
      <point x="585.751" y="73.3548"/>
      <point x="595.027" y="206" type="curve" smooth="yes"/>
      <point x="602.027" y="303"/>
      <point x="554.027" y="366"/>
      <point x="479.639" y="400.221" type="curve" smooth="yes"/>
    </contour>
    <contour>
      <point x="292.739" y="486.53" type="line" smooth="yes"/>
      <point x="243.027" y="509"/>
      <point x="200.027" y="532"/>
      <point x="204.027" y="580" type="curve" smooth="yes"/>
      <point x="207.765" y="625.797"/>
      <point x="251.687" y="659.364"/>
      <point x="324.361" y="663.557" type="curve"/>
      <point x="310.214" y="478.46" type="line"/>
    </contour>
    <contour>
      <point x="340.534" y="242.471" type="line"/>
      <point x="414.047" y="207.865"/>
      <point x="443.025" y="175.287"/>
      <point x="442.924" y="134.476" type="curve" smooth="yes"/>
      <point x="443.018" y="87.2433"/>
      <point x="405.139" y="43.7794"/>
      <point x="324.732" y="36.9344" type="curve"/>
    </contour>
  </outline>
</glyph>
<glyph name="ampersand" format="1">
  <advance width="910"/>
  <unicode hex="0026"/>
  <outline>
    <contour>
      <point x="920.002" y="11" type="line"/>
      <point x="874.375" y="33.0526"/>
      <point x="817.761" y="78.8143"/>
      <point x="733.451" y="152.242" type="curve"/>
      <point x="766.342" y="214.158"/>
      <point x="779.015" y="286.773"/>
      <point x="785" y="357" type="curve" smooth="yes"/>
      <point x="788" y="392"/>
      <point x="788" y="415"/>
      <point x="819.423" y="414.592" type="curve" smooth="yes"/>
      <point x="833.187" y="414.571" type="line"/>
      <point x="833.187" y="424.571" type="line"/>
      <point x="577.356" y="424.571" type="line"/>
      <point x="577.356" y="414.571" type="line"/>
      <point x="591.757" y="414.592" type="line" smooth="yes"/>
      <point x="614" y="415"/>
      <point x="635" y="403"/>
      <point x="651" y="369" type="curve" smooth="yes"/>
      <point x="670.244" y="327.87"/>
      <point x="673.684" y="270.936"/>
      <point x="660.889" y="215.981" type="curve"/>
      <point x="527" y="331" type="line" smooth="yes"/>
      <point x="413" y="429"/>
      <point x="351" y="489"/>
      <point x="351" y="562.604" type="curve" smooth="yes"/>
      <point x="351" y="622"/>
      <point x="392" y="664"/>
      <point x="453" y="664" type="curve" smooth="yes"/>
      <point x="547" y="664"/>
      <point x="568" y="566"/>
      <point x="568.996" y="479.951" type="curve"/>
      <point x="578.129" y="479.951" type="line"/>
      <point x="625.383" y="643.151" type="line"/>
      <point x="592" y="694"/>
      <point x="495" y="714"/>
      <point x="410" y="714" type="curve" smooth="yes"/>
      <point x="284" y="714"/>
      <point x="141" y="670"/>
      <point x="141" y="531.036" type="curve" smooth="yes"/>
      <point x="141" y="484.434"/>
      <point x="157.159" y="439.617"/>
      <point x="183.711" y="396.639" type="curve"/>
      <point x="109.592" y="376.276"/>
      <point x="25" y="321.142"/>
      <point x="25" y="211" type="curve" smooth="yes"/>
      <point x="25" y="21"/>
      <point x="275" y="-10"/>
      <point x="401" y="-10" type="curve" smooth="yes"/>
      <point x="484.585" y="-10"/>
      <point x="549.868" y="3.70838"/>
      <point x="600.945" y="27.1638" type="curve"/>
      <point x="705.091" y="-24"/>
      <point x="825.251" y="-11"/>
      <point x="920.72" y="0" type="curve"/>
    </contour>
    <contour>
      <point x="235.747" y="274.135"/>
      <point x="239.205" y="298.083"/>
      <point x="245.335" y="317.064" type="curve"/>
      <point x="281.362" y="277.956"/>
      <point x="323.631" y="240.585"/>
      <point x="367" y="205" type="curve" smooth="yes"/>
      <point x="393.553" y="183.758"/>
      <point x="492.175" y="100.631"/>
      <point x="548.465" y="59.6181" type="curve"/>
      <point x="523.835" y="47.1919"/>
      <point x="495.362" y="40"/>
      <point x="463" y="40" type="curve" smooth="yes"/>
      <point x="371" y="40"/>
      <point x="249" y="99"/>
      <point x="238" y="244" type="curve" smooth="yes"/>
    </contour>
  </outline>
</glyph>
<glyph name="asterisk" format="1">
  <advance width="390"/>
  <unicode hex="002A"/>
  <outline>
    <contour>
      <point x="202.271" y="605.222" type="line"/>
      <point x="274.446" y="591.008" type="line"/>
      <point x="355.686" y="604.154" type="line"/>
      <point x="352.623" y="658.886" type="line"/>
      <point x="322.93" y="704.966" type="line"/>
      <point x="249.725" y="667.093" type="line"/>
      <point x="199.878" y="613.465" type="line"/>
      <point x="235.504" y="677.505" type="line"/>
      <point x="248.106" y="758.831" type="line"/>
      <point x="195.106" y="772.831" type="line"/>
      <point x="142.106" y="758.831" type="line"/>
      <point x="155.504" y="677.505" type="line"/>
      <point x="191.083" y="613.563" type="line"/>
      <point x="141.207" y="667.199" type="line"/>
      <point x="67.755" y="704.316" type="line"/>
      <point x="38.063" y="658.235" type="line"/>
      <point x="35" y="603.503" type="line"/>
      <point x="116.486" y="591.114" type="line"/>
      <point x="188.348" y="605.203" type="line"/>
      <point x="121.847" y="574.352" type="line"/>
      <point x="63.8491" y="515.965" type="line"/>
      <point x="98.4991" y="473.486" type="line"/>
      <point x="149.606" y="453.66" type="line"/>
      <point x="186.569" y="527.329" type="line"/>
      <point x="195.398" y="600.205" type="line"/>
      <point x="204.216" y="527.243" type="line"/>
      <point x="241.823" y="454.041" type="line"/>
      <point x="292.93" y="473.868" type="line"/>
      <point x="327.579" y="516.347" type="line"/>
      <point x="268.938" y="574.266" type="line"/>
    </contour>
  </outline>
</glyph>
<glyph name="three" format="1">
  <advance width="602"/>
  <unicode hex="0033"/>
  <outline>
    <contour>
      <point x="87.349" y="467.766" type="line"/>
      <point x="97.349" y="467.766" type="line"/>
      <point x="93.911" y="593"/>
      <point x="124.911" y="655"/>
      <point x="204.911" y="662" type="curve" smooth="yes"/>
      <point x="264.911" y="668"/>
      <point x="319.911" y="639"/>
      <point x="326.911" y="565" type="curve" smooth="yes"/>
      <point x="335.911" y="468"/>
      <point x="255.911" y="391"/>
      <point x="163.693" y="394.366" type="curve"/>
      <point x="161.87" y="384.366" type="line"/>
      <point x="247.911" y="383"/>
      <point x="346.911" y="338"/>
      <point x="346.911" y="216" type="curve" smooth="yes"/>
      <point x="346.911" y="70"/>
      <point x="204.911" y="-26"/>
      <point x="40.911" y="-22" type="curve"/>
      <point x="38.911" y="-32" type="line"/>
      <point x="259.911" y="-131"/>
      <point x="561.911" y="-35"/>
      <point x="562.27" y="200.215" type="curve"/>
      <point x="561.972" y="328.696"/>
      <point x="473.04" y="380.157"/>
      <point x="397.631" y="394.645" type="curve"/>
      <point x="465.064" y="398.057"/>
      <point x="532.911" y="448.204"/>
      <point x="532.911" y="540" type="curve" smooth="yes"/>
      <point x="532.911" y="649"/>
      <point x="437.911" y="712"/>
      <point x="278.911" y="712" type="curve" smooth="yes"/>
      <point x="170.911" y="712"/>
      <point x="80.911" y="683"/>
      <point x="30" y="640.966" type="curve"/>
    </contour>
  </outline>
</glyph>
<glyph name="four" format="1">
  <advance width="643"/>
  <unicode hex="0034"/>
  <outline>
    <contour>
      <point x="597.797" y="188.763" type="line"/>
      <point x="628.797" y="333.763" type="line"/>
      <point x="618.797" y="333.763" type="line"/>
      <point x="606.797" y="308.473"/>
      <point x="590.992" y="293.763"/>
      <point x="554.154" y="293.763" type="curve" smooth="yes"/>
      <point x="510.646" y="293.763" type="line"/>
      <point x="510.646" y="714" type="line"/>
      <point x="501.281" y="714" type="line"/>
      <point x="-15" y="198.763" type="line"/>
      <point x="-15" y="188.763" type="line"/>
      <point x="305.646" y="188.763" type="line"/>
      <point x="305.646" y="61.8644" type="line"/>
      <point x="304.525" y="31.9496"/>
      <point x="279.916" y="10"/>
      <point x="250.469" y="10" type="curve" smooth="yes"/>
      <point x="239.564" y="10" type="line"/>
      <point x="239.425" y="0" type="line"/>
      <point x="576.886" y="0" type="line"/>
      <point x="576.747" y="10" type="line"/>
      <point x="565.842" y="10" type="line" smooth="yes"/>
      <point x="536.13" y="10"/>
      <point x="511.002" y="33.6602"/>
      <point x="510.646" y="63.3614" type="curve"/>
      <point x="510.646" y="188.763" type="line"/>
    </contour>
    <contour>
      <point x="153.943" y="293.763" type="line"/>
      <point x="305.646" y="441.424" type="line"/>
      <point x="305.646" y="293.763" type="line"/>
    </contour>
  </outline>
</glyph>
<glyph name="colon" format="1">
  <advance width="250"/>
  <unicode hex="003A"/>
  <outline>
    <contour>
      <point x="174.706" y="368.51"/>
      <point x="215" y="408.804"/>
      <point x="215" y="458.51" type="curve" smooth="yes"/>
      <point x="215" y="508.216"/>
      <point x="174.706" y="548.51"/>
      <point x="125" y="548.51" type="curve" smooth="yes"/>
      <point x="75.294" y="548.51"/>
      <point x="35" y="508.216"/>
      <point x="35" y="458.51" type="curve" smooth="yes"/>
      <point x="35" y="408.804"/>
      <point x="75.294" y="368.51"/>
      <point x="125" y="368.51" type="curve" smooth="yes"/>
    </contour>
    <contour>
      <point x="174.706" y="-14"/>
      <point x="215" y="26.294"/>
      <point x="215" y="76" type="curve" smooth="yes"/>
      <point x="215" y="125.706"/>
      <point x="174.706" y="166"/>
      <point x="125" y="166" type="curve" smooth="yes"/>
      <point x="75.294" y="166"/>
      <point x="35" y="125.706"/>
      <point x="35" y="76" type="curve" smooth="yes"/>
      <point x="35" y="26.294"/>
      <point x="75.294" y="-14"/>
      <point x="125" y="-14" type="curve" smooth="yes"/>
    </contour>
  </outline>
</glyph>
<glyph name="semicolon" format="1">
  <advance width="260"/>
  <unicode hex="003B"/>
  <outline>
    <contour>
      <point x="174.706" y="397.23"/>
      <point x="215" y="437.524"/>
      <point x="215" y="487.23" type="curve" smooth="yes"/>
      <point x="215" y="536.936"/>
      <point x="174.706" y="577.23"/>
      <point x="125" y="577.23" type="curve" smooth="yes"/>
      <point x="75.294" y="577.23"/>
      <point x="35" y="536.936"/>
      <point x="35" y="487.23" type="curve" smooth="yes"/>
      <point x="35" y="437.524"/>
      <point x="75.294" y="397.23"/>
      <point x="125" y="397.23" type="curve" smooth="yes"/>
    </contour>
    <contour>
      <point x="44.6862" y="-129" type="line"/>
      <point x="164.935" y="-152"/>
      <point x="263.935" y="-10"/>
      <point x="209.935" y="108" type="curve" smooth="yes"/>
      <point x="184.935" y="163"/>
      <point x="112.935" y="182"/>
      <point x="67.9351" y="149" type="curve" smooth="yes"/>
      <point x="28.9351" y="121"/>
      <point x="22.8618" y="51.8377"/>
      <point x="58.9351" y="11" type="curve" smooth="yes"/>
      <point x="111.935" y="-49"/>
      <point x="76.9351" y="-100"/>
      <point x="40.8404" y="-116" type="curve"/>
    </contour>
  </outline>
</glyph>
<glyph name="greater" format="1">
  <advance width="481"/>
  <unicode hex="003E"/>
  <outline>
    <contour>
      <point x="40" y="526.253" type="line"/>
      <point x="40" y="455.253" type="line"/>
      <point x="348.675" y="309.978" type="line"/>
      <point x="40" y="164.255" type="line"/>
      <point x="40" y="93.255" type="line"/>
      <point x="441.723" y="280.256" type="line"/>
      <point x="441.723" y="339.255" type="line"/>
    </contour>
  </outline>
</glyph>
<glyph name="A" format="1">
  <advance width="720"/>
  <unicode hex="0041"/>
  <outline>
    <contour>
      <point x="351.414" y="724" type="line"/>
      <point x="342.408" y="724" type="line"/>
      <point x="338.408" y="690.283"/>
      <point x="297.112" y="599.922"/>
      <point x="285.361" y="574.867" type="curve" smooth="yes"/>
      <point x="52.025" y="64.034" type="line"/>
      <point x="30.408" y="25.9685"/>
      <point x="-3" y="10"/>
      <point x="-31" y="10" type="curve" smooth="yes"/>
      <point x="-40" y="10" type="line"/>
      <point x="-40" y="0" type="line"/>
      <point x="183.279" y="0" type="line"/>
      <point x="183.279" y="9.90829" type="line"/>
      <point x="174.487" y="9.90829" type="line" smooth="yes"/>
      <point x="148.67" y="9.90829"/>
      <point x="118.49" y="32.6643"/>
      <point x="136.092" y="72.6813" type="curve" smooth="yes"/>
      <point x="176.25" y="166" type="line"/>
      <point x="389.737" y="166" type="line"/>
      <point x="428.741" y="72.6821" type="line" smooth="yes"/>
      <point x="444.745" y="32.6643"/>
      <point x="415.815" y="9.9113"/>
      <point x="389.999" y="9.9113" type="curve" smooth="yes"/>
      <point x="381.207" y="9.9113" type="line"/>
      <point x="381.207" y="0" type="line"/>
      <point x="760.264" y="0" type="line"/>
      <point x="760.264" y="10" type="line"/>
      <point x="751.901" y="10" type="line" smooth="yes"/>
      <point x="723.121" y="10"/>
      <point x="690.494" y="26.2831"/>
      <point x="668.231" y="65.159" type="curve"/>
    </contour>
    <contour>
      <point x="198.048" y="216" type="line"/>
      <point x="285.241" y="416.01" type="line"/>
      <point x="368.839" y="216" type="line"/>
    </contour>
    <contour>
      <point x="547" y="10" type="move" name="ogonek"/>
    </contour>
    <contour>
      <point x="348.812" y="764" type="move" name="top"/>
    </contour>
  </outline>
</glyph>
<glyph name="B" format="1">
  <advance width="731"/>
  <unicode hex="0042"/>
  <outline>
    <contour>
      <point x="30.003" y="700" type="line"/>
      <point x="30.165" y="690.06" type="line"/>
      <point x="43" y="690" type="line" smooth="yes"/>
      <point x="77.5494" y="690.079"/>
      <point x="105.778" y="662.458"/>
      <point x="106.849" y="627.994" type="curve" smooth="yes"/>
      <point x="106.849" y="72.2059" type="line" smooth="yes"/>
      <point x="105.851" y="37.6765"/>
      <point x="77.5923" y="9.97911"/>
      <point x="42.812" y="9.97911" type="curve" smooth="yes"/>
      <point x="30.162" y="10" type="line"/>
      <point x="30" y="0" type="line"/>
      <point x="393.646" y="0" type="line" smooth="yes"/>
      <point x="576" y="0"/>
      <point x="707" y="61"/>
      <point x="706.559" y="199.868" type="curve"/>
      <point x="707" y="311"/>
      <point x="623" y="376"/>
      <point x="525.201" y="380.853" type="curve"/>
      <point x="592" y="383"/>
      <point x="656" y="430"/>
      <point x="656.036" y="526.101" type="curve"/>
      <point x="656" y="663"/>
      <point x="527" y="700"/>
      <point x="378.447" y="700" type="curve" smooth="yes"/>
    </contour>
    <contour>
      <point x="311.966" y="51.4701" type="line"/>
      <point x="311.966" y="649.829" type="line"/>
      <point x="324.828" y="649.818" type="line" smooth="yes"/>
      <point x="390" y="650"/>
      <point x="441" y="617"/>
      <point x="441.036" y="510.072" type="curve" smooth="yes"/>
      <point x="441" y="427"/>
      <point x="410" y="379"/>
      <point x="345.668" y="379.222" type="curve"/>
      <point x="345.896" y="369.81" type="line"/>
      <point x="430" y="370"/>
      <point x="472" y="311"/>
      <point x="471.559" y="215.389" type="curve" smooth="yes"/>
      <point x="472" y="94"/>
      <point x="405" y="51"/>
      <point x="324.828" y="51.4702" type="curve" smooth="yes"/>
    </contour>
  </outline>
</glyph>
<glyph name="E" format="1">
  <advance width="667"/>
  <unicode hex="0045"/>
  <outline>
    <contour>
      <point x="642.845" y="231.543" type="line"/>
      <point x="611.753" y="117.359"/>
      <point x="531.283" y="50.592"/>
      <point x="435.32" y="50.592" type="curve" smooth="yes"/>
      <point x="311.901" y="50.592" type="line"/>
      <point x="311.901" y="320.218" type="line"/>
      <point x="422.202" y="320.218" type="line" smooth="yes"/>
      <point x="484.992" y="318.435"/>
      <point x="529.486" y="273.356"/>
      <point x="529.275" y="210.977" type="curve" smooth="yes"/>
      <point x="529.259" y="206.243" type="line"/>
      <point x="539.032" y="206.119" type="line"/>
      <point x="539.032" y="484.375" type="line"/>
      <point x="529.259" y="484.25" type="line"/>
      <point x="529.276" y="479.516" type="line" smooth="yes"/>
      <point x="529.501" y="416.714"/>
      <point x="484.451" y="371.446"/>
      <point x="420.904" y="370.248" type="curve" smooth="yes"/>
      <point x="311.901" y="370.218" type="line"/>
      <point x="311.901" y="649.409" type="line"/>
      <point x="456.878" y="649.409" type="line"/>
      <point x="535.649" y="646.525"/>
      <point x="581.956" y="598.564"/>
      <point x="581.765" y="519.891" type="curve" smooth="yes"/>
      <point x="581.746" y="512.067" type="line"/>
      <point x="591.822" y="511.917" type="line"/>
      <point x="591.822" y="718.187" type="line"/>
      <point x="573.262" y="710.366"/>
      <point x="515.681" y="700.407"/>
      <point x="472.581" y="700" type="curve" smooth="yes"/>
      <point x="30.0068" y="700.06" type="line"/>
      <point x="30.1688" y="690.06" type="line"/>
      <point x="42.8188" y="690.08" type="line" smooth="yes"/>
      <point x="77.7589" y="690.08"/>
      <point x="106.118" y="662.128"/>
      <point x="106.869" y="627.378" type="curve" smooth="yes"/>
      <point x="106.869" y="72.864" type="line" smooth="yes"/>
      <point x="106.21" y="38.0291"/>
      <point x="77.813" y="9.97905"/>
      <point x="42.811" y="9.97905" type="curve" smooth="yes"/>
      <point x="30.161" y="10" type="line"/>
      <point x="30" y="0" type="line"/>
      <point x="614.557" y="0" type="line"/>
      <point x="652.845" y="231.543" type="line"/>
    </contour>
    <contour>
      <point x="567.919" y="4.63838" type="move" name="ogonek"/>
    </contour>
    <contour>
      <point x="358.706" y="0" type="move" name="bottom"/>
    </contour>
    <contour>
      <point x="339.039" y="764" type="move" name="top"/>
    </contour>
  </outline>
</glyph>
<glyph name="F" format="1">
  <advance width="631"/>
  <unicode hex="0046"/>
  <outline>
    <contour>
      <point x="591.811" y="718.187" type="line"/>
      <point x="573.253" y="710.366"/>
      <point x="515.681" y="700.407"/>
      <point x="472.581" y="700" type="curve" smooth="yes"/>
      <point x="30.008" y="700.067" type="line"/>
      <point x="30.17" y="690.067" type="line"/>
      <point x="42.82" y="690.087" type="line" smooth="yes"/>
      <point x="77.745" y="690.087"/>
      <point x="106.094" y="662.159"/>
      <point x="106.869" y="627.431" type="curve" smooth="yes"/>
      <point x="106.869" y="72.8639" type="line" smooth="yes"/>
      <point x="106.21" y="38.0289"/>
      <point x="77.8134" y="9.97887"/>
      <point x="42.8114" y="9.97887" type="curve" smooth="yes"/>
      <point x="30.1614" y="9.99987" type="line"/>
      <point x="30" y="0" type="line"/>
      <point x="388.804" y="0" type="line"/>
      <point x="388.643" y="9.99987" type="line"/>
      <point x="375.993" y="9.97887" type="line" smooth="yes"/>
      <point x="340.991" y="9.97887"/>
      <point x="312.594" y="38.0289"/>
      <point x="311.939" y="72.8639" type="curve" smooth="yes"/>
      <point x="311.901" y="320.218" type="line"/>
      <point x="422.202" y="320.218" type="line" smooth="yes"/>
      <point x="484.992" y="318.435"/>
      <point x="529.486" y="273.356"/>
      <point x="529.275" y="210.977" type="curve" smooth="yes"/>
      <point x="529.259" y="206.243" type="line"/>
      <point x="539.032" y="206.119" type="line"/>
      <point x="539.032" y="484.375" type="line"/>
      <point x="529.259" y="484.25" type="line"/>
      <point x="529.276" y="479.516" type="line" smooth="yes"/>
      <point x="529.501" y="416.714"/>
      <point x="484.451" y="371.446"/>
      <point x="420.904" y="370.248" type="curve" smooth="yes"/>
      <point x="311.901" y="370.218" type="line"/>
      <point x="311.901" y="649.409" type="line"/>
      <point x="456.878" y="649.409" type="line"/>
      <point x="535.65" y="646.525"/>
      <point x="581.957" y="598.564"/>
      <point x="581.765" y="519.891" type="curve" smooth="yes"/>
      <point x="581.746" y="512.067" type="line"/>
      <point x="591.846" y="511.917" type="line"/>
    </contour>
  </outline>
</glyph>
<glyph name="I" format="1">
  <advance width="418"/>
  <unicode hex="0049"/>
  <outline>
    <contour>
      <point x="388.626" y="10" type="line"/>
      <point x="375.976" y="9.979" type="line" smooth="yes"/>
      <point x="340.974" y="9.979"/>
      <point x="312.577" y="38.029"/>
      <point x="311.922" y="72.864" type="curve"/>
      <point x="311.922" y="627.818" type="line" smooth="yes"/>
      <point x="312.9" y="662.363"/>
      <point x="341.167" y="690.08"/>
      <point x="375.959" y="690.08" type="curve" smooth="yes"/>
      <point x="388.609" y="690.06" type="line"/>
      <point x="388.771" y="700.06" type="line"/>
      <point x="30.016" y="700.06" type="line"/>
      <point x="30.178" y="690.06" type="line"/>
      <point x="42.828" y="690.08" type="line" smooth="yes"/>
      <point x="77.6917" y="690.08"/>
      <point x="106.003" y="662.25"/>
      <point x="106.873" y="627.606" type="curve" smooth="yes"/>
      <point x="106.873" y="72.8641" type="line" smooth="yes"/>
      <point x="106.21" y="38.0291"/>
      <point x="77.8129" y="9.97908"/>
      <point x="42.8109" y="9.97908" type="curve" smooth="yes"/>
      <point x="30.1609" y="10" type="line"/>
      <point x="29.9999" y="0" type="line"/>
      <point x="388.787" y="0" type="line"/>
    </contour>
    <contour>
      <point x="210.048" y="3" type="move" name="ogonek"/>
    </contour>
    <contour>
      <point x="208.306" y="764" type="move" name="top"/>
    </contour>
  </outline>
</glyph>
<glyph name="J" format="1">
  <advance width="424"/>
  <unicode hex="004A"/>
  <outline>
    <contour>
      <point x="35.085" y="700.06" type="line"/>
      <point x="35.247" y="690.06" type="line"/>
      <point x="47.897" y="690.08" type="line" smooth="yes"/>
      <point x="82.898" y="690.08"/>
      <point x="111.295" y="662.03"/>
      <point x="111.951" y="627.196" type="curve" smooth="yes"/>
      <point x="111.961" y="52.923" type="line" smooth="yes"/>
      <point x="111.961" y="-43"/>
      <point x="92.459" y="-147"/>
      <point x="-5" y="-191" type="curve"/>
      <point x="-5" y="-200" type="line"/>
      <point x="157.557" y="-221"/>
      <point x="317.163" y="-120"/>
      <point x="317.163" y="50.099" type="curve" smooth="yes"/>
      <point x="317.163" y="627.424" type="line" smooth="yes"/>
      <point x="317.938" y="662.152"/>
      <point x="346.287" y="690.08"/>
      <point x="381.212" y="690.08" type="curve" smooth="yes"/>
      <point x="393.862" y="690.06" type="line"/>
      <point x="394.024" y="700.06" type="line"/>
    </contour>
    <contour>
      <point x="275" y="700" type="move" name="top"/>
    </contour>
  </outline>
</glyph>
<glyph name="K" format="1">
  <advance width="822"/>
  <unicode hex="004B"/>
  <outline>
    <contour>
      <point x="311.922" y="627.818" type="line" smooth="yes"/>
      <point x="312.9" y="662.363"/>
      <point x="341.167" y="690.08"/>
      <point x="375.959" y="690.08" type="curve" smooth="yes"/>
      <point x="388.609" y="690.06" type="line"/>
      <point x="388.771" y="700.06" type="line"/>
      <point x="30.016" y="700.06" type="line"/>
      <point x="30.178" y="690.06" type="line"/>
      <point x="43" y="690" type="line" smooth="yes"/>
      <point x="77.6924" y="690.08"/>
      <point x="106.003" y="662.249"/>
      <point x="106.873" y="627.605" type="curve" smooth="yes"/>
      <point x="106.873" y="72.8639" type="line" smooth="yes"/>
      <point x="106.21" y="38.0289"/>
      <point x="77.813" y="9.97888"/>
      <point x="42.811" y="9.97888" type="curve" smooth="yes"/>
      <point x="30.161" y="9.99988" type="line"/>
      <point x="30" y="0" type="line"/>
      <point x="388.787" y="0" type="line"/>
      <point x="388.626" y="9.99988" type="line"/>
      <point x="376" y="9.99988" type="line" smooth="yes"/>
      <point x="340.974" y="9.97888"/>
      <point x="312.577" y="38.0289"/>
      <point x="311.922" y="72.8639" type="curve"/>
    </contour>
    <contour>
      <point x="507.452" y="437.752" type="line"/>
      <point x="676.163" y="641.692" type="line" smooth="yes"/>
      <point x="701.936" y="671.09"/>
      <point x="741.939" y="690.881"/>
      <point x="786.055" y="690.98" type="curve" smooth="yes"/>
      <point x="790.435" y="690.98" type="line"/>
      <point x="790.435" y="700" type="line"/>
      <point x="549.336" y="700" type="line"/>
      <point x="549.336" y="691.157" type="line"/>
      <point x="559" y="691.164" type="line" smooth="yes"/>
      <point x="586.407" y="691.164"/>
      <point x="599.035" y="666.349"/>
      <point x="583.182" y="644.083" type="curve" smooth="yes"/>
      <point x="344.077" y="318.182" type="line"/>
      <point x="344.002" y="315.996"/>
      <point x="451.767" y="142.443"/>
      <point x="483" y="99.9999" type="curve" smooth="yes"/>
      <point x="561" y="-6"/>
      <point x="711" y="0.16537"/>
      <point x="739.533" y="0.13087" type="curve" smooth="yes"/>
      <point x="847.725" y="0.13087" type="line"/>
      <point x="847.725" y="10.0749" type="line"/>
      <point x="807.078" y="11.1099"/>
      <point x="773.316" y="36.8729"/>
      <point x="740.941" y="85.6888" type="curve" smooth="yes"/>
    </contour>
    <contour>
      <point x="465" y="700" type="move" name="top"/>
    </contour>
    <contour>
      <point x="470" y="0" type="move" name="bottom"/>
    </contour>
  </outline>
</glyph>
<glyph name="M" format="1">
  <advance width="968"/>
  <unicode hex="004D"/>
  <outline>
    <contour>
      <point x="814.44" y="713.697" type="line"/>
      <point x="805.298" y="713.697" type="line"/>
      <point x="496.772" y="254.747" type="line"/>
      <point x="161.406" y="714" type="line"/>
      <point x="152.129" y="714" type="line"/>
      <point x="64.3383" y="72.6449" type="line" smooth="yes"/>
      <point x="59.082" y="33.1129"/>
      <point x="27.078" y="9.9909"/>
      <point x="-9" y="9.9909" type="curve" smooth="yes"/>
      <point x="-25" y="9.9999" type="line"/>
      <point x="-25" y="0" type="line"/>
      <point x="194.594" y="0" type="line"/>
      <point x="194.594" y="9.4449" type="line"/>
      <point x="179.013" y="9.4449" type="line" smooth="yes"/>
      <point x="157.469" y="9.4899"/>
      <point x="140.024" y="30.5899"/>
      <point x="140.024" y="52.1449" type="curve" smooth="yes"/>
      <point x="175.066" y="335.174" type="line"/>
      <point x="434.837" y="-24" type="line"/>
      <point x="444.265" y="-24" type="line"/>
      <point x="442.323" y="29.387"/>
      <point x="485.582" y="92.11"/>
      <point x="485.582" y="92.11" type="curve"/>
      <point x="655.58" y="344.402" type="line"/>
      <point x="693.941" y="52.145" type="line" smooth="yes"/>
      <point x="693.941" y="30.59"/>
      <point x="676.496" y="9.48997"/>
      <point x="654.953" y="9.44497" type="curve" smooth="yes"/>
      <point x="639.371" y="9.44497" type="line"/>
      <point x="639.371" y="0" type="line"/>
      <point x="993.586" y="0" type="line"/>
      <point x="993.586" y="9.99997" type="line"/>
      <point x="977.668" y="9.99097" type="line" smooth="yes"/>
      <point x="941.918" y="9.99097"/>
      <point x="911.914" y="33.113"/>
      <point x="904.785" y="72.645" type="curve"/>
    </contour>
  </outline>
</glyph>
<glyph name="N" format="1">
  <advance width="881"/>
  <unicode hex="004E"/>
  <outline>
    <contour>
      <point x="495.233" y="700.019" type="line"/>
      <point x="495.387" y="690.019" type="line"/>
      <point x="513.841" y="690.038" type="line" smooth="yes"/>
      <point x="547.579" y="690.042"/>
      <point x="574.944" y="663.005"/>
      <point x="575.575" y="629.431" type="curve" smooth="yes"/>
      <point x="575.603" y="289.291" type="line"/>
      <point x="97.8903" y="714.072" type="line"/>
      <point x="96.9971" y="715" type="line"/>
      <point x="87.1361" y="714.991" type="line" smooth="yes"/>
      <point x="87.1361" y="714.991"/>
      <point x="100.345" y="668.335"/>
      <point x="100.345" y="590.069" type="curve" smooth="yes"/>
      <point x="100.345" y="70.5441" type="line" smooth="yes"/>
      <point x="99.69" y="36.9924"/>
      <point x="72.3317" y="9.98097"/>
      <point x="38.6131" y="9.98097" type="curve" smooth="yes"/>
      <point x="20.1551" y="9.99997" type="line"/>
      <point x="20" y="0" type="line"/>
      <point x="385.987" y="0" type="line"/>
      <point x="385.833" y="9.99997" type="line"/>
      <point x="367.372" y="9.98097" type="line" smooth="yes"/>
      <point x="333.64" y="9.98097"/>
      <point x="306.273" y="37.017"/>
      <point x="305.637" y="70.59" type="curve"/>
      <point x="305.637" y="411.899" type="line"/>
      <point x="785.022" y="-14" type="line"/>
      <point x="794.104" y="-14" type="line"/>
      <point x="794.104" y="-14"/>
      <point x="780.983" y="31.165"/>
      <point x="780.983" y="113.582" type="curve" smooth="yes"/>
      <point x="780.983" y="630.256" type="line" smooth="yes"/>
      <point x="782.042" y="663.448"/>
      <point x="809.237" y="690.043"/>
      <point x="842.696" y="690.039" type="curve" smooth="yes"/>
      <point x="861.152" y="690.02" type="line"/>
      <point x="861.306" y="700.019" type="line"/>
    </contour>
    <contour>
      <point x="411.804" y="764" type="move" name="top"/>
    </contour>
    <contour>
      <point x="507.779" y="-64" type="move" name="bottom"/>
    </contour>
  </outline>
</glyph>
<glyph name="P" format="1">
  <advance width="707"/>
  <unicode hex="0050"/>
  <outline>
    <contour>
      <point x="35.351" y="700.06" type="line"/>
      <point x="35.513" y="690.06" type="line"/>
      <point x="48" y="690" type="line" smooth="yes"/>
      <point x="81.3777" y="690.076"/>
      <point x="108.658" y="664.807"/>
      <point x="111.905" y="632.449" type="curve"/>
      <point x="111.905" y="72.864" type="line" smooth="yes"/>
      <point x="111.21" y="38.029"/>
      <point x="82.813" y="9.97901"/>
      <point x="47.811" y="9.97901" type="curve" smooth="yes"/>
      <point x="35.161" y="10" type="line"/>
      <point x="35" y="0" type="line"/>
      <point x="393.897" y="0" type="line"/>
      <point x="393.736" y="10" type="line"/>
      <point x="381" y="10" type="line" smooth="yes"/>
      <point x="346.084" y="9.97901"/>
      <point x="317.687" y="38.029"/>
      <point x="317.032" y="72.864" type="curve"/>
      <point x="317.032" y="650" type="line"/>
      <point x="352.309" y="650" type="line" smooth="yes"/>
      <point x="429.068" y="650"/>
      <point x="474.068" y="598"/>
      <point x="477.068" y="517" type="curve" smooth="yes"/>
      <point x="478.068" y="500"/>
      <point x="476.068" y="477"/>
      <point x="471.068" y="457" type="curve" smooth="yes"/>
      <point x="443.068" y="342"/>
      <point x="350.068" y="340"/>
      <point x="351.101" y="338.866" type="curve"/>
      <point x="351.221" y="329.416" type="line"/>
      <point x="505" y="218"/>
      <point x="702.371" y="324"/>
      <point x="692.132" y="509.406" type="curve" smooth="yes"/>
      <point x="686.475" y="611.844"/>
      <point x="615" y="700"/>
      <point x="415.931" y="700" type="curve" smooth="yes"/>
    </contour>
  </outline>
</glyph>
<glyph name="Q" format="1">
  <advance width="912"/>
  <unicode hex="0051"/>
  <outline>
    <contour>
      <point x="1368.93" y="-64" type="line"/>
      <point x="1266" y="-138"/>
      <point x="1121" y="-149"/>
      <point x="921" y="-76" type="curve" smooth="yes"/>
      <point x="789.031" y="-28"/>
      <point x="726.567" y="-5"/>
      <point x="629.295" y="10.7359" type="curve"/>
      <point x="782.345" y="59.5076"/>
      <point x="870.865" y="178.438"/>
      <point x="870.865" y="349.992" type="curve" smooth="yes"/>
      <point x="870.865" y="578.797"/>
      <point x="713.418" y="714"/>
      <point x="455.432" y="714" type="curve" smooth="yes"/>
      <point x="197.446" y="714"/>
      <point x="40" y="578.797"/>
      <point x="40" y="349.992" type="curve" smooth="yes"/>
      <point x="40" y="121.913"/>
      <point x="196.462" y="-13"/>
      <point x="453.012" y="-14" type="curve" smooth="yes"/>
      <point x="574" y="-18"/>
      <point x="660" y="-134"/>
      <point x="824" y="-224" type="curve" smooth="yes"/>
      <point x="1130" y="-391"/>
      <point x="1376" y="-283"/>
      <point x="1375.75" y="-67" type="curve"/>
    </contour>
    <contour>
      <point x="260.667" y="547.416"/>
      <point x="333.008" y="664.075"/>
      <point x="455.432" y="664.075" type="curve" smooth="yes"/>
      <point x="577.856" y="664.075"/>
      <point x="650.198" y="547.416"/>
      <point x="650.198" y="349.992" type="curve" smooth="yes"/>
      <point x="650.198" y="152.578"/>
      <point x="577.856" y="35.925"/>
      <point x="455.432" y="35.925" type="curve" smooth="yes"/>
      <point x="333.008" y="35.925"/>
      <point x="260.667" y="152.578"/>
      <point x="260.667" y="349.992" type="curve" smooth="yes"/>
    </contour>
  </outline>
</glyph>
<glyph name="T" format="1">
  <advance width="698"/>
  <unicode hex="0054"/>
  <outline>
    <contour>
      <point x="127.655" y="701" type="line" smooth="yes"/>
      <point x="84.7397" y="701.629"/>
      <point x="28.3333" y="711.441"/>
      <point x="9.9999" y="719.168" type="curve"/>
      <point x="9.9999" y="513.432" type="line"/>
      <point x="20.0999" y="513.582" type="line"/>
      <point x="20.0809" y="521.406" type="line" smooth="yes"/>
      <point x="19.8871" y="601.206"/>
      <point x="67.5329" y="649.407"/>
      <point x="148.373" y="651.02" type="curve" smooth="yes"/>
      <point x="246.731" y="651.02" type="line"/>
      <point x="246.731" y="71.2345" type="line"/>
      <point x="245.237" y="37.1584"/>
      <point x="217.182" y="9.97898"/>
      <point x="182.728" y="9.97898" type="curve" smooth="yes"/>
      <point x="170.078" y="9.99998" type="line"/>
      <point x="169.917" y="0" type="line"/>
      <point x="528.835" y="0" type="line"/>
      <point x="528.674" y="9.99998" type="line"/>
      <point x="516.024" y="9.97898" type="line" smooth="yes"/>
      <point x="481.291" y="9.97898"/>
      <point x="453.061" y="37.6002"/>
      <point x="451.99" y="72.0634" type="curve"/>
      <point x="451.99" y="651.02" type="line"/>
      <point x="550.232" y="651.02" type="line" smooth="yes"/>
      <point x="631.072" y="649.407"/>
      <point x="678.718" y="601.206"/>
      <point x="678.524" y="521.406" type="curve" smooth="yes"/>
      <point x="678.505" y="513.582" type="line"/>
      <point x="688.605" y="513.432" type="line"/>
      <point x="688.605" y="719.168" type="line"/>
      <point x="670.272" y="711.441"/>
      <point x="613.865" y="701.629"/>
      <point x="570.95" y="701" type="curve" smooth="yes"/>
    </contour>
    <contour>
      <point x="340" y="350" type="move" name="center"/>
    </contour>
    <contour>
      <point x="350" y="0" type="move" name="bottom"/>
    </contour>
    <contour>
      <point x="350" y="764" type="move" name="top"/>
    </contour>
  </outline>
</glyph>
<glyph name="U" format="1">
  <advance width="845"/>
  <unicode hex="0055"/>
  <outline>
    <contour>
      <point x="600.182" y="700" type="line"/>
      <point x="600.182" y="690" type="line"/>
      <point x="616.477" y="690.017" type="line" smooth="yes"/>
      <point x="644.901" y="690.017"/>
      <point x="668.046" y="669.918"/>
      <point x="669.301" y="641.882" type="curve"/>
      <point x="669.301" y="247.399" type="line" smooth="yes"/>
      <point x="668.993" y="115.459"/>
      <point x="601.153" y="37.495"/>
      <point x="486.424" y="37.495" type="curve" smooth="yes"/>
      <point x="371.813" y="37.495"/>
      <point x="304.089" y="120.248"/>
      <point x="304.089" y="260.292" type="curve" smooth="yes"/>
      <point x="304.089" y="641.99" type="line"/>
      <point x="305.308" y="669.97"/>
      <point x="328.43" y="690.017"/>
      <point x="356.815" y="690.017" type="curve" smooth="yes"/>
      <point x="373.111" y="690" type="line"/>
      <point x="373.111" y="700" type="line"/>
      <point x="30" y="700" type="line"/>
      <point x="30" y="690" type="line"/>
      <point x="46.2955" y="690.017" type="line" smooth="yes"/>
      <point x="75.1835" y="690.017"/>
      <point x="98.6195" y="669.255"/>
      <point x="99.1615" y="640.499" type="curve" smooth="yes"/>
      <point x="99.1784" y="255.596" type="line" smooth="yes"/>
      <point x="99.0615" y="87.587"/>
      <point x="211.364" y="-14"/>
      <point x="456.424" y="-14" type="curve" smooth="yes"/>
      <point x="648.115" y="-14"/>
      <point x="755.961" y="88.135"/>
      <point x="755.974" y="257.34" type="curve" smooth="yes"/>
      <point x="755.974" y="642.79" type="line"/>
      <point x="757.712" y="670.351"/>
      <point x="780.664" y="690.017"/>
      <point x="808.778" y="690.017" type="curve" smooth="yes"/>
      <point x="825.074" y="690" type="line"/>
      <point x="825.074" y="700" type="line"/>
    </contour>
    <contour>
      <point x="443.423" y="-8" type="move" name="ogonek"/>
    </contour>
    <contour>
      <point x="482.994" y="764" type="move" name="top"/>
    </contour>
  </outline>
</glyph>
<glyph name="V" format="1">
  <advance width="720"/>
  <unicode hex="0056"/>
  <outline>
    <contour>
      <point x="537.1" y="700" type="line"/>
      <point x="537.1" y="690.092" type="line"/>
      <point x="545.892" y="690.092" type="line" smooth="yes"/>
      <point x="571.709" y="690.092"/>
      <point x="601.889" y="667.336"/>
      <point x="584.287" y="627.319" type="curve" smooth="yes"/>
      <point x="435.139" y="283.99" type="line"/>
      <point x="291.637" y="627.318" type="line"/>
      <point x="277.634" y="667.336"/>
      <point x="304.564" y="690.089"/>
      <point x="330.38" y="690.089" type="curve" smooth="yes"/>
      <point x="339.172" y="690.089" type="line"/>
      <point x="339.172" y="700" type="line"/>
      <point x="-40" y="700" type="line"/>
      <point x="-40" y="690" type="line"/>
      <point x="-32" y="690" type="line" smooth="yes"/>
      <point x="-3" y="690"/>
      <point x="29.8773" y="673.713"/>
      <point x="52.1555" y="634.826" type="curve"/>
      <point x="368.965" y="-24" type="line"/>
      <point x="377.971" y="-24" type="line"/>
      <point x="381.971" y="9.71705"/>
      <point x="423.267" y="100.078"/>
      <point x="435.018" y="125.133" type="curve" smooth="yes"/>
      <point x="668.355" y="635.969" type="line"/>
      <point x="689.972" y="674.033"/>
      <point x="723.481" y="690"/>
      <point x="751.379" y="690" type="curve" smooth="yes"/>
      <point x="760.379" y="690" type="line"/>
      <point x="760.379" y="700" type="line"/>
    </contour>
  </outline>
</glyph>
<glyph name="W" format="1">
  <advance width="964"/>
  <unicode hex="0057"/>
  <outline>
    <contour>
      <point x="785.804" y="700" type="line"/>
      <point x="785.804" y="690.093" type="line"/>
      <point x="794.596" y="690.093" type="line" smooth="yes"/>
      <point x="822.413" y="690.093"/>
      <point x="843.198" y="667.849"/>
      <point x="832.596" y="627.831" type="curve" smooth="yes"/>
      <point x="753.453" y="347.067" type="line"/>
      <point x="554.314" y="715.321" type="line"/>
      <point x="545" y="715.642" type="line"/>
      <point x="372.053" y="355.858" type="line"/>
      <point x="262.567" y="628.381" type="line"/>
      <point x="248.659" y="667.855"/>
      <point x="274.689" y="690.086"/>
      <point x="300.317" y="690.086" type="curve" smooth="yes"/>
      <point x="309.109" y="690.086" type="line"/>
      <point x="309.109" y="700" type="line"/>
      <point x="-50" y="700" type="line"/>
      <point x="-50" y="690" type="line"/>
      <point x="-42" y="690" type="line" smooth="yes"/>
      <point x="-12" y="690"/>
      <point x="24.5539" y="673.618"/>
      <point x="43.6679" y="633.291" type="curve"/>
      <point x="290.728" y="-22" type="line"/>
      <point x="300.164" y="-22" type="line"/>
      <point x="300.81" y="33.1492"/>
      <point x="327.125" y="89.1562"/>
      <point x="327.125" y="89.1562" type="curve"/>
      <point x="485.393" y="412.802" type="line"/>
      <point x="716.12" y="-22" type="line"/>
      <point x="725.556" y="-22" type="line"/>
      <point x="720.069" y="27.7869"/>
      <point x="740.417" y="89.1563"/>
      <point x="740.417" y="89.1563" type="curve"/>
      <point x="909.794" y="633.397" type="line"/>
      <point x="925.779" y="673.64"/>
      <point x="966.365" y="690"/>
      <point x="995.62" y="690" type="curve" smooth="yes"/>
      <point x="1004.41" y="690" type="line"/>
      <point x="1004.41" y="700" type="line"/>
    </contour>
    <contour>
      <point x="543.309" y="764" type="move" name="top"/>
    </contour>
  </outline>
</glyph>
<glyph name="X" format="1">
  <advance width="773"/>
  <unicode hex="0058"/>
  <outline>
    <contour>
      <point x="810.084" y="10" type="line"/>
      <point x="796.452" y="10" type="line" smooth="yes"/>
      <point x="754.454" y="10"/>
      <point x="715.455" y="37.454"/>
      <point x="694.639" y="68.326" type="curve" smooth="yes"/>
      <point x="488.911" y="382.853" type="line"/>
      <point x="655.644" y="631.612" type="line" smooth="yes"/>
      <point x="677.41" y="662.328"/>
      <point x="713.316" y="689.993"/>
      <point x="755.135" y="689.993" type="curve" smooth="yes"/>
      <point x="769.135" y="689.993" type="line"/>
      <point x="768.96" y="700.017" type="line"/>
      <point x="510.408" y="700.017" type="line"/>
      <point x="510.583" y="689.993" type="line"/>
      <point x="523.184" y="689.993" type="line" smooth="yes"/>
      <point x="550.396" y="689.993"/>
      <point x="575.452" y="656.477"/>
      <point x="558.443" y="628.132" type="curve" smooth="yes"/>
      <point x="444.656" y="450.514" type="line"/>
      <point x="328.487" y="628.125" type="line"/>
      <point x="311.462" y="656.475"/>
      <point x="335.288" y="690.034"/>
      <point x="362.507" y="690.034" type="curve" smooth="yes"/>
      <point x="375.105" y="690.034" type="line"/>
      <point x="374.931" y="700" type="line"/>
      <point x="-27" y="700" type="line"/>
      <point x="-27" y="690.034" type="line"/>
      <point x="-13" y="690.034" type="line" smooth="yes"/>
      <point x="28.5101" y="690.034"/>
      <point x="67.1926" y="662.278"/>
      <point x="88.0629" y="631.54" type="curve" smooth="yes"/>
      <point x="278.731" y="338.746" type="line"/>
      <point x="79.6446" y="66.9229" type="line" smooth="yes"/>
      <point x="55.9643" y="36.8047"/>
      <point x="22.0832" y="10.0242"/>
      <point x="-19" y="10.0242" type="curve" smooth="yes"/>
      <point x="-33" y="10.0242" type="line"/>
      <point x="-33" y="0" type="line"/>
      <point x="227.039" y="0" type="line"/>
      <point x="226.864" y="10.0242" type="line"/>
      <point x="214.264" y="10.0242" type="line" smooth="yes"/>
      <point x="186.991" y="10.0242"/>
      <point x="159.884" y="43.6912"/>
      <point x="179.121" y="72.0772" type="curve" smooth="yes"/>
      <point x="321.416" y="273.199" type="line"/>
      <point x="452.712" y="71.5781" type="line" smooth="yes"/>
      <point x="469.931" y="43.1922"/>
      <point x="446.054" y="10"/>
      <point x="418.781" y="10" type="curve" smooth="yes"/>
      <point x="406.182" y="10" type="line"/>
      <point x="406.356" y="0" type="line"/>
      <point x="810.258" y="0" type="line"/>
    </contour>
  </outline>
</glyph>
<glyph name="Z" format="1">
  <advance width="668"/>
  <unicode hex="005A"/>
  <outline>
    <contour>
      <point x="633.845" y="231.543" type="line"/>
      <point x="602.753" y="117.359"/>
      <point x="522.283" y="49.807"/>
      <point x="426.32" y="49.807" type="curve" smooth="yes"/>
      <point x="285.039" y="49.734" type="line"/>
      <point x="620.594" y="705.328" type="line"/>
      <point x="620.594" y="714" type="line"/>
      <point x="608.791" y="707.817"/>
      <point x="554.843" y="701.098"/>
      <point x="514.627" y="701.098" type="curve" smooth="yes"/>
      <point x="170.268" y="701.098" type="line" smooth="yes"/>
      <point x="126.997" y="700.986"/>
      <point x="68.1449" y="711.104"/>
      <point x="49.3418" y="719.03" type="curve"/>
      <point x="49.3418" y="513.271" type="line"/>
      <point x="59.4418" y="513.421" type="line"/>
      <point x="59.4228" y="521.245" type="line" smooth="yes"/>
      <point x="59.2296" y="600.809"/>
      <point x="106.593" y="649.954"/>
      <point x="186.998" y="650.856" type="curve" smooth="yes"/>
      <point x="367.247" y="650.856" type="line"/>
      <point x="35.1838" y="9.32197" type="line"/>
      <point x="34.9998" y="0" type="line"/>
      <point x="605.557" y="0" type="line"/>
      <point x="643.845" y="231.543" type="line"/>
    </contour>
    <contour>
      <point x="335" y="764" type="move" name="top"/>
    </contour>
  </outline>
</glyph>
<glyph name="a" format="1">
  <advance width="632"/>
  <unicode hex="0061"/>
  <outline>
    <contour>
      <point x="307.614" y="636.407" type="line"/>
      <point x="299.762" y="636.407" type="line"/>
      <point x="296.05" y="606.839"/>
      <point x="259.343" y="528.783"/>
      <point x="247.79" y="503.389" type="curve" smooth="yes"/>
      <point x="42.0302" y="58.5345" type="line"/>
      <point x="24.03" y="23.1896"/>
      <point x="-9" y="9.99957"/>
      <point x="-34" y="9.99957" type="curve" smooth="yes"/>
      <point x="-42" y="9.99957" type="line"/>
      <point x="-42" y="0" type="line"/>
      <point x="164.452" y="0" type="line"/>
      <point x="164.452" y="9.90777" type="line"/>
      <point x="156.649" y="9.90777" type="line" smooth="yes"/>
      <point x="134.3" y="9.90777"/>
      <point x="109.12" y="26.5145"/>
      <point x="121.538" y="58.4459" type="curve"/>
      <point x="151.502" y="127.097" type="line"/>
      <point x="337.268" y="127.097" type="line"/>
      <point x="366.187" y="60.8712" type="line" smooth="yes"/>
      <point x="380.851" y="27.3564"/>
      <point x="355.196" y="9.91127"/>
      <point x="332.287" y="9.91127" type="curve" smooth="yes"/>
      <point x="324.487" y="9.91127" type="line"/>
      <point x="324.487" y="0" type="line"/>
      <point x="675.621" y="0" type="line"/>
      <point x="675.621" y="10" type="line"/>
      <point x="668.2" y="10" type="line" smooth="yes"/>
      <point x="641.05" y="10"/>
      <point x="609.012" y="23.7949"/>
      <point x="590.32" y="60.9703" type="curve" smooth="yes"/>
    </contour>
    <contour>
      <point x="171.316" y="172.492" type="line"/>
      <point x="244.363" y="339.852" type="line"/>
      <point x="317.445" y="172.492" type="line"/>
    </contour>
    <contour>
      <point x="578.344" y="9.97223" type="move" name="ogonek"/>
    </contour>
    <contour>
      <point x="304.521" y="664" type="move" name="top"/>
    </contour>
  </outline>
</glyph>
<glyph name="b" format="1">
  <advance width="626"/>
  <unicode hex="0062"/>
  <outline>
    <contour>
      <point x="23.0086" y="600.069" type="line"/>
      <point x="22.9997" y="590.07" type="line"/>
      <point x="33.9475" y="590.069" type="line" smooth="yes"/>
      <point x="62.6548" y="590.069"/>
      <point x="85.5023" y="567.767"/>
      <point x="85.4661" y="537.622" type="curve" smooth="yes"/>
      <point x="85.4661" y="62.4458" type="line" smooth="yes"/>
      <point x="85.5025" y="32.1734"/>
      <point x="62.6551" y="9.99979"/>
      <point x="33.9478" y="9.99979" type="curve" smooth="yes"/>
      <point x="22.9998" y="9.99979" type="line"/>
      <point x="23.0089" y="0" type="line"/>
      <point x="340.589" y="0" type="line" smooth="yes"/>
      <point x="498.7" y="0"/>
      <point x="611" y="50.9768"/>
      <point x="611" y="172.65" type="curve" smooth="yes"/>
      <point x="611" y="270.166"/>
      <point x="540.053" y="324.122"/>
      <point x="461.06" y="326.773" type="curve"/>
      <point x="517.095" y="326.214"/>
      <point x="570.996" y="366.185"/>
      <point x="570.996" y="450.827" type="curve" smooth="yes"/>
      <point x="570.996" y="571.342"/>
      <point x="460.439" y="600.069"/>
      <point x="333.554" y="600.069" type="curve" smooth="yes"/>
    </contour>
    <contour>
      <point x="278.343" y="555.084" type="line"/>
      <point x="280.82" y="555.084" type="line" smooth="yes"/>
      <point x="328.654" y="555.084"/>
      <point x="370.09" y="528.224"/>
      <point x="370.09" y="435.055" type="curve" smooth="yes"/>
      <point x="370.09" y="370.337"/>
      <point x="359.029" y="324.647"/>
      <point x="306.127" y="324.647" type="curve"/>
      <point x="306.115" y="316.661" type="line"/>
      <point x="371.819" y="317.71"/>
      <point x="390.107" y="261.844"/>
      <point x="390.107" y="187.37" type="curve" smooth="yes"/>
      <point x="390.107" y="84.0889"/>
      <point x="337.828" y="48.113"/>
      <point x="278.343" y="46.1263" type="curve"/>
    </contour>
  </outline>
</glyph>
<glyph name="d" format="1">
  <advance width="741"/>
  <unicode hex="0064"/>
  <outline>
    <contour>
      <point x="18.0116" y="600.071" type="line"/>
      <point x="18.0174" y="590.066" type="line"/>
      <point x="29.844" y="590.066" type="line" smooth="yes"/>
      <point x="60.5833" y="590.066"/>
      <point x="85.0427" y="568.429"/>
      <point x="86.7201" y="538.921" type="curve"/>
      <point x="86.7201" y="64.239" type="line" smooth="yes"/>
      <point x="86.6298" y="34.0289"/>
      <point x="60.9377" y="9.9994"/>
      <point x="30.8613" y="9.9994" type="curve" smooth="yes"/>
      <point x="19.0049" y="9.9994" type="line"/>
      <point x="19" y="0" type="line"/>
      <point x="359.29" y="0" type="line" smooth="yes"/>
      <point x="585.105" y="0"/>
      <point x="717" y="109.651"/>
      <point x="717" y="299.516" type="curve" smooth="yes"/>
      <point x="717" y="489.355"/>
      <point x="585.105" y="600.071"/>
      <point x="359.29" y="600.071" type="curve" smooth="yes"/>
    </contour>
    <contour>
      <point x="282.767" y="554.704" type="line"/>
      <point x="339.462" y="554.704" type="line" smooth="yes"/>
      <point x="447.103" y="554.704"/>
      <point x="512.399" y="460.449"/>
      <point x="512.399" y="299.516" type="curve" smooth="yes"/>
      <point x="512.399" y="139.619"/>
      <point x="446.059" y="46.4185"/>
      <point x="339.462" y="46.4185" type="curve" smooth="yes"/>
      <point x="282.767" y="46.4179" type="line"/>
    </contour>
    <contour>
      <point x="312.5" y="325.733" type="move" name="center"/>
    </contour>
    <contour>
      <point x="359.29" y="664.942" type="move" name="top"/>
    </contour>
  </outline>
</glyph>
<glyph name="f" format="1">
  <advance width="542"/>
  <unicode hex="0066"/>
  <outline>
    <contour>
      <point x="21.0305" y="599.935" type="line"/>
      <point x="21.0165" y="589.935" type="line"/>
      <point x="31.8538" y="589.935" type="line" smooth="yes"/>
      <point x="59.6143" y="589.935"/>
      <point x="83.6805" y="567.706"/>
      <point x="83.6318" y="537.442" type="curve" smooth="yes"/>
      <point x="83.6318" y="62.398" type="line" smooth="yes"/>
      <point x="83.6788" y="32.1337"/>
      <point x="59.6125" y="10"/>
      <point x="31.8521" y="10" type="curve" smooth="yes"/>
      <point x="21.0148" y="10" type="line"/>
      <point x="21.0287" y="0" type="line"/>
      <point x="343.49" y="0" type="line"/>
      <point x="343.504" y="10" type="line"/>
      <point x="332.667" y="10" type="line" smooth="yes"/>
      <point x="303.824" y="10"/>
      <point x="280.844" y="32.1299"/>
      <point x="279.804" y="62.3902" type="curve"/>
      <point x="279.804" y="272.431" type="line"/>
      <point x="356.438" y="272.431" type="line" smooth="yes"/>
      <point x="415.909" y="271.376"/>
      <point x="455.974" y="228.468"/>
      <point x="455.974" y="169.688" type="curve" smooth="yes"/>
      <point x="455.975" y="166.266" type="line"/>
      <point x="465.974" y="166.266" type="line"/>
      <point x="465.974" y="423.964" type="line"/>
      <point x="455.975" y="423.964" type="line"/>
      <point x="455.974" y="421.613" type="line" smooth="yes"/>
      <point x="455.974" y="362.832"/>
      <point x="415.909" y="319.924"/>
      <point x="356.438" y="318.876" type="curve" smooth="yes"/>
      <point x="279.804" y="318.876" type="line"/>
      <point x="279.804" y="553.532" type="line"/>
      <point x="380.639" y="553.532" type="line" smooth="yes"/>
      <point x="458.298" y="552.49"/>
      <point x="499.999" y="506.622"/>
      <point x="499.999" y="429.846" type="curve" smooth="yes"/>
      <point x="500.002" y="424.444" type="line"/>
      <point x="509.999" y="424.454" type="line"/>
      <point x="509.999" y="615.021" type="line"/>
      <point x="495.142" y="609.029"/>
      <point x="446.44" y="599.936"/>
      <point x="410.625" y="599.936" type="curve" smooth="yes"/>
    </contour>
  </outline>
</glyph>
<glyph name="h" format="1">
  <advance width="754"/>
  <unicode hex="0068"/>
  <outline>
    <contour>
      <point x="670.057" y="568.932"/>
      <point x="694.54" y="590.07"/>
      <point x="722.962" y="590.07" type="curve" smooth="yes"/>
      <point x="733.986" y="590.071" type="line"/>
      <point x="733.986" y="600.07" type="line"/>
      <point x="411.591" y="600.07" type="line"/>
      <point x="411.591" y="590.071" type="line"/>
      <point x="422.079" y="590.07" type="line" smooth="yes"/>
      <point x="451.021" y="590.07"/>
      <point x="473.931" y="567.942"/>
      <point x="474.98" y="537.684" type="curve" smooth="yes"/>
      <point x="474.98" y="323.533" type="line"/>
      <point x="280.017" y="323.533" type="line"/>
      <point x="280.017" y="537.657" type="line" smooth="yes"/>
      <point x="281.058" y="567.929"/>
      <point x="303.974" y="590.07"/>
      <point x="332.923" y="590.07" type="curve" smooth="yes"/>
      <point x="343.401" y="590.071" type="line"/>
      <point x="343.401" y="600.07" type="line"/>
      <point x="21.0173" y="600.07" type="line"/>
      <point x="21.0173" y="590.071" type="line"/>
      <point x="32.0416" y="590.07" type="line" smooth="yes"/>
      <point x="59.7156" y="590.07"/>
      <point x="83.5737" y="568.235"/>
      <point x="83.8582" y="538.285" type="curve" smooth="yes"/>
      <point x="83.8582" y="62.412" type="line" smooth="yes"/>
      <point x="83.9034" y="32.141"/>
      <point x="59.9054" y="9.99959"/>
      <point x="32.0385" y="9.99959" type="curve" smooth="yes"/>
      <point x="21.0141" y="9.99959" type="line"/>
      <point x="21.0141" y="0" type="line"/>
      <point x="343.409" y="0" type="line"/>
      <point x="343.409" y="9.99959" type="line"/>
      <point x="332.921" y="9.99959" type="line" smooth="yes"/>
      <point x="303.971" y="9.99959"/>
      <point x="281.056" y="32.141"/>
      <point x="280.019" y="62.412" type="curve"/>
      <point x="280.019" y="278.162" type="line"/>
      <point x="474.98" y="278.162" type="line"/>
      <point x="474.98" y="62.412" type="line" smooth="yes"/>
      <point x="473.942" y="32.141"/>
      <point x="451.026" y="9.99959"/>
      <point x="422.077" y="9.99959" type="curve" smooth="yes"/>
      <point x="411.588" y="9.99959" type="line"/>
      <point x="411.588" y="0" type="line"/>
      <point x="732.898" y="0" type="line"/>
      <point x="732.898" y="9.99959" type="line"/>
      <point x="721.874" y="9.99959" type="line" smooth="yes"/>
      <point x="693.102" y="9.99959"/>
      <point x="670.291" y="31.8698"/>
      <point x="670.057" y="61.855" type="curve"/>
      <point x="670.057" y="537.657" type="line" smooth="yes"/>
    </contour>
    <contour>
      <point x="295.75" y="240.765" type="move" name="center"/>
    </contour>
    <contour>
      <point x="295.25" y="466.992" type="move" name="top"/>
    </contour>
  </outline>
</glyph>
<glyph name="i" format="1">
  <advance width="363"/>
  <unicode hex="0069"/>
  <outline>
    <contour>
      <point x="279.057" y="537.657" type="line"/>
      <point x="280.093" y="567.929"/>
      <point x="302.638" y="590.07"/>
      <point x="331.136" y="590.07" type="curve" smooth="yes"/>
      <point x="341.449" y="590.071" type="line"/>
      <point x="341.449" y="600.07" type="line"/>
      <point x="21.0336" y="600.07" type="line"/>
      <point x="21.0192" y="590.071" type="line"/>
      <point x="31.8848" y="590.07" type="line" smooth="yes"/>
      <point x="59.0662" y="590.07"/>
      <point x="82.5373" y="568.293"/>
      <point x="82.866" y="538.405" type="curve" smooth="yes"/>
      <point x="82.866" y="62.045" type="line" smooth="yes"/>
      <point x="82.7336" y="31.9622"/>
      <point x="59.1786" y="9.9996"/>
      <point x="31.8819" y="9.9996" type="curve" smooth="yes"/>
      <point x="21.0163" y="9.9996" type="line"/>
      <point x="21.0307" y="0" type="line"/>
      <point x="341.984" y="0" type="line"/>
      <point x="341.998" y="9.9996" type="line"/>
      <point x="331.133" y="9.9996" type="line" smooth="yes"/>
      <point x="302.634" y="9.9996"/>
      <point x="280.089" y="32.141"/>
      <point x="279.057" y="62.412" type="curve" smooth="yes"/>
    </contour>
  </outline>
</glyph>
<glyph name="j" format="1">
  <advance width="361"/>
  <unicode hex="006A"/>
  <outline>
    <contour>
      <point x="15.4482" y="600.089" type="line"/>
      <point x="15.5841" y="589.998" type="line"/>
      <point x="26.2463" y="590.019" type="line" smooth="yes"/>
      <point x="55.7487" y="590.019"/>
      <point x="79.6847" y="565.615"/>
      <point x="80.2361" y="535.312" type="curve" smooth="yes"/>
      <point x="80.294" y="53.9201" type="line" smooth="yes"/>
      <point x="80.2951" y="-31"/>
      <point x="72.3701" y="-122"/>
      <point x="-13" y="-163" type="curve"/>
      <point x="-13" y="-172" type="line"/>
      <point x="131.104" y="-192"/>
      <point x="276.484" y="-105"/>
      <point x="276.484" y="50.685" type="curve" smooth="yes"/>
      <point x="276.484" y="537.014" type="line"/>
      <point x="277.891" y="566.515"/>
      <point x="301.475" y="590"/>
      <point x="330.416" y="590" type="curve" smooth="yes"/>
      <point x="341.078" y="589.979" type="line"/>
      <point x="341.214" y="600.07" type="line"/>
    </contour>
  </outline>
</glyph>
<glyph name="k" format="1">
  <advance width="705"/>
  <unicode hex="006B"/>
  <outline>
    <contour>
      <point x="281.593" y="538.29" type="line"/>
      <point x="282.203" y="568.181"/>
      <point x="306.068" y="590.585"/>
      <point x="335.111" y="590.585" type="curve" smooth="yes"/>
      <point x="345.332" y="590.688" type="line"/>
      <point x="345.467" y="600.585" type="line"/>
      <point x="22.0238" y="600.585" type="line"/>
      <point x="22.1583" y="590.688" type="line"/>
      <point x="32.7304" y="590.585" type="line" smooth="yes"/>
      <point x="61.4292" y="590.585"/>
      <point x="85.01" y="568.442"/>
      <point x="85.8911" y="538.813" type="curve" smooth="yes"/>
      <point x="85.8911" y="62.4374" type="line" smooth="yes"/>
      <point x="85.3372" y="32.475"/>
      <point x="61.8163" y="10"/>
      <point x="32.7259" y="10" type="curve" smooth="yes"/>
      <point x="22.9935" y="10" type="line"/>
      <point x="22.9935" y="0" type="line"/>
      <point x="344.591" y="0" type="line"/>
      <point x="344.591" y="10" type="line"/>
      <point x="335.107" y="10" type="line" smooth="yes"/>
      <point x="305.993" y="10"/>
      <point x="282.138" y="32.475"/>
      <point x="281.593" y="62.4374" type="curve" smooth="yes"/>
    </contour>
    <contour>
      <point x="458.076" y="387.094" type="line"/>
      <point x="592.063" y="555.154" type="line"/>
      <point x="613.495" y="577.538"/>
      <point x="644.789" y="591.653"/>
      <point x="679.073" y="591.746" type="curve" smooth="yes"/>
      <point x="682.713" y="591.746" type="line"/>
      <point x="682.713" y="600.514" type="line"/>
      <point x="478.593" y="600.514" type="line"/>
      <point x="478.593" y="591.957" type="line"/>
      <point x="486.624" y="591.965" type="line" smooth="yes"/>
      <point x="510.035" y="591.965"/>
      <point x="520.148" y="571.507"/>
      <point x="506.4" y="551.968" type="curve" smooth="yes"/>
      <point x="307.093" y="268.516" type="line"/>
      <point x="307.093" y="266.319"/>
      <point x="372.632" y="133.219"/>
      <point x="404" y="90" type="curve" smooth="yes"/>
      <point x="474.459" y="-7"/>
      <point x="612.284" y="0.127516"/>
      <point x="635.203" y="0.109616" type="curve" smooth="yes"/>
      <point x="737.68" y="0.109616" type="line"/>
      <point x="737.68" y="8.42832" type="line"/>
      <point x="705.156" y="9.29372"/>
      <point x="674.755" y="33.0274"/>
      <point x="646.78" y="77.6293" type="curve" smooth="yes"/>
    </contour>
    <contour>
      <point x="386.469" y="-64.5642" type="move" name="bottom"/>
    </contour>
  </outline>
</glyph>
<glyph name="l" format="1">
  <advance width="557"/>
  <unicode hex="006C"/>
  <outline>
    <contour>
      <point x="561.546" y="210.053" type="line"/>
      <point x="551.546" y="210.053" type="line"/>
      <point x="526.711" y="105.683"/>
      <point x="453.165" y="46.4103"/>
      <point x="376.386" y="46.4103" type="curve" smooth="yes"/>
      <point x="279.853" y="46.4103" type="line"/>
      <point x="279.853" y="537.657" type="line" smooth="yes"/>
      <point x="280.889" y="567.929"/>
      <point x="303.738" y="590.07"/>
      <point x="332.606" y="590.07" type="curve" smooth="yes"/>
      <point x="343.602" y="590.071" type="line"/>
      <point x="343.59" y="600.07" type="line"/>
      <point x="21.0336" y="600.07" type="line"/>
      <point x="21.0218" y="590.071" type="line"/>
      <point x="32.0177" y="590.07" type="line" smooth="yes"/>
      <point x="59.6105" y="590.07"/>
      <point x="83.4044" y="568.233"/>
      <point x="83.684" y="538.281" type="curve" smooth="yes"/>
      <point x="83.684" y="62.4119" type="line" smooth="yes"/>
      <point x="83.7296" y="32.1409"/>
      <point x="59.6466" y="9.9995"/>
      <point x="31.8624" y="9.9995" type="curve" smooth="yes"/>
      <point x="21.0148" y="9.9995" type="line"/>
      <point x="21.0285" y="0" type="line"/>
      <point x="530.832" y="0" type="line"/>
      <point x="532.753" y="0" type="line"/>
    </contour>
    <contour>
      <point x="185.538" y="664" type="move" name="top"/>
    </contour>
    <contour>
      <point x="276.539" y="-64.5649" type="move" name="bottom"/>
    </contour>
    <contour>
      <point x="454.431" y="500" type="move" name="topright"/>
    </contour>
  </outline>
</glyph>
<glyph name="m" format="1">
  <advance width="854"/>
  <unicode hex="006D"/>
  <outline>
    <contour>
      <point x="872.997" y="9.9997" type="line"/>
      <point x="859.464" y="9.9997" type="line" smooth="yes"/>
      <point x="830.797" y="9.9997"/>
      <point x="805.903" y="26.2762"/>
      <point x="798.091" y="57.1885" type="curve"/>
      <point x="717.751" y="611.951" type="line"/>
      <point x="709.428" y="611.951" type="line"/>
      <point x="442.421" y="236.873" type="line"/>
      <point x="143.487" y="611.93" type="line"/>
      <point x="136.229" y="611.93" type="line"/>
      <point x="58.4816" y="62.2259" type="line" smooth="yes"/>
      <point x="53.2592" y="28.0466"/>
      <point x="26.1951" y="10"/>
      <point x="-6" y="10" type="curve" smooth="yes"/>
      <point x="-19" y="10" type="line"/>
      <point x="-19" y="0" type="line"/>
      <point x="174.993" y="0" type="line"/>
      <point x="174.993" y="10" type="line"/>
      <point x="161.455" y="10" type="line" smooth="yes"/>
      <point x="135.43" y="10"/>
      <point x="127.238" y="37.0511"/>
      <point x="128.121" y="47.977" type="curve"/>
      <point x="155.302" y="258.142" type="line"/>
      <point x="379.995" y="-22" type="line"/>
      <point x="388.314" y="-22" type="line"/>
      <point x="385.022" y="25.0568"/>
      <point x="424.826" y="79.0709"/>
      <point x="424.826" y="79.0709" type="curve"/>
      <point x="563.242" y="271.52" type="line"/>
      <point x="596.109" y="47.509" type="line"/>
      <point x="597.162" y="35.4"/>
      <point x="590.316" y="9.99541"/>
      <point x="562.726" y="9.99981" type="curve" smooth="yes"/>
      <point x="549.187" y="9.99981" type="line"/>
      <point x="549.187" y="0" type="line"/>
      <point x="872.997" y="0" type="line"/>
    </contour>
  </outline>
</glyph>
<glyph name="n" format="1">
  <advance width="779"/>
  <unicode hex="006E"/>
  <outline>
    <contour>
      <point x="428.092" y="599.952" type="line"/>
      <point x="428.097" y="589.955" type="line"/>
      <point x="445.245" y="589.952" type="line" smooth="yes"/>
      <point x="475.288" y="589.952"/>
      <point x="498.915" y="568.835"/>
      <point x="498.93" y="539.572" type="curve" smooth="yes"/>
      <point x="499.091" y="259.358" type="line"/>
      <point x="79.7201" y="612.933" type="line"/>
      <point x="71.0958" y="612.93" type="line" smooth="yes"/>
      <point x="71.0958" y="612.93"/>
      <point x="82.8377" y="574.811"/>
      <point x="82.8377" y="507.303" type="curve" smooth="yes"/>
      <point x="82.8377" y="60.379" type="line" smooth="yes"/>
      <point x="82.8227" y="31.1166"/>
      <point x="58.1518" y="9.99977"/>
      <point x="28.1078" y="9.99977" type="curve" smooth="yes"/>
      <point x="12.0036" y="9.99977" type="line"/>
      <point x="11.9999" y="0" type="line"/>
      <point x="350.386" y="0" type="line"/>
      <point x="350.386" y="9.99977" type="line"/>
      <point x="333.759" y="9.99977" type="line" smooth="yes"/>
      <point x="303.716" y="9.99977"/>
      <point x="280.089" y="31.1166"/>
      <point x="279.03" y="60.379" type="curve"/>
      <point x="279.03" y="340.852" type="line"/>
      <point x="699.298" y="-12" type="line"/>
      <point x="707.905" y="-12" type="line"/>
      <point x="707.905" y="-12"/>
      <point x="696.165" y="23.5419"/>
      <point x="696.165" y="96.7101" type="curve" smooth="yes"/>
      <point x="696.165" y="540.549" type="line" smooth="yes"/>
      <point x="696.165" y="569.304"/>
      <point x="721.142" y="589.952"/>
      <point x="750.85" y="589.952" type="curve" smooth="yes"/>
      <point x="768" y="589.955" type="line"/>
      <point x="768.003" y="599.952" type="line"/>
    </contour>
    <contour>
      <point x="362.16" y="664" type="move" name="top"/>
    </contour>
    <contour>
      <point x="460.174" y="-64.5457" type="move" name="bottom"/>
    </contour>
  </outline>
</glyph>
<glyph name="p" format="1">
  <advance width="607"/>
  <unicode hex="0070"/>
  <outline>
    <contour>
      <point x="20.9472" y="600.07" type="line"/>
      <point x="20.9296" y="590.07" type="line"/>
      <point x="31.5659" y="590.07" type="line" smooth="yes"/>
      <point x="59.4413" y="590.07"/>
      <point x="82.7454" y="568.629"/>
      <point x="83.607" y="539.194" type="curve" smooth="yes"/>
      <point x="83.607" y="62.4119" type="line" smooth="yes"/>
      <point x="83.666" y="32.1409"/>
      <point x="61.0187" y="9.91912"/>
      <point x="32.631" y="9.91912" type="curve" smooth="yes"/>
      <point x="21.9946" y="9.91912" type="line"/>
      <point x="22.0121" y="0" type="line"/>
      <point x="342.494" y="0" type="line"/>
      <point x="342.512" y="9.99952" type="line"/>
      <point x="332" y="9.99952" type="line" smooth="yes"/>
      <point x="301.453" y="9.99952"/>
      <point x="280.841" y="32.1409"/>
      <point x="279.81" y="62.4119" type="curve"/>
      <point x="279.81" y="554.699" type="line"/>
      <point x="292.232" y="554.699" type="line" smooth="yes"/>
      <point x="350.233" y="554.699"/>
      <point x="384.376" y="510.683"/>
      <point x="388" y="443" type="curve" smooth="yes"/>
      <point x="388.746" y="429.076"/>
      <point x="386.649" y="409.484"/>
      <point x="383" y="391" type="curve" smooth="yes"/>
      <point x="365.285" y="298.525"/>
      <point x="307.096" y="289.83"/>
      <point x="307.096" y="289.83" type="curve"/>
      <point x="307.096" y="281.857" type="line"/>
      <point x="435.42" y="179.679"/>
      <point x="602.801" y="274.933"/>
      <point x="592" y="438" type="curve" smooth="yes"/>
      <point x="586.416" y="522.305"/>
      <point x="531.053" y="600.07"/>
      <point x="357.379" y="600.07" type="curve" smooth="yes"/>
    </contour>
  </outline>
</glyph>
<glyph name="q" format="1">
  <advance width="760"/>
  <unicode hex="0071"/>
  <outline>
    <contour>
      <point x="1137.94" y="-51" type="line"/>
      <point x="1056.97" y="-108"/>
      <point x="949.295" y="-121"/>
      <point x="774" y="-56" type="curve" smooth="yes"/>
      <point x="664.473" y="-16"/>
      <point x="621.048" y="0.542202"/>
      <point x="539.252" y="12.3789" type="curve"/>
      <point x="663.951" y="55.727"/>
      <point x="733.835" y="155.399"/>
      <point x="733.835" y="299.442" type="curve" smooth="yes"/>
      <point x="733.835" y="497.898"/>
      <point x="602.62" y="611.93"/>
      <point x="378.959" y="611.93" type="curve" smooth="yes"/>
      <point x="156.376" y="611.93"/>
      <point x="25.161" y="497.898"/>
      <point x="25.161" y="299.442" type="curve" smooth="yes"/>
      <point x="25.161" y="102.359"/>
      <point x="155.985" y="-12"/>
      <point x="377.964" y="-12" type="curve" smooth="yes"/>
      <point x="380.558" y="-12" type="line" smooth="yes"/>
      <point x="477.613" y="-13"/>
      <point x="534.963" y="-114"/>
      <point x="677" y="-196" type="curve" smooth="yes"/>
      <point x="935.069" y="-346"/>
      <point x="1148.84" y="-264"/>
      <point x="1144.18" y="-54" type="curve"/>
    </contour>
    <contour>
      <point x="230.339" y="468.866"/>
      <point x="279.809" y="566.558"/>
      <point x="378.959" y="566.558" type="curve" smooth="yes"/>
      <point x="479.188" y="566.558"/>
      <point x="528.657" y="468.866"/>
      <point x="528.657" y="299.442" type="curve" smooth="yes"/>
      <point x="528.657" y="131.096"/>
      <point x="479.188" y="33.4038"/>
      <point x="378.959" y="33.4038" type="curve" smooth="yes"/>
      <point x="279.809" y="33.4038"/>
      <point x="230.339" y="131.096"/>
      <point x="230.339" y="299.442" type="curve" smooth="yes"/>
    </contour>
  </outline>
</glyph>
<glyph name="r" format="1">
  <advance width="678"/>
  <unicode hex="0072"/>
  <outline>
    <contour>
      <point x="32.0178" y="600.07" type="line"/>
      <point x="32" y="590" type="line"/>
      <point x="44" y="590" type="line" smooth="yes"/>
      <point x="71" y="590"/>
      <point x="94" y="568"/>
      <point x="93.9193" y="537.562" type="curve" smooth="yes"/>
      <point x="93.9193" y="62.412" type="line" smooth="yes"/>
      <point x="94" y="31.9996"/>
      <point x="70" y="9.99961"/>
      <point x="43" y="9.99961" type="curve" smooth="yes"/>
      <point x="31.9994" y="9.99961" type="line"/>
      <point x="32.0158" y="0" type="line"/>
      <point x="353.133" y="0" type="line"/>
      <point x="353.15" y="9.99961" type="line"/>
      <point x="344" y="9.99961" type="line" smooth="yes"/>
      <point x="321.169" y="9.99961"/>
      <point x="291.441" y="26.7507"/>
      <point x="291.232" y="61.6342" type="curve"/>
      <point x="291.232" y="552" type="line"/>
      <point x="311" y="552" type="line" smooth="yes"/>
      <point x="316" y="552"/>
      <point x="394" y="557"/>
      <point x="400" y="443" type="curve" smooth="yes"/>
      <point x="401" y="425"/>
      <point x="399" y="415"/>
      <point x="399" y="411" type="curve"/>
      <point x="390" y="327"/>
      <point x="355.45" y="301.917"/>
      <point x="323" y="301.917" type="curve" smooth="yes"/>
      <point x="317.931" y="301.917" type="line"/>
      <point x="317.931" y="294.374" type="line"/>
      <point x="322.681" y="291.917"/>
      <point x="341" y="284"/>
      <point x="351" y="237" type="curve" smooth="yes"/>
      <point x="361" y="188"/>
      <point x="369" y="151"/>
      <point x="398" y="101" type="curve" smooth="yes"/>
      <point x="456" y="2"/>
      <point x="512" y="0"/>
      <point x="619.303" y="0" type="curve" smooth="yes"/>
      <point x="737" y="0" type="line"/>
      <point x="737" y="10.0107" type="line"/>
      <point x="705" y="10"/>
      <point x="686" y="15"/>
      <point x="648" y="73" type="curve" smooth="yes"/>
      <point x="617" y="120"/>
      <point x="599" y="161"/>
      <point x="585" y="186" type="curve" smooth="yes"/>
      <point x="568" y="217"/>
      <point x="527" y="262"/>
      <point x="475.885" y="275.458" type="curve"/>
      <point x="580" y="293"/>
      <point x="604" y="374"/>
      <point x="604" y="435" type="curve" smooth="yes"/>
      <point x="604" y="575"/>
      <point x="477" y="600"/>
      <point x="376.008" y="600.07" type="curve" smooth="yes"/>
    </contour>
    <contour>
      <point x="334.667" y="664.292" type="move" name="top"/>
    </contour>
    <contour>
      <point x="421.117" y="-64.5649" type="move" name="bottom"/>
    </contour>
  </outline>
</glyph>
<glyph name="t" format="1">
  <advance width="613"/>
  <unicode hex="0074"/>
  <outline>
    <contour>
      <point x="106.952" y="600.935" type="line" smooth="yes"/>
      <point x="71.0828" y="601.086"/>
      <point x="22.869" y="610.077"/>
      <point x="7" y="616.018" type="curve"/>
      <point x="7" y="427.57" type="line"/>
      <point x="16.9981" y="427.561" type="line"/>
      <point x="17" y="432.962" type="line" smooth="yes"/>
      <point x="17" y="508.659"/>
      <point x="58.7687" y="553.449"/>
      <point x="135.369" y="554.49" type="curve" smooth="yes"/>
      <point x="208.465" y="554.49" type="line"/>
      <point x="208.465" y="62.397" type="line" smooth="yes"/>
      <point x="207.428" y="32.1332"/>
      <point x="184.503" y="10"/>
      <point x="155.54" y="10" type="curve" smooth="yes"/>
      <point x="145.594" y="10" type="line"/>
      <point x="145.605" y="0" type="line"/>
      <point x="467.39" y="0" type="line"/>
      <point x="467.401" y="10" type="line"/>
      <point x="457.454" y="10" type="line" smooth="yes"/>
      <point x="428.492" y="10"/>
      <point x="404.484" y="32.1332"/>
      <point x="404.529" y="62.397" type="curve" smooth="yes"/>
      <point x="404.529" y="554.491" type="line"/>
      <point x="477.631" y="554.491" type="line" smooth="yes"/>
      <point x="554.231" y="553.449"/>
      <point x="596.677" y="508.659"/>
      <point x="596" y="432.962" type="curve" smooth="yes"/>
      <point x="596.002" y="427.561" type="line"/>
      <point x="606" y="427.57" type="line"/>
      <point x="606" y="616.018" type="line"/>
      <point x="596.085" y="610.077"/>
      <point x="542.018" y="601.087"/>
      <point x="506.05" y="600.935" type="curve" smooth="yes"/>
    </contour>
    <contour>
      <point x="310.564" y="323.356" type="move" name="center"/>
    </contour>
    <contour>
      <point x="310.436" y="1" type="move" name="bottom"/>
    </contour>
  </outline>
</glyph>
<glyph name="u" format="1">
  <advance width="708"/>
  <unicode hex="0075"/>
  <outline>
    <contour>
      <point x="504.058" y="600.07" type="line"/>
      <point x="504.058" y="592.136" type="line"/>
      <point x="517.045" y="592.135" type="line" smooth="yes"/>
      <point x="541.099" y="592.135"/>
      <point x="560.105" y="574.007"/>
      <point x="561.15" y="548.765" type="curve"/>
      <point x="561.15" y="211.818" type="line" smooth="yes"/>
      <point x="560.093" y="100.631"/>
      <point x="508.328" y="35.754"/>
      <point x="417.892" y="35.754" type="curve" smooth="yes"/>
      <point x="325.591" y="35.754"/>
      <point x="272.261" y="104.652"/>
      <point x="272.261" y="222.911" type="curve" smooth="yes"/>
      <point x="272.261" y="549.491" type="line" smooth="yes"/>
      <point x="272.584" y="574.354"/>
      <point x="291.455" y="592.135"/>
      <point x="315.278" y="592.135" type="curve" smooth="yes"/>
      <point x="329.346" y="592.136" type="line"/>
      <point x="329.346" y="600.07" type="line"/>
      <point x="19.0095" y="600.07" type="line"/>
      <point x="19.0095" y="592.136" type="line"/>
      <point x="31.9967" y="592.135" type="line" smooth="yes"/>
      <point x="55.9862" y="592.135"/>
      <point x="76.0286" y="574.103"/>
      <point x="76.1008" y="548.967" type="curve" smooth="yes"/>
      <point x="76.1008" y="220.554" type="line" smooth="yes"/>
      <point x="76.1083" y="74.8789"/>
      <point x="169.745" y="-12"/>
      <point x="386.555" y="-12" type="curve" smooth="yes"/>
      <point x="550.522" y="-12"/>
      <point x="639.898" y="75.9176"/>
      <point x="639.897" y="222.606" type="curve"/>
      <point x="639.897" y="548.765" type="line"/>
      <point x="639.862" y="574.007"/>
      <point x="659.949" y="592.135"/>
      <point x="684.003" y="592.135" type="curve" smooth="yes"/>
      <point x="696.99" y="592.136" type="line"/>
      <point x="696.99" y="600.07" type="line"/>
    </contour>
    <contour>
      <point x="386.555" y="-3.83333" type="move" name="ogonek"/>
    </contour>
    <contour>
      <point x="397.682" y="664" type="move" name="top"/>
    </contour>
  </outline>
</glyph>
<glyph name="v" format="1">
  <advance width="620"/>
  <unicode hex="0076"/>
  <outline>
    <contour>
      <point x="457.938" y="600.07" type="line"/>
      <point x="457.938" y="591.261" type="line"/>
      <point x="466.407" y="591.261" type="line" smooth="yes"/>
      <point x="488.652" y="591.261"/>
      <point x="514.126" y="572.138"/>
      <point x="499.245" y="538.246" type="curve" smooth="yes"/>
      <point x="382.797" y="280.783" type="line"/>
      <point x="267.127" y="538.246" type="line"/>
      <point x="253.591" y="572.138"/>
      <point x="278.954" y="591.261"/>
      <point x="301.199" y="591.261" type="curve" smooth="yes"/>
      <point x="308.616" y="591.261" type="line"/>
      <point x="308.616" y="600.07" type="line"/>
      <point x="-42" y="600.07" type="line"/>
      <point x="-42" y="590.07" type="line"/>
      <point x="-35" y="590.07" type="line" smooth="yes"/>
      <point x="-10" y="590.07"/>
      <point x="19.1052" y="577.713"/>
      <point x="38.283" y="544.565" type="curve"/>
      <point x="318.905" y="-12" type="line"/>
      <point x="327.384" y="-12" type="line"/>
      <point x="330.553" y="18.5685"/>
      <point x="367.615" y="97.3589"/>
      <point x="379.18" y="122.162" type="curve" smooth="yes"/>
      <point x="580.572" y="543.749" type="line"/>
      <point x="599.085" y="577.511"/>
      <point x="629.932" y="590.07"/>
      <point x="655.097" y="590.07" type="curve" smooth="yes"/>
      <point x="662.514" y="590.07" type="line"/>
      <point x="662.514" y="600.07" type="line"/>
    </contour>
  </outline>
</glyph>
<glyph name="w" format="1">
  <advance width="851"/>
  <unicode hex="0077"/>
  <outline>
    <contour>
      <point x="691.752" y="599.952" type="line"/>
      <point x="691.752" y="589.952" type="line"/>
      <point x="699.056" y="589.952" type="line" smooth="yes"/>
      <point x="723.115" y="589.952"/>
      <point x="740.802" y="572.746"/>
      <point x="732.525" y="539.07" type="curve"/>
      <point x="671.036" y="325.298" type="line"/>
      <point x="499.348" y="612.908" type="line"/>
      <point x="492.069" y="612.885" type="line"/>
      <point x="346.597" y="334.587" type="line"/>
      <point x="255.095" y="543.002" type="line"/>
      <point x="245.711" y="573.43"/>
      <point x="267.427" y="589.952"/>
      <point x="288.233" y="589.952" type="curve" smooth="yes"/>
      <point x="296.597" y="589.952" type="line"/>
      <point x="296.597" y="599.952" type="line"/>
      <point x="-32" y="599.952" type="line"/>
      <point x="-32" y="589.958" type="line"/>
      <point x="-25" y="589.958" type="line" smooth="yes"/>
      <point x="0.166601" y="589.958"/>
      <point x="32.075" y="577.557"/>
      <point x="48.4753" y="542.429" type="curve"/>
      <point x="263.56" y="-10" type="line"/>
      <point x="271.897" y="-10" type="line"/>
      <point x="271.872" y="37.3193"/>
      <point x="295.952" y="83.6935"/>
      <point x="295.952" y="83.6935" type="curve"/>
      <point x="430.323" y="337.631" type="line"/>
      <point x="635.732" y="-10" type="line"/>
      <point x="644.068" y="-10" type="line"/>
      <point x="640.028" y="38.061"/>
      <point x="656.597" y="87.4375"/>
      <point x="656.597" y="87.4375" type="curve"/>
      <point x="803.88" y="548.561" type="line"/>
      <point x="819.31" y="579.013"/>
      <point x="852.327" y="589.958"/>
      <point x="875.696" y="589.958" type="curve" smooth="yes"/>
      <point x="883" y="589.958" type="line"/>
      <point x="883" y="599.952" type="line"/>
    </contour>
    <contour>
      <point x="487.738" y="664" type="move" name="top"/>
    </contour>
  </outline>
</glyph>
<glyph name="x" format="1">
  <advance width="666"/>
  <unicode hex="0078"/>
  <outline>
    <contour>
      <point x="679.726" y="9.9997" type="line" smooth="yes"/>
      <point x="645.6" y="9.9997"/>
      <point x="614.327" y="30.3614"/>
      <point x="597.955" y="55.0492" type="curve"/>
      <point x="429.591" y="329.707" type="line"/>
      <point x="574.564" y="547.991" type="line"/>
      <point x="592.049" y="572.044"/>
      <point x="622.74" y="591.634"/>
      <point x="655.262" y="591.634" type="curve" smooth="yes"/>
      <point x="667.262" y="591.634" type="line"/>
      <point x="667.262" y="601.634" type="line"/>
      <point x="450.712" y="601.634" type="line"/>
      <point x="450.712" y="591.634" type="line"/>
      <point x="460.712" y="591.634" type="line" smooth="yes"/>
      <point x="483.712" y="591.634"/>
      <point x="503.712" y="565.31"/>
      <point x="488.712" y="541.736" type="curve" smooth="yes"/>
      <point x="392.204" y="390.698" type="line"/>
      <point x="299.622" y="541.73" type="line" smooth="yes"/>
      <point x="285.708" y="565.303"/>
      <point x="305.708" y="591.634"/>
      <point x="328.708" y="591.634" type="curve" smooth="yes"/>
      <point x="338.708" y="591.634" type="line"/>
      <point x="338.708" y="601.634" type="line"/>
      <point x="-16" y="601.634" type="line"/>
      <point x="-16" y="591.634" type="line"/>
      <point x="-5" y="591.634" type="line" smooth="yes"/>
      <point x="27.1133" y="591.634"/>
      <point x="58.4598" y="572.358"/>
      <point x="75.2539" y="548.577" type="curve"/>
      <point x="238.306" y="281.127" type="line"/>
      <point x="67.2047" y="51.7861" type="line"/>
      <point x="47.4404" y="28.5904"/>
      <point x="20.0741" y="10"/>
      <point x="-12" y="10" type="curve" smooth="yes"/>
      <point x="-24" y="10" type="line"/>
      <point x="-24" y="0" type="line"/>
      <point x="196.566" y="0" type="line"/>
      <point x="196.566" y="10" type="line"/>
      <point x="186.566" y="10" type="line" smooth="yes"/>
      <point x="163.566" y="10"/>
      <point x="141.566" y="36.3242"/>
      <point x="158.566" y="59.898" type="curve" smooth="yes"/>
      <point x="274.981" y="220.97" type="line"/>
      <point x="373.175" y="59.9039" type="line" smooth="yes"/>
      <point x="387.111" y="36.331"/>
      <point x="367.111" y="9.99968"/>
      <point x="344.111" y="9.99968" type="curve" smooth="yes"/>
      <point x="334.111" y="9.99968" type="line"/>
      <point x="334.111" y="0" type="line"/>
      <point x="690.726" y="0" type="line"/>
      <point x="690.726" y="9.99968" type="line"/>
    </contour>
  </outline>
</glyph>
<glyph name="y" format="1">
  <advance width="633"/>
  <unicode hex="0079"/>
  <outline>
    <contour>
      <point x="466.496" y="600.07" type="line"/>
      <point x="466.496" y="590.07" type="line"/>
      <point x="476.898" y="590.07" type="line" smooth="yes"/>
      <point x="500.777" y="590.07"/>
      <point x="520.614" y="562.746"/>
      <point x="507.092" y="538.698" type="curve" smooth="yes"/>
      <point x="385.644" y="328.983" type="line"/>
      <point x="261.688" y="538.66" type="line" smooth="yes"/>
      <point x="248.16" y="562.845"/>
      <point x="266.986" y="590.07"/>
      <point x="291.926" y="590.07" type="curve" smooth="yes"/>
      <point x="302.329" y="590.07" type="line"/>
      <point x="302.329" y="600.07" type="line"/>
      <point x="-48" y="600.07" type="line"/>
      <point x="-48" y="590.07" type="line"/>
      <point x="-36" y="590.07" type="line" smooth="yes"/>
      <point x="-1" y="590.07"/>
      <point x="31.8248" y="568.405"/>
      <point x="48.7042" y="543.074" type="curve" smooth="yes"/>
      <point x="221.373" y="277.595" type="line"/>
      <point x="220.648" y="62.2743" type="line" smooth="yes"/>
      <point x="220.582" y="32.0738"/>
      <point x="195.618" y="9.9994"/>
      <point x="166.53" y="9.9994" type="curve" smooth="yes"/>
      <point x="155.067" y="9.9994" type="line"/>
      <point x="155.07" y="0" type="line"/>
      <point x="482.817" y="0" type="line"/>
      <point x="482.817" y="9.9994" type="line"/>
      <point x="471.886" y="9.9994" type="line" smooth="yes"/>
      <point x="441.699" y="9.9994"/>
      <point x="417.767" y="32.1331"/>
      <point x="416.708" y="62.396" type="curve"/>
      <point x="416.708" y="278.768" type="line"/>
      <point x="585.505" y="542.713" type="line"/>
      <point x="603.334" y="568.478"/>
      <point x="635.258" y="590.07"/>
      <point x="671.247" y="590.07" type="curve" smooth="yes"/>
      <point x="683.749" y="590.07" type="line"/>
      <point x="683.749" y="600.07" type="line"/>
    </contour>
    <contour>
      <point x="373.398" y="664" type="move" name="top"/>
    </contour>
  </outline>
</glyph>
<glyph name="z" format="1">
  <advance width="606"/>
  <unicode hex="007A"/>
  <outline>
    <contour>
      <point x="598.312" y="210.067" type="line"/>
      <point x="588.312" y="210.067" type="line"/>
      <point x="559.244" y="105.709"/>
      <point x="484.095" y="45.2975"/>
      <point x="395.44" y="45.3672" type="curve" smooth="yes"/>
      <point x="287.436" y="45.3672" type="line"/>
      <point x="577.208" y="604.948" type="line"/>
      <point x="577.207" y="611.894" type="line"/>
      <point x="566.372" y="606.932"/>
      <point x="517.584" y="600.929"/>
      <point x="481.784" y="600.929" type="curve" smooth="yes"/>
      <point x="144.333" y="600.929" type="line" smooth="yes"/>
      <point x="106.644" y="601.099"/>
      <point x="53.9905" y="609.058"/>
      <point x="38.0098" y="616.031" type="curve"/>
      <point x="38.0098" y="427.579" type="line"/>
      <point x="48.0095" y="427.569" type="line"/>
      <point x="48.0087" y="431.892" type="line"/>
      <point x="48.0087" y="508.669"/>
      <point x="91.1267" y="554.536"/>
      <point x="168.226" y="554.5" type="curve" smooth="yes"/>
      <point x="325.767" y="554.5" type="line"/>
      <point x="25.007" y="7.97895" type="line"/>
      <point x="25" y="0" type="line"/>
      <point x="561.885" y="0" type="line"/>
    </contour>
    <contour>
      <point x="318" y="664" type="move" name="top"/>
    </contour>
  </outline>
</glyph>
<glyph name="cent" format="1">
  <advance width="578"/>
  <unicode hex="00A2"/>
  <outline>
    <contour>
      <point x="534.168" y="304.231" type="line"/>
      <point x="528.056" y="304.234" type="line"/>
      <point x="500.086" y="169.789"/>
      <point x="475.319" y="124.853"/>
      <point x="367.736" y="121.329" type="curve"/>
      <point x="404.701" y="570.91" type="line"/>
      <point x="455.558" y="561.841"/>
      <point x="498.858" y="528.65"/>
      <point x="524.662" y="438.997" type="curve"/>
      <point x="530.774" y="439" type="line"/>
      <point x="541.866" y="586.096" type="line"/>
      <point x="513.4" y="597.604"/>
      <point x="466.371" y="609.766"/>
      <point x="408.3" y="614.678" type="curve"/>
      <point x="415.288" y="699.677" type="line"/>
      <point x="367.765" y="700.726" type="line"/>
      <point x="361.032" y="616.899" type="line"/>
      <point x="248.229" y="618.005"/>
      <point x="15" y="581.913"/>
      <point x="15" y="348" type="curve" smooth="yes"/>
      <point x="15" y="187.937"/>
      <point x="130.246" y="90.8167"/>
      <point x="317.841" y="79.1379" type="curve"/>
      <point x="311.002" y="-6" type="line"/>
      <point x="357.02" y="-9" type="line"/>
      <point x="364.18" y="78.0712" type="line"/>
      <point x="476.105" y="80.5287"/>
      <point x="531.083" y="122.058"/>
      <point x="556.811" y="166.194" type="curve"/>
    </contour>
    <contour>
      <point x="321.55" y="125.318" type="line"/>
      <point x="241.285" y="144.227"/>
      <point x="201.053" y="223.971"/>
      <point x="201.473" y="351.483" type="curve"/>
      <point x="201.016" y="487.397"/>
      <point x="246.844" y="568.564"/>
      <point x="357.547" y="573.497" type="curve"/>
    </contour>
    <contour>
      <point x="407.402" y="-8.83333" type="move" name="bottom"/>
    </contour>
  </outline>
</glyph>
<glyph name="sterling" format="1">
  <advance width="620"/>
  <unicode hex="00A3"/>
  <outline>
    <contour>
      <point x="605.989" y="219.402" type="line"/>
      <point x="545.985" y="98.9999"/>
      <point x="442.985" y="58.9999"/>
      <point x="339.985" y="67.9999" type="curve" smooth="yes"/>
      <point x="277.802" y="73.4337"/>
      <point x="230.856" y="87.7947"/>
      <point x="183.4" y="78.897" type="curve"/>
      <point x="261.061" y="101.635"/>
      <point x="317.187" y="152.022"/>
      <point x="318.516" y="318.751" type="curve"/>
      <point x="476.497" y="318.751" type="line"/>
      <point x="497.757" y="374.613" type="line"/>
      <point x="317.117" y="374.613" type="line"/>
      <point x="307.251" y="549.215"/>
      <point x="316.985" y="660.999"/>
      <point x="424.771" y="663.999" type="curve" smooth="yes"/>
      <point x="500.274" y="666.1"/>
      <point x="528.482" y="617.328"/>
      <point x="533.157" y="515.501" type="curve"/>
      <point x="543.157" y="515.501" type="line"/>
      <point x="590.506" y="656.701" type="line"/>
      <point x="561.985" y="692.999"/>
      <point x="490.985" y="719.999"/>
      <point x="387.985" y="713.999" type="curve" smooth="yes"/>
      <point x="168.917" y="701.113"/>
      <point x="108.759" y="548.826"/>
      <point x="111.888" y="374.613" type="curve"/>
      <point x="47.565" y="374.613" type="line"/>
      <point x="30.304" y="318.751" type="line"/>
      <point x="111.89" y="318.751" type="line"/>
      <point x="106.872" y="145.267"/>
      <point x="54.6555" y="48.4234"/>
      <point x="30" y="0" type="curve"/>
      <point x="30" y="-10" type="line"/>
      <point x="40" y="-10" type="line"/>
      <point x="48.985" y="0"/>
      <point x="112.985" y="22.9986"/>
      <point x="136.985" y="23.9986" type="curve" smooth="yes"/>
      <point x="199.985" y="25.9986"/>
      <point x="248.985" y="3.9986"/>
      <point x="337.985" y="-8" type="curve" smooth="yes"/>
      <point x="390.985" y="-15"/>
      <point x="504.985" y="-6"/>
      <point x="570.557" y="23.9986" type="curve"/>
      <point x="615.989" y="219.402" type="line"/>
    </contour>
  </outline>
</glyph>
<glyph name="currency" format="1">
  <advance width="541"/>
  <unicode hex="00A4"/>
  <outline>
    <contour>
      <point x="491.696" y="153.65" type="line"/>
      <point x="431.427" y="213.918" type="line"/>
      <point x="499.611" y="293.772"/>
      <point x="499.231" y="412.087"/>
      <point x="430.286" y="491.51" type="curve"/>
      <point x="491.695" y="552.92" type="line"/>
      <point x="470.482" y="574.133" type="line"/>
      <point x="409.094" y="512.745" type="line"/>
      <point x="329.668" y="581.982"/>
      <point x="211.132" y="582.46"/>
      <point x="131.167" y="514.179" type="curve"/>
      <point x="71.2131" y="574.133" type="line"/>
      <point x="50" y="552.92" type="line"/>
      <point x="109.761" y="493.159" type="line"/>
      <point x="38.8892" y="413.183"/>
      <point x="38.5042" y="292.673"/>
      <point x="108.606" y="212.256" type="curve"/>
      <point x="50" y="153.65" type="line"/>
      <point x="71.2141" y="132.437" type="line"/>
      <point x="129.841" y="191.064" type="line"/>
      <point x="210.257" y="121.257"/>
      <point x="330.542" y="121.739"/>
      <point x="410.407" y="192.512" type="curve"/>
      <point x="470.482" y="132.437" type="line"/>
    </contour>
    <contour>
      <point x="68.4318" y="294.117"/>
      <point x="68.4318" y="409.984"/>
      <point x="139.898" y="481.451" type="curve" smooth="yes"/>
      <point x="211.365" y="552.918"/>
      <point x="327.233" y="552.918"/>
      <point x="398.7" y="481.451" type="curve" smooth="yes"/>
      <point x="470.166" y="409.984"/>
      <point x="470.166" y="294.117"/>
      <point x="398.699" y="222.65" type="curve" smooth="yes"/>
      <point x="327.233" y="151.183"/>
      <point x="211.365" y="151.183"/>
      <point x="139.899" y="222.65" type="curve" smooth="yes"/>
    </contour>
  </outline>
</glyph>
<glyph name="ordfeminine" format="1">
  <advance width="390"/>
  <unicode hex="00AA"/>
  <outline>
    <contour>
      <point x="390.883" y="381.379" type="line" smooth="yes"/>
      <point x="377.219" y="381.379"/>
      <point x="361.94" y="388.01"/>
      <point x="350.924" y="403.751" type="curve"/>
      <point x="189.106" y="709.549" type="line"/>
      <point x="184.839" y="709.549" type="line"/>
      <point x="182.675" y="693.281"/>
      <point x="162.269" y="651.023"/>
      <point x="155.124" y="635.066" type="curve"/>
      <point x="39.7103" y="404.371" type="line"/>
      <point x="29.1681" y="388.184"/>
      <point x="13.3468" y="381.379"/>
      <point x="-1" y="381.379" type="curve" smooth="yes"/>
      <point x="-5" y="381.379" type="line"/>
      <point x="-5" y="377" type="line"/>
      <point x="107.522" y="377" type="line"/>
      <point x="107.522" y="381.339" type="line"/>
      <point x="103.194" y="381.339" type="line" smooth="yes"/>
      <point x="90.4847" y="381.339"/>
      <point x="75.4012" y="391.303"/>
      <point x="84.268" y="408.826" type="curve" smooth="yes"/>
      <point x="98.5864" y="438.923" type="line"/>
      <point x="198.58" y="438.923" type="line"/>
      <point x="214.704" y="405.533" type="line"/>
      <point x="219.748" y="390.06"/>
      <point x="206.481" y="381.34"/>
      <point x="194.591" y="381.34" type="curve" smooth="yes"/>
      <point x="190.263" y="381.34" type="line"/>
      <point x="190.263" y="377" type="line"/>
      <point x="395" y="377" type="line"/>
      <point x="395" y="381.379" type="line"/>
    </contour>
    <contour>
      <point x="111.161" y="464.797" type="line"/>
      <point x="148.742" y="542.128" type="line"/>
      <point x="186.085" y="464.797" type="line"/>
    </contour>
  </outline>
</glyph>
<glyph name="registered" format="1">
  <advance width="245"/>
  <unicode hex="00AE"/>
  <outline>
    <contour>
      <point x="60.531" y="700.865"/>
      <point x="10" y="650.334"/>
      <point x="10" y="588" type="curve" smooth="yes"/>
      <point x="10" y="525.666"/>
      <point x="60.531" y="475.135"/>
      <point x="122.865" y="475.135" type="curve" smooth="yes"/>
      <point x="185.199" y="475.135"/>
      <point x="235.73" y="525.666"/>
      <point x="235.73" y="588" type="curve" smooth="yes"/>
      <point x="235.73" y="650.334"/>
      <point x="185.199" y="700.865"/>
      <point x="122.865" y="700.865" type="curve" smooth="yes"/>
    </contour>
    <contour>
      <point x="71.583" y="498.752"/>
      <point x="33.617" y="536.718"/>
      <point x="33.617" y="588" type="curve" smooth="yes"/>
      <point x="33.617" y="639.282"/>
      <point x="71.583" y="677.248"/>
      <point x="122.865" y="677.248" type="curve" smooth="yes"/>
      <point x="174.147" y="677.248"/>
      <point x="212.113" y="639.282"/>
      <point x="212.113" y="588" type="curve" smooth="yes"/>
      <point x="212.113" y="536.718"/>
      <point x="174.147" y="498.752"/>
      <point x="122.865" y="498.752" type="curve" smooth="yes"/>
    </contour>
    <contour>
      <point x="106.605" y="649.704" type="line"/>
      <point x="62.559" y="649.704" type="line"/>
      <point x="62.591" y="647.706" type="line"/>
      <point x="65.12" y="647.71" type="line" smooth="yes"/>
      <point x="71.1058" y="647.71"/>
      <point x="75.6226" y="643.218"/>
      <point x="75.799" y="637.281" type="curve" smooth="yes"/>
      <point x="75.799" y="542.348" type="line"/>
      <point x="75.5605" y="536.468"/>
      <point x="71.0657" y="531.775"/>
      <point x="65.123" y="531.775" type="curve" smooth="yes"/>
      <point x="62.595" y="531.779" type="line"/>
      <point x="62.563" y="529.781" type="line"/>
      <point x="119.849" y="529.781" type="line"/>
      <point x="119.817" y="531.779" type="line"/>
      <point x="117.288" y="531.775" type="line" smooth="yes"/>
      <point x="111.257" y="531.775"/>
      <point x="106.718" y="536.609"/>
      <point x="106.605" y="542.611" type="curve"/>
      <point x="106.605" y="640.508" type="line"/>
      <point x="116.623" y="640.326" type="line" smooth="yes"/>
      <point x="131.588" y="640.506"/>
      <point x="136.893" y="631.621"/>
      <point x="137.419" y="618.652" type="curve" smooth="yes"/>
      <point x="137.556" y="615.272"/>
      <point x="136.76" y="609.056"/>
      <point x="136.215" y="606.171" type="curve" smooth="yes"/>
      <point x="134.045" y="594.687"/>
      <point x="127.654" y="590.409"/>
      <point x="122.02" y="590.127" type="curve"/>
      <point x="111.458" y="590.061" type="line"/>
      <point x="111.458" y="588.211" type="line"/>
      <point x="114.759" y="588.211"/>
      <point x="117.655" y="581.488"/>
      <point x="120.679" y="574.724" type="curve" smooth="yes"/>
      <point x="129.925" y="554.043"/>
      <point x="136.72" y="529.781"/>
      <point x="170.563" y="529.781" type="curve" smooth="yes"/>
      <point x="190.248" y="529.781" type="line"/>
      <point x="190.248" y="531.785" type="line"/>
      <point x="178.752" y="535.713"/>
      <point x="172.216" y="546.546"/>
      <point x="169.481" y="550.876" type="curve" smooth="yes"/>
      <point x="161.743" y="563.126"/>
      <point x="148.174" y="582.445"/>
      <point x="139.352" y="584.424" type="curve"/>
      <point x="156.374" y="586.223"/>
      <point x="169.88" y="595.387"/>
      <point x="169.88" y="617.338" type="curve" smooth="yes"/>
      <point x="169.88" y="637.529"/>
      <point x="150.015" y="649.704"/>
      <point x="126.413" y="649.704" type="curve" smooth="yes"/>
    </contour>
  </outline>
</glyph>
<glyph name="macron" format="1">
  <advance width="600"/>
  <unicode hex="00AF"/>
  <outline>
    <contour>
      <point x="150.23" y="702.943" type="line"/>
      <point x="440.23" y="702.943" type="line"/>
      <point x="440.23" y="787.943" type="line"/>
      <point x="150.23" y="787.943" type="line"/>
    </contour>
    <contour>
      <point x="292.41" y="671.582" type="move" name="_top"/>
    </contour>
  </outline>
</glyph>
<glyph name="onequarter" format="1">
  <advance width="769"/>
  <unicode hex="00BC"/>
  <outline>
    <contour>
      <point x="241.25" y="313.642" type="line" smooth="yes"/>
      <point x="225.09" y="313.625"/>
      <point x="211.442" y="326.478"/>
      <point x="211.442" y="342.516" type="curve" smooth="yes"/>
      <point x="211.442" y="714.813" type="line"/>
      <point x="206.042" y="714.813" type="line"/>
      <point x="159.476" y="692.973"/>
      <point x="50.476" y="680.855"/>
      <point x="20" y="680.253" type="curve"/>
      <point x="20" y="674.853" type="line"/>
      <point x="24.428" y="674.853" type="line" smooth="yes"/>
      <point x="48.673" y="674.853"/>
      <point x="65.225" y="665.781"/>
      <point x="65.225" y="632.446" type="curve" smooth="yes"/>
      <point x="65.225" y="342.868" type="line" smooth="yes"/>
      <point x="65.225" y="326.671"/>
      <point x="51.686" y="313.626"/>
      <point x="35.408" y="313.642" type="curve" smooth="yes"/>
      <point x="24.119" y="313.653" type="line"/>
      <point x="24.044" y="308.253" type="line"/>
      <point x="252.613" y="308.253" type="line"/>
      <point x="252.538" y="313.653" type="line"/>
    </contour>
    <contour>
      <point x="719.167" y="92.229" type="line"/>
      <point x="739.625" y="192.231" type="line"/>
      <point x="733.625" y="192.231" type="line"/>
      <point x="726.425" y="174.941"/>
      <point x="715.084" y="164.516"/>
      <point x="692.981" y="164.516" type="curve" smooth="yes"/>
      <point x="666.877" y="164.516" type="line"/>
      <point x="666.877" y="408.516" type="line"/>
      <point x="661.258" y="408.516" type="line"/>
      <point x="328.626" y="98.229" type="line"/>
      <point x="328.626" y="92.229" type="line"/>
      <point x="522.871" y="92.229" type="line"/>
      <point x="522.871" y="37.2364" type="line"/>
      <point x="522.199" y="19.2866"/>
      <point x="507.434" y="6.11601"/>
      <point x="489.765" y="6.11601" type="curve" smooth="yes"/>
      <point x="483.222" y="6.11601" type="line"/>
      <point x="483.139" y="0.116007" type="line"/>
      <point x="706.621" y="0.116007" type="line"/>
      <point x="706.537" y="6.11601" type="line"/>
      <point x="699.994" y="6.11601" type="line" smooth="yes"/>
      <point x="682.183" y="6.11601"/>
      <point x="667.118" y="20.2857"/>
      <point x="666.877" y="38.0832" type="curve"/>
      <point x="666.877" y="92.229" type="line"/>
    </contour>
    <contour>
      <point x="447.453" y="164.516" type="line"/>
      <point x="522.871" y="230.994" type="line"/>
      <point x="522.871" y="164.516" type="line"/>
    </contour>
    <contour>
      <point x="597.349" y="723" type="line"/>
      <point x="644.492" y="691.154" type="line"/>
      <point x="166.508" y="-20" type="line"/>
      <point x="119" y="11.084" type="line"/>
    </contour>
  </outline>
</glyph>
<glyph name="threequarters" format="1">
  <advance width="839"/>
  <unicode hex="00BE"/>
  <outline>
    <contour>
      <point x="64.472" y="564.951" type="line"/>
      <point x="69.872" y="564.951" type="line"/>
      <point x="68.2371" y="642.787"/>
      <point x="81.147" y="677.068"/>
      <point x="123.626" y="683.113" type="curve" smooth="yes"/>
      <point x="150.754" y="686.973"/>
      <point x="184.882" y="678.394"/>
      <point x="189.626" y="635.113" type="curve" smooth="yes"/>
      <point x="195.076" y="585.388"/>
      <point x="156.161" y="540.587"/>
      <point x="105.698" y="543.071" type="curve"/>
      <point x="104.713" y="537.671" type="line"/>
      <point x="143.851" y="536.711"/>
      <point x="200.626" y="513.902"/>
      <point x="200.626" y="446.113" type="curve" smooth="yes"/>
      <point x="200.626" y="366.741"/>
      <point x="122.407" y="326.113"/>
      <point x="32.7371" y="328.113" type="curve"/>
      <point x="31.657" y="323.113" type="line"/>
      <point x="155.436" y="255.113"/>
      <point x="347.626" y="290.113"/>
      <point x="347.626" y="435.113" type="curve" smooth="yes"/>
      <point x="347.626" y="508.047"/>
      <point x="298.945" y="534.307"/>
      <point x="258.618" y="542.495" type="curve"/>
      <point x="294.607" y="543.791"/>
      <point x="329.489" y="566.09"/>
      <point x="329.489" y="616.608" type="curve" smooth="yes"/>
      <point x="329.489" y="680.351"/>
      <point x="273.92" y="712.797"/>
      <point x="179.626" y="714.113" type="curve" smooth="yes"/>
      <point x="114.87" y="715.017"/>
      <point x="56.335" y="700.265"/>
      <point x="24.626" y="676.235" type="curve"/>
    </contour>
    <contour>
      <point x="799.167" y="92.2291" type="line"/>
      <point x="819.625" y="192.231" type="line"/>
      <point x="813.625" y="192.231" type="line"/>
      <point x="806.425" y="174.941"/>
      <point x="795.084" y="164.516"/>
      <point x="772.981" y="164.516" type="curve" smooth="yes"/>
      <point x="746.877" y="164.516" type="line"/>
      <point x="746.877" y="408.516" type="line"/>
      <point x="741.258" y="408.516" type="line"/>
      <point x="408.626" y="98.2291" type="line"/>
      <point x="408.626" y="92.2291" type="line"/>
      <point x="602.871" y="92.2291" type="line"/>
      <point x="602.871" y="37.2365" type="line"/>
      <point x="602.199" y="19.2867"/>
      <point x="587.434" y="6.11612"/>
      <point x="569.765" y="6.11612" type="curve" smooth="yes"/>
      <point x="563.222" y="6.11612" type="line"/>
      <point x="563.139" y="0.11612" type="line"/>
      <point x="786.621" y="0.11612" type="line"/>
      <point x="786.537" y="6.11612" type="line"/>
      <point x="779.994" y="6.11612" type="line" smooth="yes"/>
      <point x="762.183" y="6.11612"/>
      <point x="747.118" y="20.2858"/>
      <point x="746.877" y="38.0833" type="curve"/>
      <point x="746.877" y="92.2291" type="line"/>
    </contour>
    <contour>
      <point x="527.453" y="164.516" type="line"/>
      <point x="602.871" y="230.994" type="line"/>
      <point x="602.871" y="164.516" type="line"/>
    </contour>
    <contour>
      <point x="666.349" y="723" type="line"/>
      <point x="713.492" y="691.154" type="line"/>
      <point x="235.508" y="-20" type="line"/>
      <point x="188" y="11.084" type="line"/>
    </contour>
  </outline>
</glyph>
<glyph name="Agrave" format="1">
  <advance width="720"/>
  <unicode hex="00C0"/>
  <outline>
    <contour>
      <point x="375.718" y="770.906" type="line"/>
      <point x="347.466" y="836.791"/>
      <point x="265.214" y="918.676"/>
      <point x="220.962" y="956.561" type="curve"/>
      <point x="172.582" y="936.325"/>
      <point x="149.203" y="903.09"/>
      <point x="135.823" y="856.854" type="curve"/>
      <point x="199.121" y="814.871"/>
      <point x="295.42" y="772.889"/>
      <point x="368.718" y="763.906" type="curve"/>
    </contour>
    <contour>
      <point x="351.414" y="724" type="line"/>
      <point x="342.408" y="724" type="line"/>
      <point x="338.408" y="690.283"/>
      <point x="297.112" y="599.922"/>
      <point x="285.361" y="574.867" type="curve" smooth="yes"/>
      <point x="52.025" y="64.034" type="line"/>
      <point x="30.408" y="25.9685"/>
      <point x="-3" y="10"/>
      <point x="-31" y="10" type="curve" smooth="yes"/>
      <point x="-40" y="10" type="line"/>
      <point x="-40" y="0" type="line"/>
      <point x="183.279" y="0" type="line"/>
      <point x="183.279" y="9.9083" type="line"/>
      <point x="174.487" y="9.9083" type="line" smooth="yes"/>
      <point x="148.67" y="9.9083"/>
      <point x="118.49" y="32.6643"/>
      <point x="136.092" y="72.6813" type="curve" smooth="yes"/>
      <point x="176.25" y="166" type="line"/>
      <point x="389.737" y="166" type="line"/>
      <point x="428.741" y="72.6821" type="line" smooth="yes"/>
      <point x="444.745" y="32.6643"/>
      <point x="415.815" y="9.9113"/>
      <point x="389.999" y="9.9113" type="curve" smooth="yes"/>
      <point x="381.207" y="9.9113" type="line"/>
      <point x="381.207" y="0" type="line"/>
      <point x="760.264" y="0" type="line"/>
      <point x="760.264" y="10" type="line"/>
      <point x="751.901" y="10" type="line" smooth="yes"/>
      <point x="723.121" y="10"/>
      <point x="690.494" y="26.2831"/>
      <point x="668.231" y="65.159" type="curve"/>
    </contour>
    <contour>
      <point x="198.048" y="216" type="line"/>
      <point x="285.241" y="416.01" type="line"/>
      <point x="368.839" y="216" type="line"/>
    </contour>
  </outline>
</glyph>
<glyph name="Aacute" format="1">
  <advance width="720"/>
  <unicode hex="00C1"/>
  <outline>
    <contour>
      <point x="331.812" y="761" type="line"/>
      <point x="405.11" y="769.983"/>
      <point x="501.409" y="811.965"/>
      <point x="564.707" y="853.948" type="curve"/>
      <point x="551.327" y="900.184"/>
      <point x="527.948" y="933.419"/>
      <point x="479.568" y="953.655" type="curve"/>
      <point x="435.316" y="915.77"/>
      <point x="353.064" y="833.885"/>
      <point x="324.812" y="768" type="curve"/>
    </contour>
    <contour>
      <point x="351.414" y="724" type="line"/>
      <point x="342.408" y="724" type="line"/>
      <point x="338.408" y="690.283"/>
      <point x="297.112" y="599.922"/>
      <point x="285.361" y="574.867" type="curve" smooth="yes"/>
      <point x="52.025" y="64.034" type="line"/>
      <point x="30.408" y="25.9685"/>
      <point x="-3" y="10"/>
      <point x="-31" y="10" type="curve" smooth="yes"/>
      <point x="-40" y="10" type="line"/>
      <point x="-40" y="0" type="line"/>
      <point x="183.279" y="0" type="line"/>
      <point x="183.279" y="9.90829" type="line"/>
      <point x="174.487" y="9.90829" type="line" smooth="yes"/>
      <point x="148.67" y="9.90829"/>
      <point x="118.49" y="32.6643"/>
      <point x="136.092" y="72.6813" type="curve" smooth="yes"/>
      <point x="176.25" y="166" type="line"/>
      <point x="389.737" y="166" type="line"/>
      <point x="428.741" y="72.6821" type="line" smooth="yes"/>
      <point x="444.745" y="32.6643"/>
      <point x="415.815" y="9.91129"/>
      <point x="389.999" y="9.91129" type="curve" smooth="yes"/>
      <point x="381.207" y="9.91129" type="line"/>
      <point x="381.207" y="0" type="line"/>
      <point x="760.264" y="0" type="line"/>
      <point x="760.264" y="10" type="line"/>
      <point x="751.901" y="10" type="line" smooth="yes"/>
      <point x="723.121" y="10"/>
      <point x="690.494" y="26.2831"/>
      <point x="668.231" y="65.159" type="curve"/>
    </contour>
    <contour>
      <point x="198.048" y="216" type="line"/>
      <point x="285.241" y="416.01" type="line"/>
      <point x="368.839" y="216" type="line"/>
    </contour>
  </outline>
</glyph>
<glyph name="Acircumflex" format="1">
  <advance width="720"/>
  <unicode hex="00C2"/>
  <outline>
    <contour>
      <point x="341.565" y="931.759" type="line"/>
      <point x="353.468" y="931.759" type="line"/>
      <point x="531.912" y="756.241" type="line"/>
      <point x="524.771" y="748.241" type="line"/>
      <point x="346.957" y="812.67" type="line"/>
      <point x="179.838" y="748.337" type="line"/>
      <point x="172.697" y="756.337" type="line"/>
    </contour>
    <contour>
      <point x="351.414" y="724" type="line"/>
      <point x="342.408" y="724" type="line"/>
      <point x="338.408" y="690.283"/>
      <point x="297.112" y="599.922"/>
      <point x="285.361" y="574.867" type="curve" smooth="yes"/>
      <point x="52.025" y="64.0341" type="line"/>
      <point x="30.408" y="25.9686"/>
      <point x="-3" y="10"/>
      <point x="-31" y="10" type="curve" smooth="yes"/>
      <point x="-40" y="10" type="line"/>
      <point x="-40" y="0" type="line"/>
      <point x="183.279" y="0" type="line"/>
      <point x="183.279" y="9.90837" type="line"/>
      <point x="174.487" y="9.90837" type="line" smooth="yes"/>
      <point x="148.67" y="9.90837"/>
      <point x="118.49" y="32.6644"/>
      <point x="136.092" y="72.6814" type="curve" smooth="yes"/>
      <point x="176.25" y="166" type="line"/>
      <point x="389.737" y="166" type="line"/>
      <point x="428.741" y="72.6822" type="line" smooth="yes"/>
      <point x="444.745" y="32.6644"/>
      <point x="415.815" y="9.91137"/>
      <point x="389.999" y="9.91137" type="curve" smooth="yes"/>
      <point x="381.207" y="9.91137" type="line"/>
      <point x="381.207" y="0" type="line"/>
      <point x="760.264" y="0" type="line"/>
      <point x="760.264" y="10" type="line"/>
      <point x="751.901" y="10" type="line" smooth="yes"/>
      <point x="723.121" y="10"/>
      <point x="690.494" y="26.2832"/>
      <point x="668.231" y="65.1591" type="curve"/>
    </contour>
    <contour>
      <point x="198.048" y="216" type="line"/>
      <point x="285.241" y="416.01" type="line"/>
      <point x="368.839" y="216" type="line"/>
    </contour>
  </outline>
</glyph>
<glyph name="Atilde" format="1">
  <advance width="720"/>
  <unicode hex="00C3"/>
  <outline>
    <contour>
      <point x="556.204" y="919.285" type="line"/>
      <point x="578.196" y="870.769"/>
      <point x="540.196" y="763.769"/>
      <point x="439.521" y="764.132" type="curve" smooth="yes"/>
      <point x="377.195" y="764.357"/>
      <point x="343.196" y="807.769"/>
      <point x="278.213" y="818.215" type="curve" smooth="yes"/>
      <point x="233.764" y="825.36"/>
      <point x="195.196" y="788.769"/>
      <point x="186.226" y="767.102" type="curve"/>
      <point x="173.872" y="767.102" type="line"/>
      <point x="159.196" y="820.769"/>
      <point x="193.196" y="928.769"/>
      <point x="291.05" y="928.882" type="curve" smooth="yes"/>
      <point x="349.196" y="928.949"/>
      <point x="380.196" y="885.769"/>
      <point x="453.086" y="875.799" type="curve" smooth="yes"/>
      <point x="497.78" y="869.685"/>
      <point x="537.196" y="902.769"/>
      <point x="543.851" y="919.285" type="curve"/>
    </contour>
    <contour>
      <point x="351.414" y="724" type="line"/>
      <point x="342.408" y="724" type="line"/>
      <point x="338.408" y="690.283"/>
      <point x="297.112" y="599.922"/>
      <point x="285.361" y="574.867" type="curve" smooth="yes"/>
      <point x="52.025" y="64.034" type="line"/>
      <point x="30.408" y="25.9685"/>
      <point x="-3" y="10"/>
      <point x="-31" y="10" type="curve" smooth="yes"/>
      <point x="-40" y="10" type="line"/>
      <point x="-40" y="0" type="line"/>
      <point x="183.279" y="0" type="line"/>
      <point x="183.279" y="9.90826" type="line"/>
      <point x="174.487" y="9.90826" type="line" smooth="yes"/>
      <point x="148.67" y="9.90826"/>
      <point x="118.49" y="32.6643"/>
      <point x="136.092" y="72.6813" type="curve" smooth="yes"/>
      <point x="176.25" y="166" type="line"/>
      <point x="389.737" y="166" type="line"/>
      <point x="428.741" y="72.6821" type="line" smooth="yes"/>
      <point x="444.745" y="32.6643"/>
      <point x="415.815" y="9.91126"/>
      <point x="389.999" y="9.91126" type="curve" smooth="yes"/>
      <point x="381.207" y="9.91126" type="line"/>
      <point x="381.207" y="0" type="line"/>
      <point x="760.264" y="0" type="line"/>
      <point x="760.264" y="10" type="line"/>
      <point x="751.901" y="10" type="line" smooth="yes"/>
      <point x="723.121" y="10"/>
      <point x="690.494" y="26.2831"/>
      <point x="668.231" y="65.159" type="curve"/>
    </contour>
    <contour>
      <point x="198.048" y="216" type="line"/>
      <point x="285.241" y="416.01" type="line"/>
      <point x="368.839" y="216" type="line"/>
    </contour>
  </outline>
</glyph>
<glyph name="Aring" format="1">
  <advance width="720"/>
  <unicode hex="00C5"/>
  <outline>
    <contour>
      <point x="361.135" y="694.067" type="line"/>
      <point x="408.293" y="698.9"/>
      <point x="445.858" y="729.025"/>
      <point x="446.268" y="769.335" type="curve"/>
      <point x="445.818" y="814.398"/>
      <point x="401.718" y="843.063"/>
      <point x="347.84" y="843.314" type="curve" smooth="yes"/>
      <point x="293.673" y="843.063"/>
      <point x="248.471" y="813.296"/>
      <point x="248.739" y="768.422" type="curve" smooth="yes"/>
      <point x="248.487" y="726.642"/>
      <point x="289.42" y="696.852"/>
      <point x="337.811" y="693.669" type="curve"/>
      <point x="325.802" y="652.716"/>
      <point x="295.208" y="585.862"/>
      <point x="285.361" y="564.867" type="curve" smooth="yes"/>
      <point x="56.5449" y="72.6894" type="line" smooth="yes"/>
      <point x="35.3105" y="28.3746"/>
      <point x="-1" y="9.99981"/>
      <point x="-31" y="9.99981" type="curve" smooth="yes"/>
      <point x="-40" y="9.99981" type="line"/>
      <point x="-40" y="0" type="line"/>
      <point x="183.279" y="0" type="line"/>
      <point x="183.279" y="9.90781" type="line"/>
      <point x="174.487" y="9.90781" type="line" smooth="yes"/>
      <point x="148.984" y="9.90781"/>
      <point x="119.223" y="32.1139"/>
      <point x="135.471" y="71.2289" type="curve" smooth="yes"/>
      <point x="177.531" y="166" type="line"/>
      <point x="388.258" y="166" type="line"/>
      <point x="428.495" y="71.816" type="line" smooth="yes"/>
      <point x="444.327" y="32.3362"/>
      <point x="415.628" y="9.91081"/>
      <point x="389.999" y="9.91081" type="curve" smooth="yes"/>
      <point x="381.207" y="9.91081" type="line"/>
      <point x="381.207" y="0" type="line"/>
      <point x="760.264" y="0" type="line"/>
      <point x="760.264" y="9.99981" type="line"/>
      <point x="751.901" y="9.99981" type="line" smooth="yes"/>
      <point x="721.254" y="9.99981"/>
      <point x="686.244" y="28.4638"/>
      <point x="664.032" y="73.0128" type="curve" smooth="yes"/>
    </contour>
    <contour>
      <point x="304.676" y="798.551"/>
      <point x="322.844" y="820.963"/>
      <point x="346.953" y="820.646" type="curve" smooth="yes"/>
      <point x="372.007" y="820.984"/>
      <point x="390.647" y="798.572"/>
      <point x="390.445" y="768.351" type="curve" smooth="yes"/>
      <point x="390.64" y="738.67"/>
      <point x="372" y="716.258"/>
      <point x="346.953" y="716.056" type="curve" smooth="yes"/>
      <point x="322.837" y="716.246"/>
      <point x="304.669" y="738.658"/>
      <point x="304.562" y="768.351" type="curve"/>
    </contour>
    <contour>
      <point x="199.721" y="216" type="line"/>
      <point x="284.901" y="407.93" type="line"/>
      <point x="366.897" y="216" type="line"/>
    </contour>
  </outline>
</glyph>
<glyph name="AE" format="1">
  <advance width="1017"/>
  <unicode hex="00C6"/>
  <outline>
    <contour>
      <point x="991.417" y="231.543" type="line"/>
      <point x="960.325" y="117.359"/>
      <point x="879.855" y="50.592"/>
      <point x="783.892" y="50.592" type="curve" smooth="yes"/>
      <point x="670.588" y="50.592" type="line"/>
      <point x="670.588" y="317.218" type="line"/>
      <point x="774.49" y="317.218" type="line"/>
      <point x="835.312" y="313.797"/>
      <point x="878.053" y="269.275"/>
      <point x="877.847" y="208.134" type="curve" smooth="yes"/>
      <point x="877.831" y="203.4" type="line"/>
      <point x="887.604" y="203.276" type="line"/>
      <point x="887.604" y="481.235" type="line"/>
      <point x="877.831" y="481.11" type="line"/>
      <point x="877.848" y="476.376" type="line" smooth="yes"/>
      <point x="878.069" y="414.721"/>
      <point x="834.653" y="369.966"/>
      <point x="772.938" y="367.218" type="curve"/>
      <point x="670.588" y="367.218" type="line"/>
      <point x="670.588" y="649.409" type="line"/>
      <point x="805.45" y="649.409" type="line"/>
      <point x="884.221" y="646.525"/>
      <point x="930.528" y="598.564"/>
      <point x="930.337" y="519.891" type="curve" smooth="yes"/>
      <point x="930.318" y="512.067" type="line"/>
      <point x="940.441" y="511.917" type="line"/>
      <point x="940.441" y="718.187" type="line"/>
      <point x="921.881" y="710.366"/>
      <point x="864.255" y="700.407"/>
      <point x="821.153" y="700" type="curve" smooth="yes"/>
      <point x="426.553" y="700" type="line"/>
      <point x="426.553" y="690" type="line"/>
      <point x="431.553" y="690" type="line" smooth="yes"/>
      <point x="456.779" y="690"/>
      <point x="471.068" y="667.91"/>
      <point x="453.227" y="640.789" type="curve" smooth="yes"/>
      <point x="62.1855" y="70.9895" type="line" smooth="yes"/>
      <point x="31.5906" y="27.9042"/>
      <point x="5.4558" y="10"/>
      <point x="-24" y="10" type="curve" smooth="yes"/>
      <point x="-33" y="10" type="line"/>
      <point x="-33" y="0" type="line"/>
      <point x="204.972" y="0" type="line"/>
      <point x="204.972" y="9.90801" type="line"/>
      <point x="196.18" y="9.90801" type="line" smooth="yes"/>
      <point x="170.363" y="9.90801"/>
      <point x="133.183" y="32.664"/>
      <point x="157.785" y="72.681" type="curve" smooth="yes"/>
      <point x="309.257" y="317.218" type="line"/>
      <point x="465.555" y="317.218" type="line"/>
      <point x="465.555" y="58.357" type="line" smooth="yes"/>
      <point x="465.046" y="31.561"/>
      <point x="443.202" y="9.98402"/>
      <point x="416.278" y="9.98402" type="curve" smooth="yes"/>
      <point x="406.547" y="10" type="line"/>
      <point x="406.423" y="0" type="line"/>
      <point x="963.129" y="0" type="line"/>
      <point x="1001.42" y="231.543" type="line"/>
    </contour>
    <contour>
      <point x="340.237" y="367.218" type="line"/>
      <point x="465.555" y="569.475" type="line"/>
      <point x="465.555" y="367.218" type="line"/>
    </contour>
    <contour>
      <point x="300" y="700" type="move" name="top"/>
    </contour>
  </outline>
</glyph>
<glyph name="Ccedilla" format="1">
  <advance width="793"/>
  <unicode hex="00C7"/>
  <outline>
    <contour>
      <point x="729.328" y="291.886" type="line"/>
      <point x="721.006" y="291.85" type="line"/>
      <point x="684.435" y="100.51"/>
      <point x="633.678" y="35.929"/>
      <point x="472.128" y="35.929" type="curve" smooth="yes"/>
      <point x="335.648" y="39.8659"/>
      <point x="255" y="158.007"/>
      <point x="255" y="354" type="curve" smooth="yes"/>
      <point x="255" y="548.837"/>
      <point x="342.161" y="664.008"/>
      <point x="489.665" y="664.074" type="curve" smooth="yes"/>
      <point x="593" y="664"/>
      <point x="671" y="618"/>
      <point x="711.378" y="477.264" type="curve"/>
      <point x="719.701" y="477.232" type="line"/>
      <point x="729.525" y="668.468" type="line"/>
      <point x="674" y="692"/>
      <point x="585" y="714"/>
      <point x="473" y="714" type="curve" smooth="yes"/>
      <point x="197" y="714"/>
      <point x="35" y="579"/>
      <point x="35" y="351" type="curve" smooth="yes"/>
      <point x="35" y="138.915"/>
      <point x="174.193" y="11.3401"/>
      <point x="402.147" y="-11" type="curve"/>
      <point x="354.945" y="-71" type="line"/>
      <point x="360.031" y="-81" type="line"/>
      <point x="396.273" y="-66"/>
      <point x="462.575" y="-77"/>
      <point x="457.427" y="-119" type="curve" smooth="yes"/>
      <point x="450.731" y="-174"/>
      <point x="395.375" y="-195"/>
      <point x="353.648" y="-195" type="curve"/>
      <point x="352.91" y="-205" type="line"/>
      <point x="435.999" y="-234"/>
      <point x="535.019" y="-190"/>
      <point x="541.427" y="-120" type="curve" smooth="yes"/>
      <point x="547.776" y="-51"/>
      <point x="458.176" y="-45"/>
      <point x="422.589" y="-57" type="curve"/>
      <point x="460.393" y="-14" type="line"/>
      <point x="464.283" y="-14"/>
      <point x="468.195" y="-14"/>
      <point x="472.128" y="-14" type="curve" smooth="yes"/>
      <point x="630.992" y="-14"/>
      <point x="713.441" y="43.7998"/>
      <point x="753.139" y="109.938" type="curve"/>
    </contour>
  </outline>
</glyph>
<glyph name="Egrave" format="1">
  <advance width="667"/>
  <unicode hex="00C8"/>
  <outline>
    <contour>
      <point x="392.826" y="770.906" type="line"/>
      <point x="366.874" y="836.791"/>
      <point x="287.481" y="918.676"/>
      <point x="244.551" y="956.561" type="curve"/>
      <point x="195.465" y="936.325"/>
      <point x="170.926" y="903.09"/>
      <point x="155.931" y="856.854" type="curve"/>
      <point x="217.764" y="814.871"/>
      <point x="312.597" y="772.889"/>
      <point x="385.581" y="763.906" type="curve"/>
    </contour>
    <contour>
      <point x="642.845" y="231.543" type="line"/>
      <point x="611.753" y="117.359"/>
      <point x="531.283" y="50.5919"/>
      <point x="435.32" y="50.5919" type="curve" smooth="yes"/>
      <point x="311.901" y="50.5919" type="line"/>
      <point x="311.901" y="320.218" type="line"/>
      <point x="422.202" y="320.218" type="line" smooth="yes"/>
      <point x="484.992" y="318.435"/>
      <point x="529.486" y="273.356"/>
      <point x="529.275" y="210.977" type="curve" smooth="yes"/>
      <point x="529.259" y="206.243" type="line"/>
      <point x="539.032" y="206.119" type="line"/>
      <point x="539.032" y="484.375" type="line"/>
      <point x="529.259" y="484.25" type="line"/>
      <point x="529.276" y="479.516" type="line" smooth="yes"/>
      <point x="529.501" y="416.714"/>
      <point x="484.451" y="371.446"/>
      <point x="420.904" y="370.248" type="curve" smooth="yes"/>
      <point x="311.901" y="370.248" type="line"/>
      <point x="311.901" y="649.409" type="line"/>
      <point x="456.878" y="649.409" type="line"/>
      <point x="535.649" y="646.525"/>
      <point x="581.956" y="598.564"/>
      <point x="581.765" y="519.891" type="curve" smooth="yes"/>
      <point x="581.746" y="512.067" type="line"/>
      <point x="591.822" y="511.917" type="line"/>
      <point x="591.822" y="718.187" type="line"/>
      <point x="573.262" y="710.366"/>
      <point x="515.681" y="700.407"/>
      <point x="472.581" y="700" type="curve" smooth="yes"/>
      <point x="30.0063" y="700" type="line"/>
      <point x="30.1683" y="690.06" type="line"/>
      <point x="42.8183" y="690.08" type="line" smooth="yes"/>
      <point x="77.7584" y="690.08"/>
      <point x="106.117" y="662.128"/>
      <point x="106.868" y="627.378" type="curve" smooth="yes"/>
      <point x="106.868" y="72.864" type="line" smooth="yes"/>
      <point x="106.209" y="38.029"/>
      <point x="77.8125" y="9.97898"/>
      <point x="42.8105" y="9.97898" type="curve" smooth="yes"/>
      <point x="30.1605" y="9.99998" type="line"/>
      <point x="29.9995" y="0" type="line"/>
      <point x="614.556" y="0" type="line"/>
      <point x="652.845" y="231.543" type="line"/>
    </contour>
  </outline>
</glyph>
<glyph name="Eacute" format="1">
  <advance width="667"/>
  <unicode hex="00C9"/>
  <outline>
    <contour>
      <point x="322.039" y="761" type="line"/>
      <point x="395.337" y="769.983"/>
      <point x="491.636" y="811.965"/>
      <point x="554.934" y="853.948" type="curve"/>
      <point x="541.554" y="900.184"/>
      <point x="518.175" y="933.419"/>
      <point x="469.795" y="953.655" type="curve"/>
      <point x="425.543" y="915.77"/>
      <point x="343.291" y="833.885"/>
      <point x="315.039" y="768" type="curve"/>
    </contour>
    <contour>
      <point x="642.845" y="231.543" type="line"/>
      <point x="611.753" y="117.359"/>
      <point x="531.283" y="50.5919"/>
      <point x="435.32" y="50.5919" type="curve" smooth="yes"/>
      <point x="311.901" y="50.5919" type="line"/>
      <point x="311.901" y="320.218" type="line"/>
      <point x="422.202" y="320.218" type="line" smooth="yes"/>
      <point x="484.992" y="318.435"/>
      <point x="529.486" y="273.356"/>
      <point x="529.275" y="210.977" type="curve" smooth="yes"/>
      <point x="529.259" y="206.243" type="line"/>
      <point x="539.032" y="206.119" type="line"/>
      <point x="539.032" y="484.375" type="line"/>
      <point x="529.259" y="484.25" type="line"/>
      <point x="529.276" y="479.516" type="line" smooth="yes"/>
      <point x="529.501" y="416.714"/>
      <point x="484.451" y="371.446"/>
      <point x="420.904" y="370.248" type="curve" smooth="yes"/>
      <point x="311.901" y="370.248" type="line"/>
      <point x="311.901" y="649.409" type="line"/>
      <point x="456.878" y="649.409" type="line"/>
      <point x="535.649" y="646.525"/>
      <point x="581.956" y="598.564"/>
      <point x="581.765" y="519.891" type="curve" smooth="yes"/>
      <point x="581.746" y="512.067" type="line"/>
      <point x="591.822" y="511.917" type="line"/>
      <point x="591.822" y="718.187" type="line"/>
      <point x="573.263" y="710.366"/>
      <point x="515.681" y="700.407"/>
      <point x="472.581" y="700" type="curve" smooth="yes"/>
      <point x="30.0063" y="700" type="line"/>
      <point x="30.1683" y="690.06" type="line"/>
      <point x="42.8183" y="690.08" type="line" smooth="yes"/>
      <point x="77.7584" y="690.08"/>
      <point x="106.117" y="662.128"/>
      <point x="106.869" y="627.378" type="curve" smooth="yes"/>
      <point x="106.869" y="72.864" type="line" smooth="yes"/>
      <point x="106.21" y="38.029"/>
      <point x="77.8125" y="9.97897"/>
      <point x="42.8105" y="9.97897" type="curve" smooth="yes"/>
      <point x="30.1605" y="9.99997" type="line"/>
      <point x="29.9995" y="0" type="line"/>
      <point x="614.557" y="0" type="line"/>
      <point x="652.845" y="231.543" type="line"/>
    </contour>
  </outline>
</glyph>
<glyph name="Ecircumflex" format="1">
  <advance width="667"/>
  <unicode hex="00CA"/>
  <outline>
    <contour>
      <point x="331.792" y="931.759" type="line"/>
      <point x="343.695" y="931.759" type="line"/>
      <point x="522.139" y="756.241" type="line"/>
      <point x="514.998" y="748.241" type="line"/>
      <point x="337.184" y="812.67" type="line"/>
      <point x="170.065" y="748.337" type="line"/>
      <point x="162.924" y="756.337" type="line"/>
    </contour>
    <contour>
      <point x="642.845" y="231.543" type="line"/>
      <point x="611.753" y="117.359"/>
      <point x="531.283" y="50.5921"/>
      <point x="435.32" y="50.5921" type="curve" smooth="yes"/>
      <point x="311.901" y="50.5921" type="line"/>
      <point x="311.901" y="320.218" type="line"/>
      <point x="422.202" y="320.218" type="line" smooth="yes"/>
      <point x="484.992" y="318.435"/>
      <point x="529.486" y="273.356"/>
      <point x="529.275" y="210.977" type="curve" smooth="yes"/>
      <point x="529.259" y="206.243" type="line"/>
      <point x="539.032" y="206.119" type="line"/>
      <point x="539.032" y="484.375" type="line"/>
      <point x="529.259" y="484.25" type="line"/>
      <point x="529.276" y="479.516" type="line" smooth="yes"/>
      <point x="529.501" y="416.714"/>
      <point x="484.451" y="371.446"/>
      <point x="420.904" y="370.248" type="curve" smooth="yes"/>
      <point x="311.901" y="370.248" type="line"/>
      <point x="311.901" y="649.409" type="line"/>
      <point x="456.878" y="649.409" type="line"/>
      <point x="535.649" y="646.525"/>
      <point x="581.956" y="598.564"/>
      <point x="581.765" y="519.891" type="curve" smooth="yes"/>
      <point x="581.746" y="512.067" type="line"/>
      <point x="591.822" y="511.917" type="line"/>
      <point x="591.822" y="718.187" type="line"/>
      <point x="573.263" y="710.366"/>
      <point x="515.681" y="700.407"/>
      <point x="472.581" y="700" type="curve" smooth="yes"/>
      <point x="30.0063" y="700" type="line"/>
      <point x="30.1683" y="690.06" type="line"/>
      <point x="42.8183" y="690.08" type="line" smooth="yes"/>
      <point x="77.7584" y="690.08"/>
      <point x="106.117" y="662.128"/>
      <point x="106.869" y="627.378" type="curve" smooth="yes"/>
      <point x="106.869" y="72.8641" type="line" smooth="yes"/>
      <point x="106.21" y="38.0291"/>
      <point x="77.8125" y="9.97913"/>
      <point x="42.8105" y="9.97913" type="curve" smooth="yes"/>
      <point x="30.1605" y="10" type="line"/>
      <point x="29.9995" y="0" type="line"/>
      <point x="614.557" y="0" type="line"/>
      <point x="652.845" y="231.543" type="line"/>
    </contour>
  </outline>
</glyph>
<glyph name="Edieresis" format="1">
  <advance width="667"/>
  <unicode hex="00CB"/>
  <outline>
    <contour>
      <point x="244.894" y="755.486"/>
      <point x="277.884" y="788.476"/>
      <point x="277.884" y="829.174" type="curve" smooth="yes"/>
      <point x="277.884" y="869.872"/>
      <point x="244.894" y="902.863"/>
      <point x="204.197" y="902.863" type="curve" smooth="yes"/>
      <point x="163.499" y="902.863"/>
      <point x="130.509" y="869.872"/>
      <point x="130.509" y="829.174" type="curve" smooth="yes"/>
      <point x="130.509" y="788.476"/>
      <point x="163.499" y="755.486"/>
      <point x="204.197" y="755.486" type="curve" smooth="yes"/>
    </contour>
    <contour>
      <point x="507.492" y="755.486"/>
      <point x="540.481" y="788.476"/>
      <point x="540.481" y="829.174" type="curve" smooth="yes"/>
      <point x="540.481" y="869.872"/>
      <point x="507.492" y="902.863"/>
      <point x="466.794" y="902.863" type="curve" smooth="yes"/>
      <point x="426.096" y="902.863"/>
      <point x="393.106" y="869.872"/>
      <point x="393.106" y="829.174" type="curve" smooth="yes"/>
      <point x="393.106" y="788.476"/>
      <point x="426.096" y="755.486"/>
      <point x="466.794" y="755.486" type="curve" smooth="yes"/>
    </contour>
    <contour>
      <point x="642.845" y="231.543" type="line"/>
      <point x="611.753" y="117.359"/>
      <point x="531.283" y="50.592"/>
      <point x="435.32" y="50.592" type="curve" smooth="yes"/>
      <point x="311.901" y="50.592" type="line"/>
      <point x="311.901" y="320.218" type="line"/>
      <point x="422.202" y="320.218" type="line" smooth="yes"/>
      <point x="484.992" y="318.435"/>
      <point x="529.486" y="273.356"/>
      <point x="529.275" y="210.977" type="curve" smooth="yes"/>
      <point x="529.259" y="206.243" type="line"/>
      <point x="539.032" y="206.119" type="line"/>
      <point x="539.032" y="484.375" type="line"/>
      <point x="529.259" y="484.25" type="line"/>
      <point x="529.276" y="479.516" type="line" smooth="yes"/>
      <point x="529.501" y="416.714"/>
      <point x="484.451" y="371.446"/>
      <point x="420.904" y="370.248" type="curve" smooth="yes"/>
      <point x="311.901" y="370.248" type="line"/>
      <point x="311.901" y="649.409" type="line"/>
      <point x="456.878" y="649.409" type="line"/>
      <point x="535.649" y="646.525"/>
      <point x="581.956" y="598.564"/>
      <point x="581.765" y="519.891" type="curve" smooth="yes"/>
      <point x="581.746" y="512.067" type="line"/>
      <point x="591.822" y="511.917" type="line"/>
      <point x="591.822" y="718.187" type="line"/>
      <point x="573.263" y="710.366"/>
      <point x="515.681" y="700.407"/>
      <point x="472.581" y="700" type="curve" smooth="yes"/>
      <point x="30.0063" y="700" type="line"/>
      <point x="30.1683" y="690.06" type="line"/>
      <point x="42.8183" y="690.08" type="line" smooth="yes"/>
      <point x="77.7584" y="690.08"/>
      <point x="106.117" y="662.128"/>
      <point x="106.868" y="627.378" type="curve" smooth="yes"/>
      <point x="106.868" y="72.8641" type="line" smooth="yes"/>
      <point x="106.209" y="38.0291"/>
      <point x="77.8125" y="9.9791"/>
      <point x="42.8105" y="9.9791" type="curve" smooth="yes"/>
      <point x="30.1605" y="10" type="line"/>
      <point x="29.9995" y="0" type="line"/>
      <point x="614.556" y="0" type="line"/>
      <point x="652.845" y="231.543" type="line"/>
    </contour>
  </outline>
</glyph>
<glyph name="Igrave" format="1">
  <advance width="418"/>
  <unicode hex="00CC"/>
  <outline>
    <contour>
      <point x="245.212" y="770.906" type="line"/>
      <point x="216.96" y="836.791"/>
      <point x="134.708" y="918.676"/>
      <point x="90.456" y="956.561" type="curve"/>
      <point x="42.076" y="936.325"/>
      <point x="18.697" y="903.09"/>
      <point x="5.31701" y="856.854" type="curve"/>
      <point x="68.615" y="814.871"/>
      <point x="164.914" y="772.889"/>
      <point x="238.212" y="763.906" type="curve"/>
    </contour>
    <contour>
      <point x="388.626" y="10" type="line"/>
      <point x="375.976" y="9.979" type="line" smooth="yes"/>
      <point x="340.974" y="9.979"/>
      <point x="312.577" y="38.029"/>
      <point x="311.922" y="72.864" type="curve"/>
      <point x="311.922" y="627.818" type="line" smooth="yes"/>
      <point x="312.9" y="662.363"/>
      <point x="341.167" y="690.08"/>
      <point x="375.959" y="690.08" type="curve" smooth="yes"/>
      <point x="388.609" y="690.06" type="line"/>
      <point x="388.771" y="700.06" type="line"/>
      <point x="30.016" y="700.06" type="line"/>
      <point x="30.178" y="690.06" type="line"/>
      <point x="42.828" y="690.08" type="line" smooth="yes"/>
      <point x="77.6917" y="690.08"/>
      <point x="106.003" y="662.25"/>
      <point x="106.873" y="627.606" type="curve" smooth="yes"/>
      <point x="106.873" y="72.8641" type="line" smooth="yes"/>
      <point x="106.21" y="38.0291"/>
      <point x="77.8129" y="9.97909"/>
      <point x="42.8109" y="9.97909" type="curve" smooth="yes"/>
      <point x="30.1609" y="10" type="line"/>
      <point x="29.9999" y="0" type="line"/>
      <point x="388.787" y="0" type="line"/>
    </contour>
  </outline>
</glyph>
<glyph name="Icircumflex" format="1">
  <advance width="418"/>
  <unicode hex="00CE"/>
  <outline>
    <contour>
      <point x="201.059" y="931.758" type="line"/>
      <point x="212.962" y="931.758" type="line"/>
      <point x="391.406" y="756.24" type="line"/>
      <point x="384.265" y="748.24" type="line"/>
      <point x="206.451" y="812.669" type="line"/>
      <point x="39.332" y="748.336" type="line"/>
      <point x="32.191" y="756.336" type="line"/>
    </contour>
    <contour>
      <point x="388.626" y="9.99999" type="line"/>
      <point x="375.976" y="9.97899" type="line" smooth="yes"/>
      <point x="340.974" y="9.97899"/>
      <point x="312.577" y="38.029"/>
      <point x="311.922" y="72.864" type="curve"/>
      <point x="311.922" y="627.818" type="line" smooth="yes"/>
      <point x="312.9" y="662.363"/>
      <point x="341.167" y="690.08"/>
      <point x="375.959" y="690.08" type="curve" smooth="yes"/>
      <point x="388.609" y="690.06" type="line"/>
      <point x="388.771" y="700.06" type="line"/>
      <point x="30.0161" y="700.06" type="line"/>
      <point x="30.1781" y="690.06" type="line"/>
      <point x="42.8281" y="690.08" type="line" smooth="yes"/>
      <point x="77.6918" y="690.08"/>
      <point x="106.003" y="662.249"/>
      <point x="106.873" y="627.605" type="curve" smooth="yes"/>
      <point x="106.873" y="72.8635" type="line" smooth="yes"/>
      <point x="106.21" y="38.0285"/>
      <point x="77.813" y="9.97847"/>
      <point x="42.811" y="9.97847" type="curve" smooth="yes"/>
      <point x="30.161" y="9.99947" type="line"/>
      <point x="30" y="0" type="line"/>
      <point x="388.787" y="0" type="line"/>
    </contour>
  </outline>
</glyph>
<glyph name="Ntilde" format="1">
  <advance width="881"/>
  <unicode hex="00D1"/>
  <outline>
    <contour>
      <point x="619.197" y="919.284" type="line"/>
      <point x="641.189" y="870.768"/>
      <point x="603.189" y="763.768"/>
      <point x="502.514" y="764.131" type="curve" smooth="yes"/>
      <point x="440.188" y="764.356"/>
      <point x="406.189" y="807.768"/>
      <point x="341.206" y="818.214" type="curve" smooth="yes"/>
      <point x="296.757" y="825.359"/>
      <point x="258.189" y="788.768"/>
      <point x="249.219" y="767.101" type="curve"/>
      <point x="236.865" y="767.101" type="line"/>
      <point x="222.189" y="820.768"/>
      <point x="256.189" y="928.768"/>
      <point x="354.043" y="928.881" type="curve" smooth="yes"/>
      <point x="412.189" y="928.948"/>
      <point x="443.189" y="885.768"/>
      <point x="516.079" y="875.798" type="curve" smooth="yes"/>
      <point x="560.773" y="869.684"/>
      <point x="600.189" y="902.768"/>
      <point x="606.844" y="919.284" type="curve"/>
    </contour>
    <contour>
      <point x="495.233" y="700.019" type="line"/>
      <point x="495.387" y="690.019" type="line"/>
      <point x="513.841" y="690.038" type="line" smooth="yes"/>
      <point x="547.579" y="690.042"/>
      <point x="574.944" y="663.005"/>
      <point x="575.575" y="629.431" type="curve" smooth="yes"/>
      <point x="575.575" y="289.291" type="line"/>
      <point x="97.8906" y="714.071" type="line"/>
      <point x="96.9974" y="714.999" type="line"/>
      <point x="87.1364" y="714.99" type="line" smooth="yes"/>
      <point x="87.1364" y="714.99"/>
      <point x="100.345" y="668.334"/>
      <point x="100.345" y="590.068" type="curve" smooth="yes"/>
      <point x="100.345" y="70.5434" type="line" smooth="yes"/>
      <point x="99.6903" y="36.9917"/>
      <point x="72.332" y="9.98026"/>
      <point x="38.6134" y="9.98026" type="curve" smooth="yes"/>
      <point x="20.1554" y="9.99926" type="line"/>
      <point x="20" y="0" type="line"/>
      <point x="385.987" y="0" type="line"/>
      <point x="385.833" y="9.99926" type="line"/>
      <point x="367.372" y="9.98026" type="line" smooth="yes"/>
      <point x="333.64" y="9.98026"/>
      <point x="306.273" y="37.0163"/>
      <point x="305.637" y="70.5893" type="curve"/>
      <point x="305.637" y="411.898" type="line"/>
      <point x="785.022" y="-14" type="line"/>
      <point x="794.104" y="-14" type="line"/>
      <point x="794.104" y="-14"/>
      <point x="780.983" y="31.1643"/>
      <point x="780.983" y="113.581" type="curve" smooth="yes"/>
      <point x="780.983" y="630.255" type="line" smooth="yes"/>
      <point x="782.043" y="663.447"/>
      <point x="809.237" y="690.042"/>
      <point x="842.697" y="690.038" type="curve" smooth="yes"/>
      <point x="861.153" y="690.019" type="line"/>
      <point x="861.306" y="700.019" type="line"/>
    </contour>
  </outline>
</glyph>
<glyph name="Oacute" format="1">
  <advance width="905"/>
  <unicode hex="00D3"/>
  <outline>
    <contour>
      <point x="433.432" y="775" type="line"/>
      <point x="506.73" y="783.983"/>
      <point x="603.029" y="825.965"/>
      <point x="666.327" y="867.948" type="curve"/>
      <point x="652.947" y="914.184"/>
      <point x="629.568" y="947.419"/>
      <point x="581.188" y="967.655" type="curve"/>
      <point x="536.936" y="929.77"/>
      <point x="454.684" y="847.885"/>
      <point x="426.432" y="782" type="curve"/>
    </contour>
    <contour>
      <point x="192.446" y="714"/>
      <point x="35" y="578.797"/>
      <point x="35" y="349.992" type="curve" smooth="yes"/>
      <point x="35" y="121.197"/>
      <point x="192.446" y="-14"/>
      <point x="450.432" y="-14" type="curve" smooth="yes"/>
      <point x="708.418" y="-14"/>
      <point x="865.865" y="121.197"/>
      <point x="865.865" y="349.992" type="curve" smooth="yes"/>
      <point x="865.865" y="578.797"/>
      <point x="708.418" y="714"/>
      <point x="450.432" y="714" type="curve" smooth="yes"/>
    </contour>
    <contour>
      <point x="328.008" y="35.925"/>
      <point x="255.667" y="152.578"/>
      <point x="255.667" y="349.992" type="curve" smooth="yes"/>
      <point x="255.667" y="547.416"/>
      <point x="328.008" y="664.075"/>
      <point x="450.432" y="664.075" type="curve" smooth="yes"/>
      <point x="572.856" y="664.075"/>
      <point x="645.198" y="547.416"/>
      <point x="645.198" y="349.992" type="curve" smooth="yes"/>
      <point x="645.198" y="152.578"/>
      <point x="572.856" y="35.925"/>
      <point x="450.432" y="35.925" type="curve" smooth="yes"/>
    </contour>
  </outline>
</glyph>
<glyph name="Ocircumflex" format="1">
  <advance width="905"/>
  <unicode hex="00D4"/>
  <outline>
    <contour>
      <point x="443.185" y="945.759" type="line"/>
      <point x="455.088" y="945.759" type="line"/>
      <point x="633.532" y="770.241" type="line"/>
      <point x="626.391" y="762.241" type="line"/>
      <point x="448.577" y="826.67" type="line"/>
      <point x="281.458" y="762.337" type="line"/>
      <point x="274.317" y="770.337" type="line"/>
    </contour>
    <contour>
      <point x="192.446" y="714"/>
      <point x="35" y="578.797"/>
      <point x="35" y="349.992" type="curve" smooth="yes"/>
      <point x="35" y="121.197"/>
      <point x="192.446" y="-14"/>
      <point x="450.432" y="-14" type="curve" smooth="yes"/>
      <point x="708.418" y="-14"/>
      <point x="865.865" y="121.197"/>
      <point x="865.865" y="349.992" type="curve" smooth="yes"/>
      <point x="865.865" y="578.797"/>
      <point x="708.418" y="714"/>
      <point x="450.432" y="714" type="curve" smooth="yes"/>
    </contour>
    <contour>
      <point x="328.008" y="35.9251"/>
      <point x="255.667" y="152.578"/>
      <point x="255.667" y="349.992" type="curve" smooth="yes"/>
      <point x="255.667" y="547.416"/>
      <point x="328.008" y="664.075"/>
      <point x="450.432" y="664.075" type="curve" smooth="yes"/>
      <point x="572.856" y="664.075"/>
      <point x="645.198" y="547.416"/>
      <point x="645.198" y="349.992" type="curve" smooth="yes"/>
      <point x="645.198" y="152.578"/>
      <point x="572.856" y="35.9251"/>
      <point x="450.432" y="35.9251" type="curve" smooth="yes"/>
    </contour>
  </outline>
</glyph>
<glyph name="Otilde" format="1">
  <advance width="905"/>
  <unicode hex="00D5"/>
  <outline>
    <contour>
      <point x="657.824" y="933.285" type="line"/>
      <point x="679.816" y="884.769"/>
      <point x="641.816" y="777.769"/>
      <point x="541.141" y="778.132" type="curve" smooth="yes"/>
      <point x="478.815" y="778.357"/>
      <point x="444.816" y="821.769"/>
      <point x="379.833" y="832.215" type="curve" smooth="yes"/>
      <point x="335.384" y="839.36"/>
      <point x="296.816" y="802.769"/>
      <point x="287.846" y="781.102" type="curve"/>
      <point x="275.492" y="781.102" type="line"/>
      <point x="260.816" y="834.769"/>
      <point x="294.816" y="942.769"/>
      <point x="392.67" y="942.882" type="curve" smooth="yes"/>
      <point x="450.816" y="942.949"/>
      <point x="481.816" y="899.769"/>
      <point x="554.706" y="889.799" type="curve" smooth="yes"/>
      <point x="599.4" y="883.685"/>
      <point x="638.816" y="916.769"/>
      <point x="645.471" y="933.285" type="curve"/>
    </contour>
    <contour>
      <point x="192.446" y="714"/>
      <point x="35" y="578.797"/>
      <point x="35" y="349.992" type="curve" smooth="yes"/>
      <point x="35" y="121.197"/>
      <point x="192.446" y="-14"/>
      <point x="450.432" y="-14" type="curve" smooth="yes"/>
      <point x="708.418" y="-14"/>
      <point x="865.865" y="121.197"/>
      <point x="865.865" y="349.992" type="curve" smooth="yes"/>
      <point x="865.865" y="578.797"/>
      <point x="708.418" y="714"/>
      <point x="450.432" y="714" type="curve" smooth="yes"/>
    </contour>
    <contour>
      <point x="328.008" y="35.925"/>
      <point x="255.667" y="152.578"/>
      <point x="255.667" y="349.992" type="curve" smooth="yes"/>
      <point x="255.667" y="547.416"/>
      <point x="328.008" y="664.075"/>
      <point x="450.432" y="664.075" type="curve" smooth="yes"/>
      <point x="572.856" y="664.075"/>
      <point x="645.198" y="547.416"/>
      <point x="645.198" y="349.992" type="curve" smooth="yes"/>
      <point x="645.198" y="152.578"/>
      <point x="572.856" y="35.925"/>
      <point x="450.432" y="35.925" type="curve" smooth="yes"/>
    </contour>
  </outline>
</glyph>
<glyph name="Odieresis" format="1">
  <advance width="905"/>
  <unicode hex="00D6"/>
  <outline>
    <contour>
      <point x="356.288" y="769.486"/>
      <point x="389.278" y="802.476"/>
      <point x="389.278" y="843.174" type="curve" smooth="yes"/>
      <point x="389.278" y="883.872"/>
      <point x="356.288" y="916.863"/>
      <point x="315.591" y="916.863" type="curve" smooth="yes"/>
      <point x="274.893" y="916.863"/>
      <point x="241.903" y="883.872"/>
      <point x="241.903" y="843.174" type="curve" smooth="yes"/>
      <point x="241.903" y="802.476"/>
      <point x="274.893" y="769.486"/>
      <point x="315.591" y="769.486" type="curve" smooth="yes"/>
    </contour>
    <contour>
      <point x="618.886" y="769.486"/>
      <point x="651.875" y="802.476"/>
      <point x="651.875" y="843.174" type="curve" smooth="yes"/>
      <point x="651.875" y="883.872"/>
      <point x="618.886" y="916.863"/>
      <point x="578.188" y="916.863" type="curve" smooth="yes"/>
      <point x="537.49" y="916.863"/>
      <point x="504.5" y="883.872"/>
      <point x="504.5" y="843.174" type="curve" smooth="yes"/>
      <point x="504.5" y="802.476"/>
      <point x="537.49" y="769.486"/>
      <point x="578.188" y="769.486" type="curve" smooth="yes"/>
    </contour>
    <contour>
      <point x="192.446" y="714"/>
      <point x="35" y="578.797"/>
      <point x="35" y="349.992" type="curve" smooth="yes"/>
      <point x="35" y="121.197"/>
      <point x="192.446" y="-14"/>
      <point x="450.432" y="-14" type="curve" smooth="yes"/>
      <point x="708.418" y="-14"/>
      <point x="865.865" y="121.197"/>
      <point x="865.865" y="349.992" type="curve" smooth="yes"/>
      <point x="865.865" y="578.797"/>
      <point x="708.418" y="714"/>
      <point x="450.432" y="714" type="curve" smooth="yes"/>
    </contour>
    <contour>
      <point x="328.008" y="35.925"/>
      <point x="255.667" y="152.578"/>
      <point x="255.667" y="349.992" type="curve" smooth="yes"/>
      <point x="255.667" y="547.416"/>
      <point x="328.008" y="664.075"/>
      <point x="450.432" y="664.075" type="curve" smooth="yes"/>
      <point x="572.856" y="664.075"/>
      <point x="645.198" y="547.416"/>
      <point x="645.198" y="349.992" type="curve" smooth="yes"/>
      <point x="645.198" y="152.578"/>
      <point x="572.856" y="35.925"/>
      <point x="450.432" y="35.925" type="curve" smooth="yes"/>
    </contour>
  </outline>
</glyph>
<glyph name="multiply" format="1">
  <advance width="410"/>
  <unicode hex="00D7"/>
  <outline>
    <contour>
      <point x="370.023" y="428.802" type="line"/>
      <point x="324.061" y="474.764" type="line"/>
      <point x="205.012" y="355.715" type="line"/>
      <point x="85.963" y="474.764" type="line"/>
      <point x="40" y="428.802" type="line"/>
      <point x="159.05" y="309.753" type="line"/>
      <point x="40" y="190.704" type="line"/>
      <point x="85.963" y="144.742" type="line"/>
      <point x="205.012" y="263.791" type="line"/>
      <point x="324.061" y="144.742" type="line"/>
      <point x="370.023" y="190.704" type="line"/>
      <point x="250.974" y="309.753" type="line"/>
    </contour>
  </outline>
</glyph>
<glyph name="Oslash" format="1">
  <advance width="905"/>
  <unicode hex="00D8"/>
  <outline>
    <contour>
      <point x="765.701" y="691.577" type="line"/>
      <point x="722.389" y="726.336" type="line"/>
      <point x="673.9" y="669.96" type="line"/>
      <point x="612.146" y="698.797"/>
      <point x="536.942" y="714"/>
      <point x="450.432" y="714" type="curve" smooth="yes"/>
      <point x="192.446" y="714"/>
      <point x="35" y="578.797"/>
      <point x="35" y="349.992" type="curve" smooth="yes"/>
      <point x="35" y="228.803"/>
      <point x="79.1743" y="133.875"/>
      <point x="159.065" y="71.3885" type="curve"/>
      <point x="108.844" y="12.9999" type="line"/>
      <point x="152.854" y="-23" type="line"/>
      <point x="206.974" y="40.1027" type="line"/>
      <point x="272.223" y="4.75051"/>
      <point x="354.356" y="-14"/>
      <point x="450.432" y="-14" type="curve" smooth="yes"/>
      <point x="708.418" y="-14"/>
      <point x="865.865" y="121.197"/>
      <point x="865.865" y="349.992" type="curve" smooth="yes"/>
      <point x="865.865" y="480.258"/>
      <point x="814.83" y="580.184"/>
      <point x="723.262" y="642.093" type="curve"/>
    </contour>
    <contour>
      <point x="268.504" y="198.627" type="line"/>
      <point x="256.724" y="241.603"/>
      <point x="250.667" y="292.355"/>
      <point x="250.667" y="349.991" type="curve" smooth="yes"/>
      <point x="250.667" y="547.415"/>
      <point x="321.723" y="664.074"/>
      <point x="450.432" y="664.074" type="curve" smooth="yes"/>
      <point x="514.482" y="664.074"/>
      <point x="564.255" y="635.185"/>
      <point x="598.099" y="581.83" type="curve"/>
    </contour>
    <contour>
      <point x="624.395" y="526.814" type="line"/>
      <point x="641.403" y="478.912"/>
      <point x="650.198" y="419.451"/>
      <point x="650.198" y="349.991" type="curve" smooth="yes"/>
      <point x="650.198" y="152.577"/>
      <point x="579.142" y="35.9241"/>
      <point x="450.432" y="35.9241" type="curve" smooth="yes"/>
      <point x="378.702" y="35.9241"/>
      <point x="324.879" y="72.1553"/>
      <point x="291.281" y="138.405" type="curve"/>
    </contour>
    <contour>
      <point x="335" y="700" type="move" name="top"/>
    </contour>
  </outline>
</glyph>
<glyph name="Ugrave" format="1">
  <advance width="845"/>
  <unicode hex="00D9"/>
  <outline>
    <contour>
      <point x="509.9" y="770.906" type="line"/>
      <point x="481.648" y="836.791"/>
      <point x="399.396" y="918.676"/>
      <point x="355.144" y="956.561" type="curve"/>
      <point x="306.764" y="936.325"/>
      <point x="283.385" y="903.09"/>
      <point x="270.005" y="856.854" type="curve"/>
      <point x="333.303" y="814.871"/>
      <point x="429.602" y="772.889"/>
      <point x="502.9" y="763.906" type="curve"/>
    </contour>
    <contour>
      <point x="600.183" y="700" type="line"/>
      <point x="600.183" y="690" type="line"/>
      <point x="616.478" y="690.017" type="line" smooth="yes"/>
      <point x="644.902" y="690.017"/>
      <point x="668.047" y="669.918"/>
      <point x="669.301" y="641.882" type="curve"/>
      <point x="669.301" y="247.399" type="line" smooth="yes"/>
      <point x="668.993" y="115.459"/>
      <point x="601.153" y="37.4946"/>
      <point x="486.424" y="37.4946" type="curve" smooth="yes"/>
      <point x="371.813" y="37.4946"/>
      <point x="304.089" y="120.248"/>
      <point x="304.089" y="260.292" type="curve" smooth="yes"/>
      <point x="304.089" y="641.99" type="line"/>
      <point x="305.308" y="669.969"/>
      <point x="328.431" y="690.016"/>
      <point x="356.815" y="690.016" type="curve" smooth="yes"/>
      <point x="373.111" y="689.999" type="line"/>
      <point x="373.111" y="699.999" type="line"/>
      <point x="30.0011" y="699.999" type="line"/>
      <point x="30.0011" y="689.999" type="line"/>
      <point x="46.2961" y="690.016" type="line" smooth="yes"/>
      <point x="75.1841" y="690.016"/>
      <point x="98.6201" y="669.254"/>
      <point x="99.1621" y="640.498" type="curve" smooth="yes"/>
      <point x="99.1621" y="255.595" type="line" smooth="yes"/>
      <point x="99.0621" y="87.5863"/>
      <point x="211.364" y="-14"/>
      <point x="456.424" y="-14" type="curve" smooth="yes"/>
      <point x="648.115" y="-14"/>
      <point x="755.961" y="88.1343"/>
      <point x="755.974" y="257.339" type="curve" smooth="yes"/>
      <point x="755.974" y="642.789" type="line"/>
      <point x="757.712" y="670.351"/>
      <point x="780.665" y="690.017"/>
      <point x="808.778" y="690.017" type="curve" smooth="yes"/>
      <point x="825.074" y="690" type="line"/>
      <point x="825.074" y="700" type="line"/>
    </contour>
  </outline>
</glyph>
<glyph name="Uacute" format="1">
  <advance width="845"/>
  <unicode hex="00DA"/>
  <outline>
    <contour>
      <point x="465.994" y="761" type="line"/>
      <point x="539.292" y="769.983"/>
      <point x="635.591" y="811.965"/>
      <point x="698.889" y="853.948" type="curve"/>
      <point x="685.509" y="900.184"/>
      <point x="662.13" y="933.419"/>
      <point x="613.75" y="953.655" type="curve"/>
      <point x="569.498" y="915.77"/>
      <point x="487.246" y="833.885"/>
      <point x="458.994" y="768" type="curve"/>
    </contour>
    <contour>
      <point x="600.183" y="700" type="line"/>
      <point x="600.183" y="690" type="line"/>
      <point x="616.478" y="690.017" type="line" smooth="yes"/>
      <point x="644.902" y="690.017"/>
      <point x="668.047" y="669.918"/>
      <point x="669.301" y="641.882" type="curve"/>
      <point x="669.301" y="247.399" type="line" smooth="yes"/>
      <point x="668.993" y="115.459"/>
      <point x="601.153" y="37.4946"/>
      <point x="486.424" y="37.4946" type="curve" smooth="yes"/>
      <point x="371.813" y="37.4946"/>
      <point x="304.089" y="120.248"/>
      <point x="304.089" y="260.292" type="curve" smooth="yes"/>
      <point x="304.089" y="641.99" type="line"/>
      <point x="305.308" y="669.969"/>
      <point x="328.431" y="690.016"/>
      <point x="356.815" y="690.016" type="curve" smooth="yes"/>
      <point x="373.111" y="689.999" type="line"/>
      <point x="373.111" y="699.999" type="line"/>
      <point x="30.0011" y="699.999" type="line"/>
      <point x="30.0011" y="689.999" type="line"/>
      <point x="46.2961" y="690.016" type="line" smooth="yes"/>
      <point x="75.1841" y="690.016"/>
      <point x="98.6201" y="669.254"/>
      <point x="99.1621" y="640.498" type="curve" smooth="yes"/>
      <point x="99.1621" y="255.595" type="line" smooth="yes"/>
      <point x="99.0621" y="87.5863"/>
      <point x="211.364" y="-14"/>
      <point x="456.424" y="-14" type="curve" smooth="yes"/>
      <point x="648.115" y="-14"/>
      <point x="755.961" y="88.1343"/>
      <point x="755.974" y="257.339" type="curve" smooth="yes"/>
      <point x="755.974" y="642.789" type="line"/>
      <point x="757.712" y="670.351"/>
      <point x="780.665" y="690.017"/>
      <point x="808.778" y="690.017" type="curve" smooth="yes"/>
      <point x="825.074" y="690" type="line"/>
      <point x="825.074" y="700" type="line"/>
    </contour>
  </outline>
</glyph>
<glyph name="Ucircumflex" format="1">
  <advance width="845"/>
  <unicode hex="00DB"/>
  <outline>
    <contour>
      <point x="475.747" y="931.759" type="line"/>
      <point x="487.65" y="931.759" type="line"/>
      <point x="666.094" y="756.241" type="line"/>
      <point x="658.953" y="748.241" type="line"/>
      <point x="481.139" y="812.67" type="line"/>
      <point x="314.02" y="748.337" type="line"/>
      <point x="306.879" y="756.337" type="line"/>
    </contour>
    <contour>
      <point x="600.183" y="700" type="line"/>
      <point x="600.183" y="690" type="line"/>
      <point x="616.478" y="690.017" type="line" smooth="yes"/>
      <point x="644.902" y="690.017"/>
      <point x="668.047" y="669.918"/>
      <point x="669.301" y="641.882" type="curve"/>
      <point x="669.301" y="247.399" type="line" smooth="yes"/>
      <point x="668.993" y="115.459"/>
      <point x="601.153" y="37.4946"/>
      <point x="486.424" y="37.4946" type="curve" smooth="yes"/>
      <point x="371.813" y="37.4946"/>
      <point x="304.089" y="120.248"/>
      <point x="304.089" y="260.292" type="curve" smooth="yes"/>
      <point x="304.089" y="641.99" type="line"/>
      <point x="305.308" y="669.969"/>
      <point x="328.431" y="690.016"/>
      <point x="356.815" y="690.016" type="curve" smooth="yes"/>
      <point x="373.111" y="689.999" type="line"/>
      <point x="373.111" y="699.999" type="line"/>
      <point x="30.0011" y="699.999" type="line"/>
      <point x="30.0011" y="689.999" type="line"/>
      <point x="46.2961" y="690.016" type="line" smooth="yes"/>
      <point x="75.1841" y="690.016"/>
      <point x="98.6201" y="669.254"/>
      <point x="99.1621" y="640.498" type="curve" smooth="yes"/>
      <point x="99.1621" y="255.595" type="line" smooth="yes"/>
      <point x="99.0621" y="87.5863"/>
      <point x="211.364" y="-14"/>
      <point x="456.424" y="-14" type="curve" smooth="yes"/>
      <point x="648.115" y="-14"/>
      <point x="755.961" y="88.1343"/>
      <point x="755.974" y="257.339" type="curve" smooth="yes"/>
      <point x="755.974" y="642.789" type="line"/>
      <point x="757.712" y="670.351"/>
      <point x="780.665" y="690.017"/>
      <point x="808.778" y="690.017" type="curve" smooth="yes"/>
      <point x="825.074" y="690" type="line"/>
      <point x="825.074" y="700" type="line"/>
    </contour>
  </outline>
</glyph>
<glyph name="Yacute" format="1">
  <advance width="729"/>
  <unicode hex="00DD"/>
  <outline>
    <contour>
      <point x="418.006" y="761" type="line"/>
      <point x="491.304" y="769.983"/>
      <point x="587.603" y="811.965"/>
      <point x="650.901" y="853.948" type="curve"/>
      <point x="637.521" y="900.184"/>
      <point x="614.142" y="933.419"/>
      <point x="565.762" y="953.655" type="curve"/>
      <point x="521.51" y="915.77"/>
      <point x="439.258" y="833.885"/>
      <point x="411.006" y="768" type="curve"/>
    </contour>
    <contour>
      <point x="525.512" y="700.017" type="line"/>
      <point x="525.512" y="689.993" type="line"/>
      <point x="538.112" y="689.993" type="line" smooth="yes"/>
      <point x="565.343" y="689.993"/>
      <point x="588.768" y="656.432"/>
      <point x="573.182" y="628.074" type="curve" smooth="yes"/>
      <point x="431.104" y="380.757" type="line"/>
      <point x="293.644" y="628.142" type="line" smooth="yes"/>
      <point x="279.102" y="656.488"/>
      <point x="299.532" y="690.034"/>
      <point x="328.74" y="690.034" type="curve" smooth="yes"/>
      <point x="341.339" y="690.034" type="line"/>
      <point x="341.339" y="700" type="line"/>
      <point x="-45" y="700" type="line"/>
      <point x="-45" y="690.034" type="line"/>
      <point x="-31" y="690.034" type="line" smooth="yes"/>
      <point x="9.91931" y="690.034"/>
      <point x="48.799" y="663.022"/>
      <point x="68.4219" y="632.782" type="curve" smooth="yes"/>
      <point x="258.578" y="322.282" type="line"/>
      <point x="258.578" y="72.2762" type="line" smooth="yes"/>
      <point x="257.617" y="37.714"/>
      <point x="229.343" y="9.97893"/>
      <point x="194.538" y="9.97893" type="curve" smooth="yes"/>
      <point x="181.888" y="9.99993" type="line"/>
      <point x="181.727" y="0" type="line"/>
      <point x="540.474" y="0" type="line"/>
      <point x="540.313" y="9.99993" type="line"/>
      <point x="527.663" y="9.97893" type="line" smooth="yes"/>
      <point x="492.661" y="9.97893"/>
      <point x="464.264" y="38.0289"/>
      <point x="463.609" y="72.8639" type="curve"/>
      <point x="463.609" y="321.754" type="line"/>
      <point x="659.853" y="631.221" type="line" smooth="yes"/>
      <point x="680.14" y="662.093"/>
      <point x="718.66" y="689.993"/>
      <point x="760.657" y="689.993" type="curve" smooth="yes"/>
      <point x="774.657" y="689.993" type="line"/>
      <point x="774.657" y="700.017" type="line"/>
    </contour>
  </outline>
</glyph>
<glyph name="Thorn" format="1">
  <advance width="707"/>
  <unicode hex="00DE"/>
  <outline>
    <contour>
      <point x="324.614" y="558.034" type="line"/>
      <point x="324.614" y="627.818" type="line" smooth="yes"/>
      <point x="325.594" y="662.363"/>
      <point x="353.861" y="690.08"/>
      <point x="388.653" y="690.08" type="curve" smooth="yes"/>
      <point x="401.303" y="690.06" type="line"/>
      <point x="401.465" y="700.06" type="line"/>
      <point x="42.7101" y="700.06" type="line"/>
      <point x="42.8721" y="690.06" type="line"/>
      <point x="55.5221" y="690.08" type="line" smooth="yes"/>
      <point x="90.3858" y="690.08"/>
      <point x="118.697" y="662.249"/>
      <point x="119.567" y="627.605" type="curve" smooth="yes"/>
      <point x="119.567" y="72.8636" type="line" smooth="yes"/>
      <point x="118.904" y="38.0286"/>
      <point x="90.507" y="9.97861"/>
      <point x="55.505" y="9.97861" type="curve" smooth="yes"/>
      <point x="42.855" y="9.99961" type="line"/>
      <point x="42.694" y="0" type="line"/>
      <point x="401.481" y="0" type="line"/>
      <point x="401.32" y="9.99961" type="line"/>
      <point x="388.67" y="9.97861" type="line" smooth="yes"/>
      <point x="353.668" y="9.97861"/>
      <point x="325.271" y="38.0286"/>
      <point x="324.616" y="72.8636" type="curve"/>
      <point x="324.616" y="508.034" type="line"/>
      <point x="352.309" y="508.034" type="line" smooth="yes"/>
      <point x="429.068" y="508.034"/>
      <point x="474.068" y="456.034"/>
      <point x="477.068" y="375.034" type="curve" smooth="yes"/>
      <point x="478.068" y="358.034"/>
      <point x="476.068" y="335.034"/>
      <point x="471.068" y="315.034" type="curve" smooth="yes"/>
      <point x="443.068" y="200.034"/>
      <point x="350.068" y="198.034"/>
      <point x="351.101" y="196.9" type="curve"/>
      <point x="351.221" y="187.45" type="line"/>
      <point x="505" y="76.0336"/>
      <point x="702.371" y="182.034"/>
      <point x="692.132" y="367.44" type="curve" smooth="yes"/>
      <point x="686.475" y="469.878"/>
      <point x="615" y="558.034"/>
      <point x="415.931" y="558.034" type="curve" smooth="yes"/>
    </contour>
  </outline>
</glyph>
<glyph name="germandbls" format="1">
  <advance width="1098"/>
  <unicode hex="00DF"/>
  <outline>
    <contour>
      <point x="277.537" y="419.034" type="line"/>
      <point x="234.561" y="436.694"/>
      <point x="191.427" y="454.438"/>
      <point x="196.221" y="499" type="curve" smooth="yes"/>
      <point x="200.583" y="539.543"/>
      <point x="236.13" y="565.458"/>
      <point x="298.628" y="565.458" type="curve" smooth="yes"/>
      <point x="378.953" y="565.458"/>
      <point x="428.61" y="521.379"/>
      <point x="428.61" y="457.289" type="curve"/>
      <point x="435.192" y="457.289" type="line"/>
      <point x="459.228" y="602.867" type="line"/>
      <point x="391.99" y="602.867" type="line"/>
      <point x="337.982" y="608.019"/>
      <point x="266.69" y="611.93"/>
      <point x="241.371" y="611.93" type="curve" smooth="yes"/>
      <point x="133.577" y="611.93"/>
      <point x="65.9471" y="561.384"/>
      <point x="51.2208" y="457" type="curve" smooth="yes"/>
      <point x="38.4806" y="366.694"/>
      <point x="80.2629" y="294.138"/>
      <point x="166.024" y="257.524" type="curve" smooth="yes"/>
      <point x="271.151" y="208.946" type="line" smooth="yes"/>
      <point x="342.425" y="178.16"/>
      <point x="370.633" y="148.656"/>
      <point x="370.633" y="111.996" type="curve" smooth="yes"/>
      <point x="370.633" y="73.3774"/>
      <point x="341.129" y="33.4525"/>
      <point x="266.221" y="34" type="curve" smooth="yes"/>
      <point x="147.332" y="34.8694"/>
      <point x="80.9404" y="124.746"/>
      <point x="84.695" y="215.542" type="curve"/>
      <point x="79.2563" y="215.542" type="line"/>
      <point x="48.3014" y="178.327"/>
      <point x="27.3953" y="90.7534"/>
      <point x="48.6314" y="45.151" type="curve"/>
      <point x="72.4559" y="15.068"/>
      <point x="137.05" y="-12"/>
      <point x="240.68" y="-12" type="curve" smooth="yes"/>
      <point x="405.888" y="-12"/>
      <point x="502.558" y="53.418"/>
      <point x="513.221" y="182" type="curve" smooth="yes"/>
      <point x="520.869" y="274.225"/>
      <point x="473.807" y="331.376"/>
      <point x="407" y="359.772" type="curve" smooth="yes"/>
    </contour>
    <contour>
      <point x="826.537" y="419.034" type="line"/>
      <point x="783.561" y="436.694"/>
      <point x="740.427" y="454.438"/>
      <point x="745.221" y="499" type="curve" smooth="yes"/>
      <point x="749.583" y="539.543"/>
      <point x="785.13" y="565.458"/>
      <point x="847.628" y="565.458" type="curve" smooth="yes"/>
      <point x="927.953" y="565.458"/>
      <point x="977.61" y="521.379"/>
      <point x="977.61" y="457.289" type="curve"/>
      <point x="984.192" y="457.289" type="line"/>
      <point x="1008.23" y="602.867" type="line"/>
      <point x="940.99" y="602.867" type="line"/>
      <point x="886.982" y="608.019"/>
      <point x="815.69" y="611.93"/>
      <point x="790.371" y="611.93" type="curve" smooth="yes"/>
      <point x="682.577" y="611.93"/>
      <point x="614.947" y="561.384"/>
      <point x="600.221" y="457" type="curve" smooth="yes"/>
      <point x="587.481" y="366.694"/>
      <point x="629.263" y="294.138"/>
      <point x="715.024" y="257.524" type="curve" smooth="yes"/>
      <point x="820.151" y="208.946" type="line" smooth="yes"/>
      <point x="891.425" y="178.16"/>
      <point x="919.633" y="148.656"/>
      <point x="919.633" y="111.996" type="curve" smooth="yes"/>
      <point x="919.633" y="73.3774"/>
      <point x="890.129" y="33.4525"/>
      <point x="815.221" y="34" type="curve" smooth="yes"/>
      <point x="696.332" y="34.8694"/>
      <point x="629.94" y="124.746"/>
      <point x="633.695" y="215.542" type="curve"/>
      <point x="628.256" y="215.542" type="line"/>
      <point x="597.301" y="178.327"/>
      <point x="576.395" y="90.7534"/>
      <point x="597.631" y="45.151" type="curve"/>
      <point x="621.456" y="15.068"/>
      <point x="686.05" y="-12"/>
      <point x="789.68" y="-12" type="curve" smooth="yes"/>
      <point x="954.888" y="-12"/>
      <point x="1051.56" y="53.418"/>
      <point x="1062.22" y="182" type="curve" smooth="yes"/>
      <point x="1069.87" y="274.225"/>
      <point x="1022.81" y="331.376"/>
      <point x="956" y="359.772" type="curve" smooth="yes"/>
    </contour>
  </outline>
</glyph>
<glyph name="agrave" format="1">
  <advance width="632"/>
  <unicode hex="00E0"/>
  <outline>
    <contour>
      <point x="331.427" y="670.906" type="line"/>
      <point x="303.175" y="736.791"/>
      <point x="220.923" y="818.676"/>
      <point x="176.671" y="856.561" type="curve"/>
      <point x="128.291" y="836.325"/>
      <point x="104.912" y="803.09"/>
      <point x="91.5324" y="756.854" type="curve"/>
      <point x="154.83" y="714.871"/>
      <point x="251.129" y="672.889"/>
      <point x="324.427" y="663.906" type="curve"/>
    </contour>
    <contour>
      <point x="307.614" y="636.407" type="line"/>
      <point x="299.762" y="636.407" type="line"/>
      <point x="296.05" y="606.839"/>
      <point x="259.343" y="528.783"/>
      <point x="247.79" y="503.389" type="curve" smooth="yes"/>
      <point x="42.03" y="58.5344" type="line"/>
      <point x="24.0298" y="23.1895"/>
      <point x="-9" y="9.99948"/>
      <point x="-34" y="9.99948" type="curve" smooth="yes"/>
      <point x="-42" y="9.99948" type="line"/>
      <point x="-42" y="0" type="line"/>
      <point x="164.452" y="0" type="line"/>
      <point x="164.452" y="9.90768" type="line"/>
      <point x="156.649" y="9.90768" type="line" smooth="yes"/>
      <point x="134.3" y="9.90768"/>
      <point x="109.119" y="26.5144"/>
      <point x="121.538" y="58.4458" type="curve"/>
      <point x="151.502" y="127.097" type="line"/>
      <point x="337.268" y="127.097" type="line"/>
      <point x="366.188" y="60.8711" type="line" smooth="yes"/>
      <point x="380.851" y="27.3563"/>
      <point x="355.196" y="9.91118"/>
      <point x="332.287" y="9.91118" type="curve" smooth="yes"/>
      <point x="324.487" y="9.91118" type="line"/>
      <point x="324.487" y="0" type="line"/>
      <point x="675.621" y="0" type="line"/>
      <point x="675.621" y="10" type="line"/>
      <point x="668.2" y="10" type="line" smooth="yes"/>
      <point x="641.05" y="10"/>
      <point x="609.012" y="23.7948"/>
      <point x="590.32" y="60.9703" type="curve" smooth="yes"/>
    </contour>
    <contour>
      <point x="171.316" y="172.492" type="line"/>
      <point x="244.363" y="339.852" type="line"/>
      <point x="317.445" y="172.492" type="line"/>
    </contour>
  </outline>
</glyph>
<glyph name="aacute" format="1">
  <advance width="632"/>
  <unicode hex="00E1"/>
  <outline>
    <contour>
      <point x="287.521" y="661" type="line"/>
      <point x="360.819" y="669.983"/>
      <point x="457.118" y="711.965"/>
      <point x="520.416" y="753.948" type="curve"/>
      <point x="507.036" y="800.184"/>
      <point x="483.657" y="833.419"/>
      <point x="435.277" y="853.655" type="curve"/>
      <point x="391.025" y="815.77"/>
      <point x="308.773" y="733.885"/>
      <point x="280.521" y="668" type="curve"/>
    </contour>
    <contour>
      <point x="307.614" y="636.407" type="line"/>
      <point x="299.762" y="636.407" type="line"/>
      <point x="296.05" y="606.839"/>
      <point x="259.343" y="528.783"/>
      <point x="247.79" y="503.389" type="curve" smooth="yes"/>
      <point x="42.03" y="58.5344" type="line"/>
      <point x="24.0298" y="23.1895"/>
      <point x="-9" y="9.99947"/>
      <point x="-34" y="9.99947" type="curve" smooth="yes"/>
      <point x="-42" y="9.99947" type="line"/>
      <point x="-42" y="0" type="line"/>
      <point x="164.452" y="0" type="line"/>
      <point x="164.452" y="9.90767" type="line"/>
      <point x="156.649" y="9.90767" type="line" smooth="yes"/>
      <point x="134.3" y="9.90767"/>
      <point x="109.119" y="26.5144"/>
      <point x="121.538" y="58.4458" type="curve"/>
      <point x="151.502" y="127.097" type="line"/>
      <point x="337.268" y="127.097" type="line"/>
      <point x="366.188" y="60.8711" type="line" smooth="yes"/>
      <point x="380.851" y="27.3563"/>
      <point x="355.196" y="9.91117"/>
      <point x="332.287" y="9.91117" type="curve" smooth="yes"/>
      <point x="324.487" y="9.91117" type="line"/>
      <point x="324.487" y="0" type="line"/>
      <point x="675.621" y="0" type="line"/>
      <point x="675.621" y="10" type="line"/>
      <point x="668.2" y="10" type="line" smooth="yes"/>
      <point x="641.05" y="10"/>
      <point x="609.012" y="23.7948"/>
      <point x="590.32" y="60.9703" type="curve" smooth="yes"/>
    </contour>
    <contour>
      <point x="171.316" y="172.492" type="line"/>
      <point x="244.363" y="339.852" type="line"/>
      <point x="317.445" y="172.492" type="line"/>
    </contour>
  </outline>
</glyph>
<glyph name="atilde" format="1">
  <advance width="632"/>
  <unicode hex="00E3"/>
  <outline>
    <contour>
      <point x="511.913" y="819.285" type="line"/>
      <point x="533.905" y="770.769"/>
      <point x="495.905" y="663.769"/>
      <point x="395.23" y="664.132" type="curve" smooth="yes"/>
      <point x="332.904" y="664.357"/>
      <point x="298.905" y="707.769"/>
      <point x="233.922" y="718.215" type="curve" smooth="yes"/>
      <point x="189.473" y="725.36"/>
      <point x="150.905" y="688.769"/>
      <point x="141.935" y="667.102" type="curve"/>
      <point x="129.581" y="667.102" type="line"/>
      <point x="114.905" y="720.769"/>
      <point x="148.905" y="828.769"/>
      <point x="246.759" y="828.882" type="curve" smooth="yes"/>
      <point x="304.905" y="828.949"/>
      <point x="335.905" y="785.769"/>
      <point x="408.795" y="775.799" type="curve" smooth="yes"/>
      <point x="453.489" y="769.685"/>
      <point x="492.905" y="802.769"/>
      <point x="499.56" y="819.285" type="curve"/>
    </contour>
    <contour>
      <point x="307.614" y="636.407" type="line"/>
      <point x="299.762" y="636.407" type="line"/>
      <point x="296.05" y="606.839"/>
      <point x="259.343" y="528.783"/>
      <point x="247.79" y="503.389" type="curve" smooth="yes"/>
      <point x="42.03" y="58.5344" type="line"/>
      <point x="24.0298" y="23.1895"/>
      <point x="-9" y="9.99951"/>
      <point x="-34" y="9.99951" type="curve" smooth="yes"/>
      <point x="-42" y="9.99951" type="line"/>
      <point x="-42" y="0" type="line"/>
      <point x="164.452" y="0" type="line"/>
      <point x="164.452" y="9.90771" type="line"/>
      <point x="156.649" y="9.90771" type="line" smooth="yes"/>
      <point x="134.3" y="9.90771"/>
      <point x="109.119" y="26.5144"/>
      <point x="121.538" y="58.4458" type="curve"/>
      <point x="151.502" y="127.097" type="line"/>
      <point x="337.268" y="127.097" type="line"/>
      <point x="366.187" y="60.8711" type="line" smooth="yes"/>
      <point x="380.851" y="27.3563"/>
      <point x="355.196" y="9.91121"/>
      <point x="332.287" y="9.91121" type="curve" smooth="yes"/>
      <point x="324.487" y="9.91121" type="line"/>
      <point x="324.487" y="0" type="line"/>
      <point x="675.621" y="0" type="line"/>
      <point x="675.621" y="10" type="line"/>
      <point x="668.2" y="10" type="line" smooth="yes"/>
      <point x="641.05" y="10"/>
      <point x="609.012" y="23.7948"/>
      <point x="590.32" y="60.9703" type="curve" smooth="yes"/>
    </contour>
    <contour>
      <point x="171.316" y="172.492" type="line"/>
      <point x="244.363" y="339.852" type="line"/>
      <point x="317.445" y="172.492" type="line"/>
    </contour>
  </outline>
</glyph>
<glyph name="adieresis" format="1">
  <advance width="632"/>
  <unicode hex="00E4"/>
  <outline>
    <contour>
      <point x="210.377" y="655.486"/>
      <point x="243.367" y="688.476"/>
      <point x="243.367" y="729.174" type="curve" smooth="yes"/>
      <point x="243.367" y="769.872"/>
      <point x="210.377" y="802.863"/>
      <point x="169.68" y="802.863" type="curve" smooth="yes"/>
      <point x="128.982" y="802.863"/>
      <point x="95.9924" y="769.872"/>
      <point x="95.9924" y="729.174" type="curve" smooth="yes"/>
      <point x="95.9924" y="688.476"/>
      <point x="128.982" y="655.486"/>
      <point x="169.68" y="655.486" type="curve" smooth="yes"/>
    </contour>
    <contour>
      <point x="472.975" y="655.486"/>
      <point x="505.964" y="688.476"/>
      <point x="505.964" y="729.174" type="curve" smooth="yes"/>
      <point x="505.964" y="769.872"/>
      <point x="472.975" y="802.863"/>
      <point x="432.277" y="802.863" type="curve" smooth="yes"/>
      <point x="391.579" y="802.863"/>
      <point x="358.589" y="769.872"/>
      <point x="358.589" y="729.174" type="curve" smooth="yes"/>
      <point x="358.589" y="688.476"/>
      <point x="391.579" y="655.486"/>
      <point x="432.277" y="655.486" type="curve" smooth="yes"/>
    </contour>
    <contour>
      <point x="307.614" y="636.407" type="line"/>
      <point x="299.762" y="636.407" type="line"/>
      <point x="296.05" y="606.839"/>
      <point x="259.343" y="528.783"/>
      <point x="247.79" y="503.389" type="curve" smooth="yes"/>
      <point x="42.03" y="58.5344" type="line"/>
      <point x="24.0298" y="23.1895"/>
      <point x="-9" y="9.9995"/>
      <point x="-34" y="9.9995" type="curve" smooth="yes"/>
      <point x="-42" y="9.9995" type="line"/>
      <point x="-42" y="0" type="line"/>
      <point x="164.452" y="0" type="line"/>
      <point x="164.452" y="9.9077" type="line"/>
      <point x="156.649" y="9.9077" type="line" smooth="yes"/>
      <point x="134.3" y="9.9077"/>
      <point x="109.119" y="26.5144"/>
      <point x="121.538" y="58.4458" type="curve"/>
      <point x="151.502" y="127.097" type="line"/>
      <point x="337.268" y="127.097" type="line"/>
      <point x="366.187" y="60.8711" type="line" smooth="yes"/>
      <point x="380.851" y="27.3563"/>
      <point x="355.196" y="9.9112"/>
      <point x="332.287" y="9.9112" type="curve" smooth="yes"/>
      <point x="324.487" y="9.9112" type="line"/>
      <point x="324.487" y="0" type="line"/>
      <point x="675.621" y="0" type="line"/>
      <point x="675.621" y="10" type="line"/>
      <point x="668.2" y="10" type="line" smooth="yes"/>
      <point x="641.05" y="10"/>
      <point x="609.012" y="23.7948"/>
      <point x="590.32" y="60.9703" type="curve" smooth="yes"/>
    </contour>
    <contour>
      <point x="171.316" y="172.492" type="line"/>
      <point x="244.363" y="339.852" type="line"/>
      <point x="317.445" y="172.492" type="line"/>
    </contour>
  </outline>
</glyph>
<glyph name="aring" format="1">
  <advance width="632"/>
  <unicode hex="00E5"/>
  <outline>
    <contour>
      <point x="236.338" y="841.629"/>
      <point x="185.308" y="803.357"/>
      <point x="185.303" y="752.328" type="curve" smooth="yes"/>
      <point x="185.299" y="701.294"/>
      <point x="235.856" y="663.022"/>
      <point x="303.271" y="663.026" type="curve" smooth="yes"/>
      <point x="370.665" y="663.03"/>
      <point x="421.222" y="702.249"/>
      <point x="421.238" y="754.534" type="curve" smooth="yes"/>
      <point x="421.255" y="804.306"/>
      <point x="371.17" y="841.633"/>
      <point x="304.373" y="841.631" type="curve" smooth="yes"/>
    </contour>
    <contour>
      <point x="332.885" y="811.877"/>
      <point x="355.093" y="786.362"/>
      <point x="355.088" y="752.328" type="curve" smooth="yes"/>
      <point x="355.084" y="718.946"/>
      <point x="332.876" y="693.904"/>
      <point x="303.271" y="693.896" type="curve" smooth="yes"/>
      <point x="274.286" y="693.888"/>
      <point x="252.552" y="718.93"/>
      <point x="252.556" y="752.328" type="curve" smooth="yes"/>
      <point x="252.56" y="786.335"/>
      <point x="274.296" y="811.85"/>
      <point x="303.271" y="811.864" type="curve" smooth="yes"/>
    </contour>
    <contour>
      <point x="307.614" y="636.407" type="line"/>
      <point x="299.762" y="636.407" type="line"/>
      <point x="296.05" y="606.839"/>
      <point x="259.343" y="528.783"/>
      <point x="247.79" y="503.389" type="curve" smooth="yes"/>
      <point x="42.03" y="58.5344" type="line"/>
      <point x="24.0298" y="23.1895"/>
      <point x="-9" y="9.99952"/>
      <point x="-34" y="9.99952" type="curve" smooth="yes"/>
      <point x="-42" y="9.99952" type="line"/>
      <point x="-42" y="0" type="line"/>
      <point x="164.452" y="0" type="line"/>
      <point x="164.452" y="9.90772" type="line"/>
      <point x="156.649" y="9.90772" type="line" smooth="yes"/>
      <point x="134.3" y="9.90772"/>
      <point x="109.119" y="26.5144"/>
      <point x="121.538" y="58.4458" type="curve"/>
      <point x="151.502" y="127.097" type="line"/>
      <point x="337.268" y="127.097" type="line"/>
      <point x="366.188" y="60.8711" type="line" smooth="yes"/>
      <point x="380.851" y="27.3563"/>
      <point x="355.196" y="9.91122"/>
      <point x="332.287" y="9.91122" type="curve" smooth="yes"/>
      <point x="324.487" y="9.91122" type="line"/>
      <point x="324.487" y="0" type="line"/>
      <point x="675.621" y="0" type="line"/>
      <point x="675.621" y="10" type="line"/>
      <point x="668.2" y="10" type="line" smooth="yes"/>
      <point x="641.05" y="10"/>
      <point x="609.012" y="23.7948"/>
      <point x="590.32" y="60.9703" type="curve" smooth="yes"/>
    </contour>
    <contour>
      <point x="171.316" y="172.492" type="line"/>
      <point x="244.363" y="339.852" type="line"/>
      <point x="317.445" y="172.492" type="line"/>
    </contour>
  </outline>
</glyph>
<glyph name="ae" format="1">
  <advance width="885"/>
  <unicode hex="00E6"/>
  <outline>
    <contour>
      <point x="867.922" y="208.846" type="line"/>
      <point x="840.672" y="105.226"/>
      <point x="768.032" y="45.589"/>
      <point x="683.802" y="45.589" type="curve" smooth="yes"/>
      <point x="591.608" y="45.589" type="line"/>
      <point x="591.608" y="270.609" type="line"/>
      <point x="673.854" y="270.609" type="line"/>
      <point x="729.863" y="267.421"/>
      <point x="768.963" y="226.684"/>
      <point x="768.764" y="170.4" type="curve" smooth="yes"/>
      <point x="768.75" y="167.446" type="line"/>
      <point x="777.13" y="167.34" type="line"/>
      <point x="777.13" y="419.004" type="line"/>
      <point x="768.75" y="418.897" type="line"/>
      <point x="768.764" y="415.959" type="line" smooth="yes"/>
      <point x="768.978" y="359.231"/>
      <point x="729.305" y="318.296"/>
      <point x="672.514" y="315.684" type="curve"/>
      <point x="591.608" y="315.684" type="line"/>
      <point x="591.608" y="553.481" type="line"/>
      <point x="699.39" y="553.481" type="line"/>
      <point x="772.674" y="550.749"/>
      <point x="815.158" y="506.695"/>
      <point x="814.973" y="433.473" type="curve" smooth="yes"/>
      <point x="814.957" y="427.539" type="line"/>
      <point x="823.653" y="427.408" type="line"/>
      <point x="823.62" y="614.648" type="line"/>
      <point x="807.657" y="607.943"/>
      <point x="758.135" y="599.404"/>
      <point x="721.068" y="599.057" type="curve" smooth="yes"/>
      <point x="365.506" y="599.057" type="line"/>
      <point x="365.506" y="590.485" type="line"/>
      <point x="369.913" y="590.485" type="line" smooth="yes"/>
      <point x="392.303" y="590.485"/>
      <point x="404.96" y="571.012"/>
      <point x="388.547" y="546.661" type="curve" smooth="yes"/>
      <point x="51.8675" y="62.7735" type="line" smooth="yes"/>
      <point x="23.7331" y="23.1441"/>
      <point x="2.3291" y="9.99999"/>
      <point x="-23" y="9.99999" type="curve" smooth="yes"/>
      <point x="-31" y="9.99999" type="line"/>
      <point x="-31" y="0" type="line"/>
      <point x="177.897" y="0" type="line"/>
      <point x="177.897" y="9.89589" type="line"/>
      <point x="170.406" y="9.89589" type="line" smooth="yes"/>
      <point x="149.151" y="10.0849"/>
      <point x="115.673" y="26.5586"/>
      <point x="134.71" y="60.5221" type="curve"/>
      <point x="266.407" y="270.609" type="line"/>
      <point x="400.23" y="270.609" type="line"/>
      <point x="400.23" y="50.0238" type="line" smooth="yes"/>
      <point x="399.792" y="27.0537"/>
      <point x="381.006" y="9.98358"/>
      <point x="357.852" y="9.98358" type="curve" smooth="yes"/>
      <point x="349.483" y="9.99988" type="line"/>
      <point x="349.376" y="0" type="line"/>
      <point x="845.466" y="0" type="line"/>
      <point x="876.525" y="208.845" type="line"/>
    </contour>
    <contour>
      <point x="294.663" y="315.684" type="line"/>
      <point x="400.23" y="484.088" type="line"/>
      <point x="400.23" y="315.684" type="line"/>
    </contour>
    <contour>
      <point x="300" y="498.381" type="move" name="top"/>
    </contour>
  </outline>
</glyph>
<glyph name="ccedilla" format="1">
  <advance width="668"/>
  <unicode hex="00E7"/>
  <outline>
    <contour>
      <point x="612.607" y="249.942" type="line"/>
      <point x="605.532" y="249.945" type="line"/>
      <point x="571.779" y="87.707"/>
      <point x="542.056" y="33.4329"/>
      <point x="403.567" y="33.3148" type="curve"/>
      <point x="290.184" y="37.5532"/>
      <point x="227.47" y="142.441"/>
      <point x="227.47" y="303.756" type="curve" smooth="yes"/>
      <point x="227.47" y="458.376"/>
      <point x="283.767" y="566.558"/>
      <point x="420.74" y="566.558" type="curve" smooth="yes"/>
      <point x="503.675" y="566.558"/>
      <point x="565.592" y="529.004"/>
      <point x="601.603" y="405.951" type="curve"/>
      <point x="608.678" y="405.954" type="line"/>
      <point x="621.519" y="576.236" type="line"/>
      <point x="576.29" y="594.117"/>
      <point x="500.251" y="611.93"/>
      <point x="403.584" y="611.93" type="curve" smooth="yes"/>
      <point x="162.706" y="611.93"/>
      <point x="23.1821" y="497.282"/>
      <point x="23.1821" y="300.52" type="curve" smooth="yes"/>
      <point x="23.1821" y="116.647"/>
      <point x="144.26" y="8.62019"/>
      <point x="344.968" y="-9" type="curve"/>
      <point x="297.209" y="-71" type="line"/>
      <point x="302.295" y="-81" type="line"/>
      <point x="338.537" y="-66"/>
      <point x="404.839" y="-77"/>
      <point x="399.691" y="-119" type="curve" smooth="yes"/>
      <point x="392.995" y="-174"/>
      <point x="337.639" y="-195"/>
      <point x="295.912" y="-195" type="curve"/>
      <point x="295.174" y="-205" type="line"/>
      <point x="378.263" y="-234"/>
      <point x="477.283" y="-190"/>
      <point x="483.691" y="-120" type="curve" smooth="yes"/>
      <point x="490.04" y="-51"/>
      <point x="400.44" y="-45"/>
      <point x="364.853" y="-57" type="curve"/>
      <point x="403.802" y="-12" type="line"/>
      <point x="541.483" y="-12"/>
      <point x="608.129" y="37.4975"/>
      <point x="638.818" y="90.1467" type="curve"/>
    </contour>
  </outline>
</glyph>
<glyph name="egrave" format="1">
  <advance width="575"/>
  <unicode hex="00E8"/>
  <outline>
    <contour>
      <point x="314.594" y="671.342" type="line"/>
      <point x="286.342" y="737.227"/>
      <point x="204.09" y="819.112"/>
      <point x="159.838" y="856.997" type="curve"/>
      <point x="111.458" y="836.761"/>
      <point x="88.0792" y="803.526"/>
      <point x="74.6992" y="757.29" type="curve"/>
      <point x="137.997" y="715.307"/>
      <point x="234.296" y="673.325"/>
      <point x="307.594" y="664.342" type="curve"/>
    </contour>
    <contour>
      <point x="560.999" y="210.028" type="line"/>
      <point x="552.094" y="210.028" type="line"/>
      <point x="527.258" y="105.669"/>
      <point x="453.165" y="46.4052"/>
      <point x="376.386" y="46.4052" type="curve" smooth="yes"/>
      <point x="279.853" y="46.4052" type="line"/>
      <point x="279.853" y="272.431" type="line"/>
      <point x="356.635" y="272.431" type="line" smooth="yes"/>
      <point x="416.114" y="271.376"/>
      <point x="456.186" y="228.468"/>
      <point x="456.186" y="169.688" type="curve" smooth="yes"/>
      <point x="456.187" y="166.266" type="line"/>
      <point x="466.186" y="166.266" type="line"/>
      <point x="466.186" y="423.964" type="line"/>
      <point x="456.187" y="423.964" type="line"/>
      <point x="456.186" y="421.613" type="line" smooth="yes"/>
      <point x="456.186" y="362.832"/>
      <point x="416.114" y="319.924"/>
      <point x="356.635" y="318.876" type="curve" smooth="yes"/>
      <point x="279.853" y="318.876" type="line"/>
      <point x="279.853" y="553.532" type="line"/>
      <point x="383.033" y="553.532" type="line" smooth="yes"/>
      <point x="458.529" y="552.49"/>
      <point x="500.243" y="507.7"/>
      <point x="500.243" y="430.925" type="curve" smooth="yes"/>
      <point x="500.246" y="425.532" type="line"/>
      <point x="510.243" y="425.532" type="line"/>
      <point x="510.243" y="615.021" type="line"/>
      <point x="495.373" y="609.029"/>
      <point x="446.631" y="599.936"/>
      <point x="410.788" y="599.936" type="curve" smooth="yes"/>
      <point x="21.03" y="599.936" type="line"/>
      <point x="21.0162" y="589.935" type="line"/>
      <point x="31.8638" y="589.935" type="line" smooth="yes"/>
      <point x="59.648" y="589.935"/>
      <point x="83.731" y="567.706"/>
      <point x="83.683" y="537.442" type="curve" smooth="yes"/>
      <point x="83.683" y="62.3982" type="line" smooth="yes"/>
      <point x="83.7294" y="32.1339"/>
      <point x="59.6464" y="10"/>
      <point x="31.8621" y="10" type="curve" smooth="yes"/>
      <point x="21.0146" y="10" type="line"/>
      <point x="21.0282" y="0" type="line"/>
      <point x="532.753" y="0" type="line"/>
    </contour>
  </outline>
</glyph>
<glyph name="edieresis" format="1">
  <advance width="575"/>
  <unicode hex="00EB"/>
  <outline>
    <contour>
      <point x="193.544" y="655.922"/>
      <point x="226.534" y="688.912"/>
      <point x="226.534" y="729.61" type="curve" smooth="yes"/>
      <point x="226.534" y="770.308"/>
      <point x="193.544" y="803.299"/>
      <point x="152.847" y="803.299" type="curve" smooth="yes"/>
      <point x="112.149" y="803.299"/>
      <point x="79.1592" y="770.308"/>
      <point x="79.1592" y="729.61" type="curve" smooth="yes"/>
      <point x="79.1592" y="688.912"/>
      <point x="112.149" y="655.922"/>
      <point x="152.847" y="655.922" type="curve" smooth="yes"/>
    </contour>
    <contour>
      <point x="456.142" y="655.922"/>
      <point x="489.131" y="688.912"/>
      <point x="489.131" y="729.61" type="curve" smooth="yes"/>
      <point x="489.131" y="770.308"/>
      <point x="456.142" y="803.299"/>
      <point x="415.444" y="803.299" type="curve" smooth="yes"/>
      <point x="374.746" y="803.299"/>
      <point x="341.756" y="770.308"/>
      <point x="341.756" y="729.61" type="curve" smooth="yes"/>
      <point x="341.756" y="688.912"/>
      <point x="374.746" y="655.922"/>
      <point x="415.444" y="655.922" type="curve" smooth="yes"/>
    </contour>
    <contour>
      <point x="560.999" y="210.028" type="line"/>
      <point x="552.094" y="210.028" type="line"/>
      <point x="527.258" y="105.669"/>
      <point x="453.165" y="46.4052"/>
      <point x="376.386" y="46.4052" type="curve" smooth="yes"/>
      <point x="279.853" y="46.4052" type="line"/>
      <point x="279.853" y="272.431" type="line"/>
      <point x="356.635" y="272.431" type="line" smooth="yes"/>
      <point x="416.114" y="271.376"/>
      <point x="456.186" y="228.468"/>
      <point x="456.186" y="169.688" type="curve" smooth="yes"/>
      <point x="456.187" y="166.266" type="line"/>
      <point x="466.186" y="166.266" type="line"/>
      <point x="466.186" y="423.964" type="line"/>
      <point x="456.187" y="423.964" type="line"/>
      <point x="456.186" y="421.613" type="line" smooth="yes"/>
      <point x="456.186" y="362.832"/>
      <point x="416.114" y="319.924"/>
      <point x="356.635" y="318.876" type="curve" smooth="yes"/>
      <point x="279.853" y="318.876" type="line"/>
      <point x="279.853" y="553.532" type="line"/>
      <point x="383.033" y="553.532" type="line" smooth="yes"/>
      <point x="458.529" y="552.49"/>
      <point x="500.243" y="507.7"/>
      <point x="500.243" y="430.925" type="curve" smooth="yes"/>
      <point x="500.246" y="425.532" type="line"/>
      <point x="510.243" y="425.532" type="line"/>
      <point x="510.243" y="615.021" type="line"/>
      <point x="495.373" y="609.029"/>
      <point x="446.631" y="599.936"/>
      <point x="410.788" y="599.936" type="curve" smooth="yes"/>
      <point x="21.03" y="599.936" type="line"/>
      <point x="21.0162" y="589.935" type="line"/>
      <point x="31.8638" y="589.935" type="line" smooth="yes"/>
      <point x="59.648" y="589.935"/>
      <point x="83.731" y="567.706"/>
      <point x="83.683" y="537.442" type="curve" smooth="yes"/>
      <point x="83.683" y="62.3982" type="line" smooth="yes"/>
      <point x="83.7294" y="32.1339"/>
      <point x="59.6464" y="10"/>
      <point x="31.8621" y="10" type="curve" smooth="yes"/>
      <point x="21.0146" y="10" type="line"/>
      <point x="21.0282" y="0" type="line"/>
      <point x="532.753" y="0" type="line"/>
    </contour>
  </outline>
</glyph>
<glyph name="igrave" format="1">
  <advance width="362"/>
  <unicode hex="00EC"/>
  <outline>
    <contour>
      <point x="205.861" y="671.406" type="line"/>
      <point x="177.609" y="737.291"/>
      <point x="95.357" y="819.176"/>
      <point x="51.105" y="857.061" type="curve"/>
      <point x="2.72499" y="836.825"/>
      <point x="-21" y="803.59"/>
      <point x="-34" y="757.354" type="curve"/>
      <point x="29.264" y="715.371"/>
      <point x="125.563" y="673.389"/>
      <point x="198.861" y="664.406" type="curve"/>
    </contour>
    <contour>
      <point x="279.057" y="537.657" type="line"/>
      <point x="280.093" y="567.929"/>
      <point x="302.638" y="590.07"/>
      <point x="331.136" y="590.07" type="curve" smooth="yes"/>
      <point x="341.449" y="590.071" type="line"/>
      <point x="341.449" y="600.07" type="line"/>
      <point x="21.034" y="600.07" type="line"/>
      <point x="21.02" y="590.071" type="line"/>
      <point x="31.885" y="590.07" type="line" smooth="yes"/>
      <point x="59.0557" y="590.07"/>
      <point x="82.5182" y="568.311"/>
      <point x="82.866" y="538.441" type="curve" smooth="yes"/>
      <point x="82.866" y="62.4115" type="line" smooth="yes"/>
      <point x="82.925" y="32.1405"/>
      <point x="59.289" y="9.9995"/>
      <point x="31.882" y="9.9995" type="curve" smooth="yes"/>
      <point x="21.016" y="9.9995" type="line"/>
      <point x="21.03" y="0" type="line"/>
      <point x="341.984" y="0" type="line"/>
      <point x="341.998" y="9.9995" type="line"/>
      <point x="331.133" y="9.9995" type="line" smooth="yes"/>
      <point x="302.634" y="9.9995"/>
      <point x="280.089" y="32.1405"/>
      <point x="279.057" y="62.412" type="curve" smooth="yes"/>
    </contour>
  </outline>
</glyph>
